<svg width="217" height="62" viewBox="0 0 217 62" fill="none" xmlns="http://www.w3.org/2000/svg">
<circle cx="31" cy="31" r="31" fill="#2F2F2F"/>
<path d="M43.4882 32.8785C45.3247 36.0595 45.3228 39.8572 43.4875 43.0367C42.5832 44.6042 41.2877 45.8732 39.7666 46.7514C38.2455 47.6296 36.4975 48.1178 34.6891 48.1164L26.7898 48.1184C24.2229 48.1171 21.7783 47.1371 19.9318 45.4469C19.174 44.7575 18.5162 43.9475 17.9915 43.0387L17.6821 42.5028C16.7899 40.9575 17.2829 38.9893 18.7755 38.041C17.2918 39.0283 17.9992 41.3999 19.8204 41.4177L26.62 41.4922L26.8169 41.4718L33.5324 41.471C35.274 41.6009 37.0743 41.2268 38.7011 40.2876C41.6058 38.6105 43.2258 35.5606 43.2118 32.4322C43.3079 32.577 43.4 32.7258 43.4882 32.8785Z" fill="url(#paint0_linear_319_134)"/>
<path d="M43.498 19.2153L43.8059 19.7487C44.6827 21.2672 44.2263 23.1872 42.7975 24.1547C44.1354 23.1531 43.4308 20.9157 41.6787 20.897L35.2633 20.8264L35.2514 20.8265C35.0691 20.7949 34.8853 20.7793 34.7001 20.7799L34.6731 20.7802L27.6323 20.7788C25.9422 20.6853 24.2041 21.0642 22.6257 21.9755C19.8024 23.6056 18.1947 26.5297 18.1209 29.5678C18.0797 29.5045 18.0407 29.4398 18.0039 29.374C16.1673 26.1931 16.1659 22.3955 18.0031 19.2133C19.8118 16.0816 23.185 14.1341 26.8015 14.1336L34.701 14.1349C37.2679 14.1362 39.7105 15.1156 41.557 16.8058C42.3148 17.4952 42.9718 18.3039 43.498 19.2153Z" fill="url(#paint1_linear_319_134)"/>
<path d="M23.4773 33.9041C23.2847 33.841 23.0963 33.7704 22.9121 33.6924C23.0989 33.769 23.2873 33.8395 23.4773 33.9041Z" fill="#1F1E21"/>
<path d="M42.8259 32.4244C42.8394 35.458 41.2687 38.4167 38.4505 40.0438C37.4258 40.6354 36.3319 40.9955 35.227 41.1395C36.0054 40.8768 37.0892 40.2171 37.5116 39.4878C38.4119 37.931 37.9116 35.8828 36.4016 34.9047C35.8768 34.5661 35.1845 34.3752 34.5584 34.3786L26.9107 34.3813C25.7419 34.3823 24.5631 34.1837 23.4658 33.7735C23.4461 33.7668 23.4259 33.7592 23.4052 33.7508L23.4026 33.7523C23.3874 33.7475 23.3726 33.7414 23.3581 33.7339C23.2809 33.706 23.2056 33.6765 23.1322 33.6454C22.7658 33.4948 22.4102 33.3228 22.0653 33.1293C20.7817 32.4023 19.6872 31.3913 18.8392 30.1871C18.7163 30.0115 18.5987 29.8304 18.4866 29.644C18.5581 26.6988 20.1177 23.8619 22.857 22.2803C23.036 22.1769 23.2172 22.0802 23.4006 21.9902C23.4924 21.9474 23.5842 21.9046 23.6761 21.8617C23.7628 21.8218 23.8559 21.7822 23.9554 21.7429L23.9605 21.74C24.5829 21.4892 25.2196 21.3134 25.8596 21.2137C25.8932 21.2091 25.9267 21.2044 25.9602 21.1998C25.1528 21.4504 24.3895 22.0744 23.9558 22.8255C23.0682 24.363 23.66 25.7202 23.9555 26.2319C24.5654 27.2884 25.6919 27.9313 26.909 27.9347L34.5567 27.9319C37.7346 27.9302 40.7875 29.5229 42.625 32.1263C42.6936 32.2236 42.7606 32.3229 42.8259 32.4244Z" fill="url(#paint2_linear_319_134)"/>
<path d="M23.1071 22.7133C23.2693 22.6196 23.4331 22.5316 23.5988 22.4497C23.5726 22.4912 23.5472 22.5336 23.5228 22.5759C22.5038 24.3413 23.1905 25.9066 23.5227 26.4821C24.223 27.6948 25.515 28.4312 26.9078 28.435L26.9086 28.4345L34.5572 28.4322C37.5708 28.4305 40.4715 29.9429 42.2161 32.4146C42.2529 32.4668 42.2873 32.5212 42.3232 32.5748C42.2851 35.3839 40.811 38.1039 38.2002 39.6113C38.1118 39.6623 38.0214 39.7086 37.932 39.756L37.9445 39.7386C38.9792 37.9494 38.4053 35.6063 36.6736 34.4846L36.6722 34.4843C36.0613 34.0902 35.2726 33.8747 34.5555 33.8785L34.5546 33.879L26.9104 33.881C25.7976 33.882 24.678 33.693 23.6404 33.3051L23.6346 33.3028L23.6275 33.3002L23.593 33.2874L23.3674 33.1955L23.3623 33.1984C23.3508 33.1936 23.3388 33.1896 23.3274 33.1847L23.322 33.1833L23.0638 33.0719C22.8068 32.9571 22.555 32.831 22.3095 32.6933C21.2461 32.0906 20.3177 31.2809 19.5617 30.3206L19.2485 29.8992C19.1597 29.7723 19.0745 29.6418 18.9914 29.5087C19.1064 26.7838 20.5705 24.1778 23.1071 22.7133Z" stroke="#2F2F2F" stroke-opacity="0.1"/>
<path d="M26.9354 41.1603L26.7437 41.181L20.149 41.1087C18.3825 41.0916 17.6952 38.7899 19.1352 37.8329C19.1617 37.8142 19.1899 37.7962 19.2196 37.7791L19.2552 37.7585C20.0279 37.3124 20.9055 37.2215 21.7026 37.4351C22.5004 37.65 23.215 38.1675 23.6596 38.9376L23.9595 39.4569C24.5665 40.5083 25.6968 41.1609 26.9084 41.1606L26.9354 41.1603Z" fill="url(#paint3_linear_319_134)"/>
<path d="M19.4692 38.2123L19.5056 38.1913C20.0772 37.8614 20.7154 37.7615 21.3173 37.8625L21.5726 37.918C22.248 38.1 22.8513 38.5371 23.227 39.1877L23.5268 39.707C23.7341 40.066 23.9952 40.3834 24.2954 40.6536L20.1547 40.6086L20.1538 40.6091C18.8628 40.5965 18.3969 38.9248 19.4119 38.2499L19.4228 38.2413L19.4692 38.2123Z" stroke="#2F2F2F" stroke-opacity="0.1"/>
<path d="M42.4332 24.364C42.3806 24.4023 42.3257 24.4385 42.2685 24.4727L42.2329 24.4933C41.4628 24.9379 40.5851 25.0288 39.7873 24.8139C38.9904 24.6036 38.2743 24.0836 37.8297 23.3135L37.5306 22.7954C37.4953 22.7343 37.4586 22.6746 37.4204 22.6163C37.0136 21.9704 36.3676 21.5219 35.6557 21.2676C35.5997 21.249 35.5433 21.2318 35.4866 21.2159C35.4356 21.2001 35.383 21.1863 35.3288 21.1747C35.3194 21.1721 35.3092 21.1701 35.2981 21.1686C35.2407 21.1554 35.1836 21.1447 35.127 21.1367L41.3506 21.2043C43.0493 21.2216 43.734 23.3924 42.4332 24.364Z" fill="url(#paint4_linear_319_134)"/>
<path d="M41.3453 21.7041C42.5363 21.7162 43.0138 23.1867 42.2155 23.8968L42.1341 23.9629C42.0956 23.9908 42.0552 24.0178 42.0125 24.0433L41.9829 24.0604C41.3324 24.436 40.5923 24.5128 39.9179 24.3314L39.9174 24.3305L39.9152 24.3306L39.6668 24.2519C39.0957 24.0404 38.5914 23.6335 38.2624 23.0635L37.9635 22.5459C37.9237 22.4769 37.8826 22.4086 37.8393 22.3425L37.8385 22.343C37.6758 22.0862 37.4804 21.8606 37.265 21.6603L41.3453 21.7041Z" stroke="#2F2F2F" stroke-opacity="0.1"/>
<path d="M23.7603 21.4215C23.5684 21.5006 23.3774 21.5854 23.1875 21.6758C23.3474 21.597 23.5417 21.5103 23.7603 21.4215Z" fill="#4171B1"/>
<path d="M86.2 21.4C83.64 21.4 80.52 22.12 80.52 25.72C80.52 27.16 80.52 28.96 86.04 29.36C93.76 29.92 97.04 32.44 97.04 37.76C97.04 42.64 93.8 45.2 87.48 45.28C87.32 45.32 87.2 45.32 87.08 45.32C80.16 45.32 75.64 42.28 75.44 42.16L77.56 39C77.6 39.04 81.52 41.6 87.4 41.52C92.8 41.44 93.24 39.6 93.24 37.76C93.24 35.92 93.24 33.68 85.76 33.16C81.88 32.84 76.76 31.8 76.76 25.72C76.76 20.72 80.4 17.6 86.2 17.6C93.16 17.6 97.24 20.24 98 20.8L95.8 23.88C95.44 23.6 92.12 21.4 86.2 21.4ZM116.763 38.8L117.603 38L120.283 40.68L119.443 41.48C117.163 43.8 114.083 45.08 110.843 45.08C104.123 45.08 98.6431 39.6 98.6431 32.88V29.88C98.6431 23.16 104.123 17.68 110.843 17.68C114.083 17.68 117.163 18.96 119.443 21.28L120.203 22L117.523 24.68L116.763 23.92C115.203 22.36 113.083 21.48 110.843 21.48C106.203 21.48 102.443 25.24 102.443 29.88V32.88C102.443 37.52 106.203 41.28 110.843 41.28C113.083 41.28 115.203 40.4 116.763 38.8ZM139.893 29.72V18.28H143.693V45H139.893V33.52H127.013V45H123.213V18.28H127.013V29.72H139.893ZM146.612 44.84V18.56H165.012V22.36H150.412V29.8H159.132V33.6H150.412V41.04H165.012V44.84H146.612ZM179.18 18.56C184.3 18.56 188.46 22.72 188.46 27.84V35.56C188.46 40.68 184.3 44.84 179.18 44.84H167.94V18.56H179.18ZM184.66 35.56V27.84C184.66 24.8 182.22 22.32 179.18 22.32H171.74V41.08H179.18C182.22 41.08 184.66 38.6 184.66 35.56ZM206.321 20.76L214.521 43.24L215.161 45H211.121L208.481 37.76H195.401L192.761 45H188.721L189.281 43.48L197.561 20.76C198.241 18.96 200.001 17.72 201.961 17.72C203.881 17.72 205.641 18.96 206.321 20.76ZM196.801 33.96H207.121L202.761 22.08C202.641 21.72 202.321 21.48 201.961 21.48C201.561 21.48 201.241 21.72 201.121 22.08L196.801 33.96Z" fill="#0A0A0A"/>
<defs>
<linearGradient id="paint0_linear_319_134" x1="27.7844" y1="32.8397" x2="36.8039" y2="48.4619" gradientUnits="userSpaceOnUse">
<stop stop-color="#8AA6F2"/>
<stop offset="1" stop-color="#1D4ED8"/>
</linearGradient>
<linearGradient id="paint1_linear_319_134" x1="24.6856" y1="13.7895" x2="33.7018" y2="29.406" gradientUnits="userSpaceOnUse">
<stop stop-color="#8AA6F2"/>
<stop offset="1" stop-color="#1D4ED8"/>
</linearGradient>
<linearGradient id="paint2_linear_319_134" x1="29.9425" y1="12.1175" x2="28.6088" y2="46.8155" gradientUnits="userSpaceOnUse">
<stop stop-color="#414042"/>
<stop offset="0.321" stop-color="#A7A9AC"/>
<stop offset="0.697" stop-color="#E6E7E8"/>
<stop offset="1" stop-color="white"/>
</linearGradient>
<linearGradient id="paint3_linear_319_134" x1="22.4751" y1="34.1219" x2="22.7867" y2="44.6936" gradientUnits="userSpaceOnUse">
<stop stop-color="#414042"/>
<stop offset="0.321" stop-color="#A7A9AC"/>
<stop offset="0.697" stop-color="#E6E7E8"/>
<stop offset="1" stop-color="white"/>
</linearGradient>
<linearGradient id="paint4_linear_319_134" x1="39.5117" y1="16.9131" x2="39.6815" y2="26.9109" gradientUnits="userSpaceOnUse">
<stop stop-color="#414042"/>
<stop offset="0.321" stop-color="#A7A9AC"/>
<stop offset="0.697" stop-color="#E6E7E8"/>
<stop offset="1" stop-color="white"/>
</linearGradient>
</defs>
</svg>
