<?xml version="1.0" standalone="no"?>
<!DOCTYPE svg PUBLIC "-//W3C//DTD SVG 1.1//EN" "http://www.w3.org/Graphics/SVG/1.1/DTD/svg11.dtd" >
<svg xmlns="http://www.w3.org/2000/svg" xmlns:xlink="http://www.w3.org/1999/xlink" version="1.1">
<metadata>
Created by FontForge 20201107 at Thu Apr  2 15:25:11 2026
 By www-data
Copyright 2024 The Geist Project Authors (https://github.com/vercel/geist-font)
</metadata>
<defs>
<font id="Geist-SemiBold" horiz-adv-x="0" >
  <font-face 
    font-family="Geist SemiBold"
    font-weight="600"
    font-stretch="normal"
    units-per-em="1000"
    panose-1="0 0 0 0 0 0 0 0 0 0"
    ascent="800"
    descent="-200"
    x-height="534"
    cap-height="710"
    bbox="-200 -249 2338 1070"
    underline-thickness="50"
    underline-position="-125"
    unicode-range="U+0020-FB02"
  />
<missing-glyph horiz-adv-x="600" 
d="M40 0v710h525v-710h-525zM73 36h459v638h-459v-638zM81 17l-21 29l464 647l21 -29zM524 17l-464 647l21 29l464 -647z" />
    <glyph glyph-name="fi" unicode="fi" horiz-adv-x="668" 
d="M127 0v555q0 72 39.5 113.5t124.5 41.5h104v-99h-80q-31 0 -45.5 -16t-14.5 -47v-548h-128zM51 435v99h337v-99h-337zM469 0v534h128v-534h-128zM467 605v114h133v-114h-133z" />
    <glyph glyph-name="fl" unicode="fl" horiz-adv-x="710" 
d="M127 0v555q0 72 39.5 113.5t124.5 41.5h104v-99h-80q-31 0 -45.5 -16t-14.5 -47v-548h-128zM51 435v99h337v-99h-337zM611 0q-58 0 -93 30t-35 96v584h128v-571q0 -20 10.5 -30t29.5 -10h39v-99h-79z" />
    <glyph glyph-name="f_f.liga" unicode="ff" horiz-adv-x="757" 
d="M127 0v555q0 72 39.5 113.5t124.5 41.5h104v-99h-80q-31 0 -45.5 -16t-14.5 -47v-548h-128zM51 435v99h337v-99h-337zM455 0v555q0 72 39.5 113.5t124.5 41.5h104v-99h-80q-31 0 -45.5 -16t-14.5 -47v-548h-128zM379 435v99h337v-99h-337z" />
    <glyph glyph-name="t_t.liga" unicode="tt" horiz-adv-x="771" 
d="M284 0q-80 0 -117.5 37t-37.5 116v506h128v-494q0 -37 16 -51.5t50 -14.5h75v-99h-114zM45 435v99h353v-99h-353zM628 0q-80 0 -117.5 37t-37.5 116v506h128v-494q0 -37 16 -51.5t50 -14.5h75v-99h-114zM389 435v99h353v-99h-353z" />
    <glyph glyph-name="hyphen_hyphen_hyphen_greater.liga" unicode="&#x2d;&#x2d;&#x2d;&#x3e;" horiz-adv-x="2400" 
d="M62 295v119h2178v-119h-2178zM1888 43l311 312l-310 310h139l310 -311l-311 -311h-139z" />
    <glyph glyph-name="hyphen_hyphen_greater.liga" unicode="&#x2d;&#x2d;&#x3e;" horiz-adv-x="1800" 
d="M1288 43l311 312l-310 310h139l310 -311l-311 -311h-139zM62 295v119h1605v-119h-1605z" />
    <glyph glyph-name="hyphen_greater.liga" unicode="&#x2d;&#x3e;" horiz-adv-x="1200" 
d="M688 43l311 312l-310 310h139l310 -311l-311 -311h-139zM62 295v119h1005v-119h-1005z" />
    <glyph glyph-name="less_hyphen.liga" unicode="&#x3c;&#x2d;" horiz-adv-x="1200" 
d="M512 43h-139l-311 311l310 311h139l-310 -310zM1138 295h-1005v119h1005v-119z" />
    <glyph glyph-name="less_hyphen_hyphen.liga" unicode="&#x3c;&#x2d;&#x2d;" horiz-adv-x="1800" 
d="M512 43h-139l-311 311l310 311h139l-310 -310zM1738 295h-1605v119h1605v-119z" />
    <glyph glyph-name="less_hyphen_hyphen_hyphen.liga" unicode="&#x3c;&#x2d;&#x2d;&#x2d;" horiz-adv-x="2400" 
d="M2338 295h-2178v119h2178v-119zM512 43h-139l-311 311l310 311h139l-310 -310z" />
    <glyph glyph-name="less_hyphen_greater.liga" unicode="&#x3c;&#x2d;&#x3e;" horiz-adv-x="1800" 
d="M1288 43l311 312l-310 310h139l310 -311l-311 -311h-139zM373 43l-311 311l310 311h139l-310 -310l311 -312h-139zM147 295v119h1492v-119h-1492z" />
    <glyph glyph-name=".notdef" horiz-adv-x="600" 
d="M40 0v710h525v-710h-525zM73 36h459v638h-459v-638zM81 17l-21 29l464 647l21 -29zM524 17l-464 647l21 29l464 -647z" />
    <glyph glyph-name=".null" 
 />
    <glyph glyph-name="nonmarkingreturn" horiz-adv-x="333" 
 />
    <glyph glyph-name="space" unicode=" " horiz-adv-x="236" 
 />
    <glyph glyph-name="exclam" unicode="!" horiz-adv-x="243" 
d="M81 220q-4 34 -9 82t-9 98.5t-4 90.5v219h130v-219q0 -40 -3.5 -90.5t-8.5 -98.5t-9 -82h-87zM48 0v140h146v-140h-146z" />
    <glyph glyph-name="quotedbl" unicode="&#x22;" horiz-adv-x="376" 
d="M64 435l-21 193v82h109l-7 -275h-81zM231 435l-7 275h109v-82l-21 -193h-81z" />
    <glyph glyph-name="numbersign" unicode="#" horiz-adv-x="552" 
d="M271 0l117 710h116l-118 -710h-115zM-1 175l15 102h498l-15 -102h-498zM46 0l116 710h116l-117 -710h-115zM37 427l15 103h498l-15 -103h-498z" />
    <glyph glyph-name="dollar" unicode="$" horiz-adv-x="656" 
d="M295 -90v890h78v-890h-78zM342 -13q-86 0 -149 30.5t-98.5 85t-41.5 127.5l129 7q6 -45 26 -76t54 -47.5t82 -16.5q41 0 70 10.5t44.5 30.5t15.5 49q0 28 -13 48.5t-49.5 37.5t-107.5 33q-86 21 -138.5 46t-75.5 62.5t-23 94.5q0 61 30 107.5t86 72t135 25.5
q83 0 141 -29.5t91.5 -81.5t40.5 -119l-129 -7q-4 38 -22 67t-49 45t-75 16q-56 0 -87.5 -25.5t-31.5 -66.5q0 -28 13.5 -46.5t47.5 -32t96 -27.5q93 -21 147.5 -50.5t78 -70t23.5 -92.5q0 -63 -32.5 -109.5t-91 -72t-137.5 -25.5z" />
    <glyph glyph-name="percent" unicode="%" horiz-adv-x="818" 
d="M201 366q-70 0 -116 44t-46 132t46 132t116 44q71 0 116.5 -44t45.5 -132t-45.5 -132t-116.5 -44zM201 438q35 0 52.5 26.5t17.5 77.5t-17.5 77.5t-52.5 26.5q-34 0 -52 -26.5t-18 -77.5t18 -77.5t52 -26.5zM617 -8q-70 0 -116 44t-46 132t46 132t116 44q71 0 116 -44
t45 -132t-45 -132t-116 -44zM617 64q35 0 52.5 26.5t17.5 77.5t-17.5 77.5t-52.5 26.5q-34 0 -52 -26.5t-18 -77.5t18 -77.5t52 -26.5zM126 0l478 710h88l-478 -710h-88z" />
    <glyph glyph-name="ampersand" unicode="&#x26;" horiz-adv-x="677" 
d="M279 -16q-117 0 -180 49.5t-63 141.5q0 45 14 81t46 68.5t85 66.5q-23 27 -39 51.5t-25 51t-9 57.5q0 80 52.5 127.5t149.5 47.5q65 0 109 -21t66.5 -58t22.5 -85q0 -61 -36 -105t-115 -92l129 -161q28 40 29 120l129 -12q-3 -58 -23 -112t-52 -91l92 -109h-151l-30 35
q-31 -23 -83 -37t-118 -14zM290 98q39 0 65.5 8t40.5 22l-145 180q-43 -28 -62 -56.5t-19 -65.5q0 -40 30 -64t90 -24zM290 444q31 19 49.5 35t27 34t8.5 38q0 30 -16.5 46t-47.5 16q-33 0 -51 -17.5t-18 -48.5q0 -16 4 -32t15 -32.5t29 -38.5z" />
    <glyph glyph-name="quotesingle" unicode="'" horiz-adv-x="195" 
d="M58 435l-15 193v82h109v-82l-15 -193h-79z" />
    <glyph glyph-name="parenleft" unicode="(" horiz-adv-x="306" 
d="M180 -110q-137 211 -137 430t137 430h113q-123 -215 -123 -430q0 -107 31 -214.5t92 -215.5h-113z" />
    <glyph glyph-name="parenright" unicode=")" horiz-adv-x="306" 
d="M127 -110h-114q61 108 92 215.5t31 214.5q0 215 -123 430h114q136 -211 136 -430t-136 -430z" />
    <glyph glyph-name="asterisk" unicode="*" horiz-adv-x="424" 
d="M156 370l-69 41l60 91h-108v88l108 -1l-60 91l69 42l57 -97l57 97l69 -42l-62 -91l108 1v-88h-108l62 -91l-69 -41l-57 95z" />
    <glyph glyph-name="plus" unicode="+" horiz-adv-x="566" 
d="M230 46v486h106v-486h-106zM40 236v107h486v-107h-486z" />
    <glyph glyph-name="comma" unicode="," horiz-adv-x="225" 
d="M48 -158l52 158h-61v140h146v-124l-66 -174h-71z" />
    <glyph glyph-name="hyphen" unicode="-" horiz-adv-x="418" 
d="M39 238v108h340v-108h-340z" />
    <glyph glyph-name="period" unicode="." horiz-adv-x="225" 
d="M39 0v140h146v-140h-146z" />
    <glyph glyph-name="slash" unicode="/" horiz-adv-x="508" 
d="M34 -110l296 860h126l-296 -860h-126z" />
    <glyph glyph-name="zero" unicode="0" horiz-adv-x="683" 
d="M341 -16q-90 0 -156.5 45t-102.5 128t-36 197t36 197.5t102.5 129t156.5 45.5q92 0 158 -45.5t102 -128.5t36 -198q0 -114 -36 -197t-102 -128t-158 -45zM341 97q78 0 120 65.5t42 191.5q0 84 -19 142t-54.5 87.5t-88.5 29.5q-51 0 -87 -29.5t-55 -87.5t-19 -142
q0 -126 42 -191.5t119 -65.5z" />
    <glyph glyph-name="one" unicode="1" horiz-adv-x="427" 
d="M190 0v487h-152v99h61q43 0 69 11t37.5 38.5t11.5 74.5h103v-710h-130z" />
    <glyph glyph-name="two" unicode="2" horiz-adv-x="642" 
d="M59 0q0 86 24 150.5t81 118t154 104.5q48 26 77 46t42 41.5t13 51.5t-13 52.5t-38.5 35.5t-63.5 13q-61 0 -96.5 -34.5t-43.5 -98.5l-134 8q10 111 81.5 174.5t192.5 63.5q78 0 134 -26.5t85.5 -74.5t29.5 -111q0 -54 -18.5 -93t-60 -71.5t-111.5 -69.5
q-88 -47 -132 -90.5t-47 -76.5h369v-113h-525z" />
    <glyph glyph-name="three" unicode="3" horiz-adv-x="637" 
d="M316 -16q-127 0 -196 58.5t-74 157.5l133 6q6 -57 42.5 -83t94.5 -26q39 0 71 11.5t51 35.5t19 62q0 58 -39 86t-104 28h-62v103h62q51 0 85.5 21.5t34.5 72.5q0 46 -28.5 71t-88.5 25q-59 0 -89 -24t-36 -63l-133 7q11 88 77.5 140.5t180.5 52.5q80 0 136 -24t85.5 -68
t29.5 -105q0 -64 -42 -105t-120 -55v17q87 -12 136 -61.5t49 -125.5q0 -68 -34 -116t-96 -73.5t-145 -25.5z" />
    <glyph glyph-name="four" unicode="4" horiz-adv-x="643" 
d="M382 0v142h-356v106l335 462h151v-455h85v-113h-85v-142h-130zM168 255h214v286z" />
    <glyph glyph-name="five" unicode="5" horiz-adv-x="656" 
d="M326 -16q-83 0 -141 26t-90 72.5t-38 108.5l133 7q8 -50 44 -75t92 -25q65 0 101.5 35.5t36.5 100.5q0 41 -16.5 72t-47.5 48t-75 17q-45 0 -78.5 -19.5t-48.5 -51.5h-132l49 410h435v-113h-322l-28 -226l-17 15q16 28 42 47.5t60.5 29.5t74.5 10q72 0 125.5 -31t83 -85
t29.5 -123q0 -75 -33.5 -131.5t-95 -87.5t-143.5 -31z" />
    <glyph glyph-name="six" unicode="6" horiz-adv-x="615" 
d="M314 -16q-87 0 -147 38t-90.5 111t-30.5 175q0 89 17 165t52 132.5t91 88.5t134 32q100 0 158 -49t78 -131l-124 -10q-12 37 -37 57.5t-76 20.5q-76 0 -119.5 -65t-47.5 -201l-20 4q11 31 36.5 58t63.5 43.5t89 16.5q71 0 125 -29t83.5 -82.5t29.5 -124.5
q0 -78 -33.5 -134.5t-93 -86t-138.5 -29.5zM314 93q60 0 97.5 37.5t37.5 103.5q0 41 -16.5 72t-45 47.5t-67.5 16.5q-41 0 -72.5 -16.5t-50 -47.5t-18.5 -72q0 -42 16.5 -73.5t47 -49.5t71.5 -18z" />
    <glyph glyph-name="seven" unicode="7" horiz-adv-x="538" 
d="M169 0q0 110 28.5 215t81 201.5t124.5 180.5h-383v113h518v-106q-80 -90 -133 -181.5t-78.5 -195t-25.5 -227.5h-132z" />
    <glyph glyph-name="eight" unicode="8" horiz-adv-x="644" 
d="M322 -16q-86 0 -150.5 24t-100 70.5t-35.5 115.5q0 78 48.5 129.5t129.5 67.5l2 -21q-66 15 -106 55.5t-40 105.5q0 57 30 101t86.5 69t135.5 25t135.5 -25t86.5 -69t30 -101q0 -65 -39.5 -105t-106.5 -56l2 21q81 -16 129.5 -67.5t48.5 -129.5q0 -69 -35.5 -115.5
t-99.5 -70.5t-151 -24zM322 98q69 0 110.5 28.5t41.5 84.5q0 53 -38.5 85.5t-113.5 32.5q-74 0 -113 -32.5t-39 -85.5q0 -56 41.5 -84.5t110.5 -28.5zM322 426q56 0 87 23.5t31 70.5q0 43 -30 68t-88 25q-57 0 -87.5 -25t-30.5 -68q0 -47 31 -70.5t87 -23.5z" />
    <glyph glyph-name="nine" unicode="9" horiz-adv-x="618" 
d="M284 -16q-95 0 -154 44.5t-83 123.5l128 8q11 -31 38.5 -47.5t70.5 -16.5q80 0 119.5 60.5t39.5 197.5l20 -6q-26 -59 -74 -89t-117 -30t-122.5 30.5t-83.5 84.5t-30 127q0 79 33 136t91.5 88t135.5 31q94 0 155.5 -40.5t91 -116.5t29.5 -184q0 -91 -16.5 -165
t-51 -126.5t-89 -81t-131.5 -28.5zM296 331q42 0 72.5 16.5t48 48t17.5 75.5t-16.5 76.5t-46.5 51t-72 18.5q-40 0 -69.5 -18t-45.5 -50.5t-16 -76.5q0 -43 16 -75t45 -49t67 -17z" />
    <glyph glyph-name="colon" unicode=":" horiz-adv-x="306" 
d="M80 0v140h146v-140h-146zM80 369v140h146v-140h-146z" />
    <glyph glyph-name="semicolon" unicode=";" horiz-adv-x="306" 
d="M80 369v140h146v-140h-146zM89 -158l52 158h-61v140h146v-124l-66 -174h-71z" />
    <glyph glyph-name="less" unicode="&#x3c;" horiz-adv-x="548" 
d="M498 26l-458 197v136l458 197v-114l-399 -172v42l399 -172v-114z" />
    <glyph glyph-name="equal" unicode="=" horiz-adv-x="548" 
d="M40 353v106h468v-106h-468zM40 130v107h468v-107h-468z" />
    <glyph glyph-name="greater" unicode="&#x3e;" horiz-adv-x="548" 
d="M50 26v114l399 172v-42l-399 172v114l458 -197v-136z" />
    <glyph glyph-name="question" unicode="?" horiz-adv-x="581" 
d="M223 217q0 77 22 119.5t76 71.5q37 20 56 35.5t25.5 33t6.5 43.5q0 42 -27.5 69t-78.5 27q-59 0 -91 -31t-39 -91l-134 6q6 66 38.5 117t89.5 80t136 29q75 0 128.5 -27t81.5 -73.5t28 -105.5q0 -44 -12.5 -74t-40 -54.5t-71.5 -51.5q-38 -22 -52.5 -48t-14.5 -75h-127z
M212 0v140h146v-140h-146z" />
    <glyph glyph-name="at" unicode="@" horiz-adv-x="944" 
d="M664 -71q-56 -24 -114 -35t-121 -11q-122 0 -208.5 43t-132 124.5t-45.5 196.5q0 103 33 188t95 146.5t146.5 95t187.5 33.5q119 0 208 -44t138.5 -123.5t49.5 -187.5q0 -84 -26 -145.5t-72 -95.5t-106 -34q-55 0 -87.5 29.5t-35.5 78.5l21 4q-10 -33 -36.5 -59.5
t-61 -42t-70.5 -15.5q-58 0 -98.5 22.5t-62 64.5t-21.5 98q0 69 26 124t73 86.5t109 31.5q56 0 94.5 -24.5t48.5 -65.5l-18 -4l8 90h100l-18 -202q-1 -23 -3.5 -48.5t-2.5 -43.5q0 -20 12.5 -31.5t34.5 -11.5q49 0 76.5 48.5t27.5 136.5q0 92 -35 155t-104.5 95t-171.5 32
q-83 0 -151.5 -27t-117.5 -76.5t-76 -118.5t-27 -154q0 -91 35.5 -155.5t103 -98t163.5 -33.5q58 0 109.5 10t101.5 31zM450 162q40 0 66.5 20.5t39.5 53.5t13 70q0 32 -10 56.5t-31 38.5t-54 14q-37 0 -62.5 -20t-39.5 -52.5t-14 -73.5q0 -47 21.5 -77t70.5 -30z" />
    <glyph glyph-name="A" unicode="A" horiz-adv-x="709" 
d="M19 0l256 710h159l256 -710h-136l-59 168h-281l-59 -168h-136zM252 279h205l-102 300z" />
    <glyph glyph-name="B" unicode="B" horiz-adv-x="695" 
d="M80 0v710h266q130 0 197.5 -46t67.5 -146q0 -45 -18.5 -78.5t-54 -52.5t-85.5 -21l-1 2q91 -3 140 -49.5t49 -123.5q0 -98 -67.5 -146.5t-191.5 -48.5h-302zM210 110h166q61 0 96.5 25t35.5 74t-35 75t-97 26h-166v-200zM210 412h132q64 0 100 24t36 70q0 48 -35 71
t-101 23h-132v-188z" />
    <glyph glyph-name="C" unicode="C" horiz-adv-x="724" 
d="M372 -16q-97 0 -171 44.5t-116 127t-42 198.5q0 114 41 197.5t115 129t174 45.5q136 0 211 -67.5t98 -188.5l-136 -7q-13 70 -56 110t-117 40q-60 0 -104 -32t-68 -90t-24 -137q0 -80 24.5 -137.5t68.5 -88.5t102 -31q79 0 122.5 43.5t55.5 119.5l136 -7
q-14 -83 -54 -143.5t-105.5 -93t-154.5 -32.5z" />
    <glyph glyph-name="D" unicode="D" horiz-adv-x="708" 
d="M80 0v710h236q170 0 261.5 -92.5t91.5 -263.5q0 -170 -90 -262t-257 -92h-242zM210 113h106q111 0 165 60t54 181q0 123 -54 183t-165 60h-106v-484z" />
    <glyph glyph-name="E" unicode="E" horiz-adv-x="615" 
d="M80 0v710h478v-113h-348v-185h336v-112h-336v-187h356v-113h-486z" />
    <glyph glyph-name="F" unicode="F" horiz-adv-x="600" 
d="M80 0v710h475v-113h-416l71 73v-326l-71 59h398v-112h-398l71 59v-350h-130z" />
    <glyph glyph-name="G" unicode="G" horiz-adv-x="726" 
d="M367 -16q-101 0 -174 47.5t-111.5 130.5t-38.5 192q0 107 39.5 191t113.5 132.5t178 48.5q90 0 151.5 -31t98.5 -86t52 -127l-136 -7q-11 63 -49.5 100.5t-115.5 37.5q-68 0 -111.5 -35t-65 -93.5t-21.5 -130.5q0 -74 21 -132t65.5 -91.5t112.5 -33.5q53 0 91 22t60 60.5
t24 85.5h-175v101h302v-366h-84l-8 156l16 -10q-11 -48 -44.5 -84.5t-83 -57t-107.5 -20.5z" />
    <glyph glyph-name="H" unicode="H" horiz-adv-x="719" 
d="M80 0v710h130v-339l-60 43h418l-59 -43v339h130v-710h-130v343l59 -42h-418l60 42v-343h-130z" />
    <glyph glyph-name="I" unicode="I" horiz-adv-x="290" 
d="M80 0v710h130v-710h-130z" />
    <glyph glyph-name="J" unicode="J" horiz-adv-x="617" 
d="M304 -16q-77 0 -133 33.5t-85.5 93t-30.5 135.5l131 7q2 -78 32.5 -117t85.5 -39q56 0 87 39.5t31 116.5v457h130v-457q0 -82 -31 -142.5t-86.5 -93.5t-130.5 -33z" />
    <glyph glyph-name="K" unicode="K" horiz-adv-x="672" 
d="M80 0v710h130v-324l278 324h154l-266 -312l283 -398h-149l-220 309l-80 -91v-218h-130z" />
    <glyph glyph-name="L" unicode="L" horiz-adv-x="586" 
d="M80 0v710h130v-670l-71 73h408v-113h-467z" />
    <glyph glyph-name="M" unicode="M" horiz-adv-x="902" 
d="M80 0v710h175l196 -550l196 550h175v-710h-130v490l-179 -489h-124l-179 489v-490h-130z" />
    <glyph glyph-name="N" unicode="N" horiz-adv-x="748" 
d="M80 0v710h152l306 -534v534h130v-710h-156l-302 519v-519h-130z" />
    <glyph glyph-name="O" unicode="O" horiz-adv-x="763" 
d="M381 -16q-105 0 -181 44.5t-116.5 127.5t-40.5 198t40.5 198.5t116.5 128.5t181 45q107 0 182.5 -45t116 -128.5t40.5 -198.5t-40.5 -198t-116 -127.5t-182.5 -44.5zM381 97q65 0 110.5 30.5t70 88t24.5 138.5t-24.5 139t-70 89t-110.5 31q-63 0 -109 -31t-70.5 -89
t-24.5 -139t24.5 -138.5t70.5 -88t109 -30.5z" />
    <glyph glyph-name="P" unicode="P" horiz-adv-x="664" 
d="M80 0v710h275q125 0 195 -60t70 -166q0 -71 -32 -122.5t-91 -78.5t-142 -27h-145v-256h-130zM210 369h139q66 0 101.5 29t35.5 86q0 56 -35.5 84.5t-101.5 28.5h-139v-228z" />
    <glyph glyph-name="Q" unicode="Q" horiz-adv-x="757" 
d="M560 -64l-56 71q-23 -10 -55.5 -16.5t-70.5 -6.5q-104 0 -179 48t-115.5 132t-40.5 190q0 105 38.5 189t114 133.5t182.5 49.5q109 0 184 -49.5t113.5 -133.5t38.5 -189q0 -98 -34 -175.5t-97 -127.5l92 -115h-115zM378 97q17 0 30 2t23 6l-99 124h114l60 -79
q36 32 55 82.5t19 121.5q0 70 -21.5 128.5t-66 94.5t-114.5 36q-69 0 -113.5 -36t-66 -94.5t-21.5 -128.5q0 -69 22 -127.5t66.5 -94t112.5 -35.5z" />
    <glyph glyph-name="R" unicode="R" horiz-adv-x="689" 
d="M80 0v710h297q77 0 133 -26t87 -74t31 -113q0 -49 -21 -87t-56.5 -61t-78.5 -28l-5 10q69 0 106.5 -31t42.5 -95l18 -205h-132l-15 186q-3 42 -27 62t-80 20h-170v-268h-130zM210 382h159q59 0 92 28t33 79q0 52 -33.5 80t-97.5 28h-153v-215z" />
    <glyph glyph-name="S" unicode="S" horiz-adv-x="668" 
d="M348 -16q-88 0 -152 31t-100.5 86.5t-42.5 129.5l132 8q6 -46 26.5 -78t55 -48.5t83.5 -16.5q42 0 71.5 10.5t45 31t15.5 50.5q0 27 -13 48.5t-50 39t-110 34.5q-88 20 -141 45.5t-77 64t-24 96.5q0 62 31 109.5t88 74t137 26.5q85 0 144 -30.5t93 -83.5t42 -122l-131 -6
q-5 39 -23.5 68t-50 45.5t-76.5 16.5q-56 0 -88.5 -25.5t-32.5 -67.5q0 -29 13.5 -48t48.5 -32.5t98 -28.5q95 -20 151 -51t80 -72t24 -94q0 -65 -33 -112.5t-93 -73t-141 -25.5z" />
    <glyph glyph-name="T" unicode="T" horiz-adv-x="584" 
d="M227 0v597h-216v113h561v-113h-215v-597h-130z" />
    <glyph glyph-name="U" unicode="U" horiz-adv-x="699" 
d="M349 -16q-86 0 -150.5 33t-99 93.5t-34.5 143.5v456h130v-456q0 -75 40 -116t114 -41t114.5 41t40.5 116v456h130v-456q0 -83 -35 -143.5t-98.5 -93.5t-151.5 -33z" />
    <glyph glyph-name="V" unicode="V" horiz-adv-x="709" 
d="M276 0l-257 710h137l199 -565l198 565h137l-258 -710h-156z" />
    <glyph glyph-name="W" unicode="W" horiz-adv-x="991" 
d="M227 0l-190 710h137l130 -530l131 530h121l131 -530l129 530h138l-190 -710h-144l-124 486l-124 -486h-145z" />
    <glyph glyph-name="X" unicode="X" horiz-adv-x="660" 
d="M13 0l239 356l-237 354h152l165 -255l161 255h151l-236 -352l239 -358h-151l-166 259l-166 -259h-151z" />
    <glyph glyph-name="Y" unicode="Y" horiz-adv-x="613" 
d="M241 0v280l-248 430h146l168 -302l167 302h146l-248 -430v-280h-131z" />
    <glyph glyph-name="Z" unicode="Z" horiz-adv-x="577" 
d="M27 0v112l353 485h-338v113h496v-112l-356 -485h368v-113h-523z" />
    <glyph glyph-name="bracketleft" unicode="[" horiz-adv-x="375" 
d="M362 -110h-282v860h282v-102h-160v-656h160v-102z" />
    <glyph glyph-name="backslash" unicode="\" horiz-adv-x="485" 
d="M453 -110h-125l-296 860h126z" />
    <glyph glyph-name="bracketright" unicode="]" horiz-adv-x="375" 
d="M13 -110v102h160v656h-160v102h282v-860h-282z" />
    <glyph glyph-name="asciicircum" unicode="^" horiz-adv-x="450" 
d="M40 383l120 290h130l120 -290h-100l-97 229h24l-97 -229h-100z" />
    <glyph glyph-name="underscore" unicode="_" horiz-adv-x="560" 
d="M39 -107v107h482v-107h-482z" />
    <glyph glyph-name="grave" unicode="`" horiz-adv-x="268" 
d="M129 593l-90 141h129l61 -141h-100z" />
    <glyph glyph-name="a" unicode="a" horiz-adv-x="580" 
d="M225 -12q-84 0 -135 38.5t-51 107.5t43 108t131 56l177 35q0 57 -26 85.5t-77 28.5q-46 0 -72.5 -21.5t-36.5 -61.5l-130 6q16 85 78 130.5t161 45.5q114 0 172.5 -57.5t58.5 -164.5v-194q0 -21 7.5 -29t22.5 -8h17v-93q-6 -2 -19.5 -3t-27.5 -1q-33 0 -59 10.5t-40 37
t-14 72.5l11 -8q-8 -35 -34.5 -62.5t-66.5 -42.5t-90 -15zM251 81q43 0 74 17t48 47t17 71v30l-138 -28q-43 -9 -61.5 -26.5t-18.5 -45.5q0 -31 20.5 -48t58.5 -17z" />
    <glyph glyph-name="b" unicode="b" horiz-adv-x="621" 
d="M357 -12q-56 0 -97.5 24t-64.5 67l-3 -79h-122v710h128v-252q22 37 63 62.5t96 25.5q69 0 119.5 -34.5t78 -97t27.5 -147.5t-27.5 -147.5t-78 -97t-119.5 -34.5zM328 92q55 0 88 46.5t33 128.5q0 83 -32.5 129t-87.5 46q-41 0 -70.5 -20.5t-45 -59.5t-15.5 -95
q0 -54 15.5 -93.5t44.5 -60.5t70 -21z" />
    <glyph glyph-name="c" unicode="c" horiz-adv-x="580" 
d="M302 -12q-80 0 -139 34.5t-91.5 97.5t-32.5 147t32.5 146.5t91.5 97.5t139 35q68 0 121 -24t86.5 -68.5t41.5 -108.5l-132 -7q-8 51 -39.5 77.5t-77.5 26.5q-62 0 -96 -46.5t-34 -128.5q0 -83 34 -129t96 -46q47 0 78.5 27t38.5 84l132 -6q-8 -64 -41 -111t-86 -72.5
t-122 -25.5z" />
    <glyph glyph-name="d" unicode="d" horiz-adv-x="621" 
d="M260 -12q-68 0 -117.5 34t-76.5 97t-27 148t27 148t77 97t117 34q56 0 98.5 -23t64.5 -65v252h128v-710h-122l-3 79q-22 -43 -66 -67t-100 -24zM299 92q40 0 67.5 20t42 59.5t14.5 95.5q0 57 -14.5 96t-42 59t-67.5 20q-58 0 -92.5 -46.5t-34.5 -128.5q0 -80 34.5 -127.5
t92.5 -47.5z" />
    <glyph glyph-name="e" unicode="e" horiz-adv-x="591" 
d="M301 -12q-80 0 -139 34.5t-91 97.5t-32 147t32 146.5t90.5 97.5t136.5 35q76 0 133.5 -34t88.5 -98t31 -154v-29h-379q4 -70 38.5 -105.5t91.5 -35.5q43 0 71.5 19.5t39.5 54.5l131 -8q-22 -78 -86.5 -123t-156.5 -45zM172 317h247q-4 65 -37 96.5t-84 31.5t-84.5 -33
t-41.5 -95z" />
    <glyph glyph-name="f" unicode="f" horiz-adv-x="429" 
d="M127 0v555q0 72 39.5 113.5t124.5 41.5h104v-99h-80q-31 0 -45.5 -16t-14.5 -47v-548h-128zM51 435v99h337v-99h-337z" />
    <glyph glyph-name="g" unicode="g" horiz-adv-x="620" 
d="M298 -162q-70 0 -120 19t-80.5 53.5t-42.5 79.5l132 9q10 -30 34.5 -47t76.5 -17q59 0 91 26.5t32 82.5v68q-19 -39 -61 -62.5t-94 -23.5q-66 0 -117.5 32.5t-80.5 91t-29 135.5t28.5 135.5t79.5 92t117 33.5q58 0 100 -26t61 -69v83h125v-487q0 -68 -31.5 -115
t-88 -70.5t-132.5 -23.5zM296 126q57 0 91 42.5t35 117.5q1 50 -14.5 85.5t-44 55t-67.5 19.5q-59 0 -91.5 -43.5t-32.5 -116.5t33.5 -116.5t90.5 -43.5z" />
    <glyph glyph-name="h" unicode="h" horiz-adv-x="601" 
d="M70 0v710h128v-298h-16q8 46 32 75.5t59 44t77 14.5q59 0 99.5 -25.5t61 -71.5t20.5 -106v-343h-128v312q0 65 -22 97.5t-69 32.5q-52 0 -83 -34t-31 -99v-309h-128z" />
    <glyph glyph-name="i" unicode="i" horiz-adv-x="269" 
d="M70 0v534h128v-534h-128zM68 605v114h133v-114h-133z" />
    <glyph glyph-name="j" unicode="j" horiz-adv-x="308" 
d="M-3 -150v99h53q29 0 44 12.5t15 46.5v526h128v-530q0 -82 -37 -118t-127 -36h-76zM107 605v114h133v-114h-133z" />
    <glyph glyph-name="k" unicode="k" horiz-adv-x="628" 
d="M70 0v710h128v-417l219 241h158l-209 -222l216 -312h-144l-156 236l-84 -89v-147h-128z" />
    <glyph glyph-name="l" unicode="l" horiz-adv-x="297" 
d="M198 0q-58 0 -93 30t-35 96v584h128v-571q0 -20 10.5 -30t29.5 -10h39v-99h-79z" />
    <glyph glyph-name="m" unicode="m" horiz-adv-x="892" 
d="M70 0v534h116l4 -131l-12 6q9 43 31.5 73.5t55 47t71.5 16.5q68 0 110 -38.5t53 -105.5h-17q9 47 31 78.5t55.5 48.5t75.5 17q55 0 95 -23.5t61.5 -68.5t21.5 -111v-343h-128v310q0 66 -22.5 99t-68.5 33q-31 0 -53 -16t-33.5 -46.5t-11.5 -73.5v-306h-119v306
q0 66 -20 101t-69 35q-31 0 -52.5 -16t-34 -46.5t-12.5 -73.5v-306h-128z" />
    <glyph glyph-name="n" unicode="n" horiz-adv-x="601" 
d="M70 0v534h116l5 -150l-15 6q8 56 33 90t61 50t79 16q59 0 99.5 -26t61.5 -71.5t21 -105.5v-343h-128v302q0 45 -9 76t-29.5 47.5t-54.5 16.5q-51 0 -81.5 -36t-30.5 -104v-302h-128z" />
    <glyph glyph-name="o" unicode="o" horiz-adv-x="603" 
d="M302 -12q-79 0 -138.5 34.5t-92 97.5t-32.5 147q0 85 32.5 147.5t92 97t138.5 34.5t138 -34.5t91.5 -97t32.5 -147.5q0 -84 -32.5 -147t-91.5 -97.5t-138 -34.5zM302 92q62 0 95.5 46t33.5 129q0 82 -33.5 128.5t-95.5 46.5t-96 -46.5t-34 -128.5q0 -83 34 -129t96 -46z
" />
    <glyph glyph-name="p" unicode="p" horiz-adv-x="621" 
d="M70 -150v684h123l3 -114l-13 6q20 59 65.5 89.5t106.5 30.5q76 0 126.5 -38t75.5 -101t25 -140t-25.5 -140t-76 -101t-126.5 -38q-40 0 -74.5 14t-59 40t-34.5 61l12 10v-263h-128zM324 92q58 0 91.5 46.5t33.5 128.5t-33.5 128.5t-91.5 46.5q-39 0 -67 -19.5
t-43.5 -58.5t-15.5 -97t15 -97t43.5 -58.5t67.5 -19.5z" />
    <glyph glyph-name="q" unicode="q" horiz-adv-x="621" 
d="M551 -150h-128v263l12 -10q-10 -35 -34.5 -61t-59 -40t-74.5 -14q-76 0 -126.5 38t-76 101t-25.5 140t25 140t75.5 101t126.5 38q61 0 107 -30.5t65 -89.5l-13 -6l3 114h123v-684zM297 92q40 0 68 19.5t43 58.5t15 97t-15.5 97t-43.5 58.5t-67 19.5q-58 0 -91.5 -46.5
t-33.5 -128.5t33.5 -128.5t91.5 -46.5z" />
    <glyph glyph-name="r" unicode="r" horiz-adv-x="409" 
d="M70 0v534h120l5 -148l-11 2q12 77 45.5 111.5t91.5 34.5h49v-110h-50q-41 0 -68 -12t-40.5 -37.5t-13.5 -66.5v-308h-128z" />
    <glyph glyph-name="s" unicode="s" horiz-adv-x="553" 
d="M287 -12q-81 0 -134.5 23t-81.5 64t-32 93l131 6q7 -42 34 -65t84 -23q45 0 68.5 14.5t23.5 45.5q0 18 -8.5 30t-33 21t-71.5 18q-81 14 -127 34.5t-64.5 51.5t-18.5 77q0 75 57.5 121.5t168.5 46.5q77 0 126.5 -24.5t75 -65t29.5 -90.5l-130 -6q-1 25 -12 45t-33 31.5
t-58 11.5q-45 0 -68.5 -18t-23.5 -48q0 -21 9.5 -35t32.5 -22.5t63 -15.5q82 -12 130 -33t68.5 -52.5t20.5 -75.5q0 -77 -61.5 -118.5t-164.5 -41.5z" />
    <glyph glyph-name="t" unicode="t" horiz-adv-x="427" 
d="M284 0q-80 0 -117.5 37t-37.5 116v506h128v-494q0 -37 16 -51.5t50 -14.5h75v-99h-114zM45 435v99h353v-99h-353z" />
    <glyph glyph-name="u" unicode="u" horiz-adv-x="597" 
d="M246 -12q-81 0 -128.5 53.5t-47.5 148.5v344h128v-312q0 -67 22.5 -98.5t68.5 -31.5q52 0 80.5 34.5t28.5 100.5v307h128v-534h-117l-3 147l16 -5q-12 -76 -57 -115t-119 -39z" />
    <glyph glyph-name="v" unicode="v" horiz-adv-x="584" 
d="M216 0l-195 534h135l136 -405l136 405h135l-195 -534h-152z" />
    <glyph glyph-name="w" unicode="w" horiz-adv-x="839" 
d="M182 0l-161 534h131l104 -389l107 389h112l108 -389l104 389h131l-161 -534h-132l-106 358l-105 -358h-132z" />
    <glyph glyph-name="x" unicode="x" horiz-adv-x="628" 
d="M46 0l192 272l-185 262h139l122 -182l120 182h141l-184 -263l191 -271h-139l-127 192l-128 -192h-142z" />
    <glyph glyph-name="y" unicode="y" horiz-adv-x="570" 
d="M108 -150v99h68q26 0 38.5 8t19.5 27l15 37h-37l-191 513h133l134 -393l128 393h133l-209 -590q-18 -50 -50.5 -72t-90.5 -22h-91z" />
    <glyph glyph-name="z" unicode="z" horiz-adv-x="567" 
d="M50 0v106l309 329h-297v99h448v-106l-312 -329h319v-99h-467z" />
    <glyph glyph-name="braceleft" unicode="{" horiz-adv-x="401" 
d="M328 -122q-90 0 -140 51.5t-50 132.5v83q0 42 -10.5 68.5t-31.5 38.5t-53 12v106q32 0 53 12t31.5 38.5t10.5 68.5v83q0 81 50 132.5t140 51.5h60v-112q-67 2 -97.5 -18.5t-30.5 -67.5v-78q0 -71 -34 -111.5t-81 -48.5v-4q47 -8 81 -49t34 -113v-77q0 -49 30.5 -70
t97.5 -19v-110h-60z" />
    <glyph glyph-name="bar" unicode="|" horiz-adv-x="284" 
d="M80 -110v860h124v-860h-124z" />
    <glyph glyph-name="braceright" unicode="}" horiz-adv-x="401" 
d="M73 -122h-60v110q68 -2 98.5 19t30.5 70v77q0 72 33.5 113t80.5 49v4q-46 8 -80 48.5t-34 111.5v78q0 47 -30.5 67.5t-98.5 18.5v112h60q91 0 141 -51.5t50 -132.5v-83q0 -42 10.5 -68.5t31.5 -38.5t52 -12v-106q-31 0 -52 -12t-31.5 -38.5t-10.5 -68.5v-83
q0 -81 -50 -132.5t-141 -51.5z" />
    <glyph glyph-name="asciitilde" unicode="~" horiz-adv-x="523" 
d="M346 238q-32 0 -53.5 12t-47.5 41q-18 21 -28 30.5t-17.5 12t-16.5 2.5q-22 0 -33.5 -23t-11.5 -67h-98q0 82 37 132t99 50q34 0 57 -13t47 -42q22 -27 34 -35t27 -8q22 0 33.5 23t11.5 67h97q0 -83 -37 -132.5t-100 -49.5z" />
    <glyph glyph-name="uni00A0" unicode="&#xa0;" horiz-adv-x="236" 
 />
    <glyph glyph-name="exclamdown" unicode="&#xa1;" horiz-adv-x="243" 
d="M59 -162v219q0 40 4 90.5t9 98.5t9 82h87q4 -34 9 -82t8.5 -98.5t3.5 -90.5v-219h-130zM48 548h146v-140h-146v140z" />
    <glyph glyph-name="cent" unicode="&#xa2;" horiz-adv-x="580" 
d="M229 -12l63 738h74l-63 -738h-74zM302 78q-80 0 -139 34.5t-91.5 97t-32.5 147.5q0 84 32.5 146.5t91.5 97.5t139 35q68 0 121 -24t86.5 -69t41.5 -109l-132 -6q-8 51 -39.5 77.5t-77.5 26.5q-62 0 -96 -46.5t-34 -128.5q0 -83 34 -129.5t96 -46.5q47 0 78.5 27.5
t38.5 83.5l132 -6q-8 -63 -41 -110t-86 -72.5t-122 -25.5z" />
    <glyph glyph-name="sterling" unicode="&#xa3;" horiz-adv-x="635" 
d="M54 0v102q57 30 87 74.5t30 99.5q0 9 -1 18.5t-3 18.5h-114v78h97q-14 39 -22.5 72t-8.5 62q0 58 29 103.5t81 71.5t119 26q76 0 127.5 -24.5t81.5 -67.5t39 -98l-145 -7q-9 42 -36 63t-64 21q-30 0 -53 -13.5t-35.5 -36t-12.5 -52.5q0 -25 10 -54.5t21 -65.5h162v-78
h-151q-2 -73 -26 -121.5t-79 -75.5h397v-115z" />
    <glyph glyph-name="currency" unicode="&#xa4;" horiz-adv-x="630" 
d="M315 129q-60 0 -109.5 29.5t-79 79t-29.5 109.5t29.5 109.5t79 79t109.5 29.5t109.5 -29.5t79 -79t29.5 -109.5t-29.5 -109.5t-79 -79t-109.5 -29.5zM315 221q34 0 62.5 17t46 45.5t17.5 63.5t-17.5 63.5t-46 45.5t-62.5 17q-35 0 -63.5 -17t-45.5 -45.5t-17 -63.5
t17 -63.5t45.5 -45.5t63.5 -17zM100 76l-57 56l134 134l57 -57zM530 76l-133 133l56 57l134 -134zM453 429l-56 57l133 133l57 -56zM177 429l-134 134l57 56l134 -133z" />
    <glyph glyph-name="yen" unicode="&#xa5;" horiz-adv-x="613" 
d="M98 129v87h477v-87h-477zM98 281v87h477v-87h-477zM241 0v280l-248 430h146l168 -302l167 302h146l-248 -430v-280h-131z" />
    <glyph glyph-name="brokenbar" unicode="&#xa6;" horiz-adv-x="284" 
d="M80 395v355h124v-355h-124zM80 -110v355h124v-355h-124z" />
    <glyph glyph-name="section" unicode="&#xa7;" horiz-adv-x="587" 
d="M305 -65q-75 0 -130 23t-86 63.5t-36 94.5l130 7q7 -42 37 -66t82 -24q36 0 57 7.5t31 22t10 32.5q0 27 -30.5 47t-108.5 35q-70 14 -112.5 35t-61.5 51.5t-18 71.5q1 39 22 69t63 50q-44 20 -64.5 48t-20.5 63q0 50 28 86t79.5 55.5t122.5 19.5q65 0 115 -21t81 -60.5
t38 -95.5l-128 -6q-7 41 -37 63.5t-76 22.5q-27 0 -46.5 -8t-31 -22t-11.5 -32q0 -28 24 -43.5t83 -29.5q77 -15 126 -36.5t72.5 -53.5t23.5 -80q0 -39 -19.5 -67t-60.5 -45q42 -20 61 -49.5t19 -72.5q0 -47 -28 -82t-79 -54t-120 -19zM319 258q43 0 68 19t25 50
q0 28 -20.5 45.5t-50.5 25.5t-61 8q-25 0 -45.5 -9t-32.5 -24t-12 -35q0 -19 12.5 -37.5t41 -30t75.5 -12.5z" />
    <glyph glyph-name="dieresis" unicode="&#xa8;" horiz-adv-x="404" 
d="M39 605v114h125v-114h-125zM240 605v114h125v-114h-125z" />
    <glyph glyph-name="copyright" unicode="&#xa9;" horiz-adv-x="824" 
d="M412 -12q-76 0 -143 28.5t-118 79.5t-79.5 118t-28.5 143q0 77 28.5 143.5t79.5 117.5t118 79.5t143 28.5q77 0 143.5 -28.5t117.5 -79.5t79.5 -117.5t28.5 -143.5q0 -76 -28.5 -143t-79.5 -118t-117.5 -79.5t-143.5 -28.5zM412 76q57 0 107.5 22t89 60.5t60.5 89.5
t22 109q0 59 -22 110t-60.5 89t-89 60t-107.5 22t-107.5 -22t-89 -60t-60.5 -89t-22 -110q0 -58 22 -109t60.5 -89.5t89 -60.5t107.5 -22zM416 152q-58 0 -103 26t-70.5 72.5t-25.5 107.5q0 60 25.5 106t70.5 72t103 26q51 0 91 -20t65 -55.5t29 -81.5l-98 -5
q-5 36 -28.5 58t-58.5 22q-30 0 -53 -15t-35.5 -42.5t-12.5 -64.5q0 -38 12.5 -65.5t35.5 -43t53 -15.5q24 0 43.5 10.5t31.5 29.5t15 46l98 -5q-4 -47 -29.5 -84t-66.5 -58t-92 -21z" />
    <glyph glyph-name="ordfeminine" unicode="&#xaa;" horiz-adv-x="422" 
d="M162 376q-55 0 -88.5 23.5t-33.5 66.5q0 46 29.5 70.5t84.5 35.5l107 22q0 30 -14.5 46t-39.5 16q-24 0 -38.5 -12t-18.5 -34l-104 4q9 56 50.5 84t110.5 28q80 0 118.5 -35.5t38.5 -104.5v-114q0 -14 5 -19.5t14 -5.5h9v-67q-5 -2 -15.5 -3t-24.5 -1q-19 0 -37 7
t-28.5 24t-10.5 50l7 -6q-8 -32 -39 -53.5t-82 -21.5zM184 442q33 0 55 19t22 54v18l-71 -16q-22 -5 -33 -15.5t-11 -26.5t9.5 -24.5t28.5 -8.5z" />
    <glyph glyph-name="guillemotleft" unicode="&#xab;" horiz-adv-x="607" 
d="M325 76h-146l-140 163v74l140 163h146l-171 -200zM568 76h-146l-140 163v74l140 163h146l-171 -200z" />
    <glyph glyph-name="logicalnot" unicode="&#xac;" horiz-adv-x="508" 
d="M376 66v167h-336v93h428v-260h-92z" />
    <glyph glyph-name="registered" unicode="&#xae;" horiz-adv-x="644" 
d="M322 167q-58 0 -108.5 21.5t-89 60t-60 89.5t-21.5 109t21.5 108.5t60 89t89 60t108.5 21.5q59 0 109 -21.5t88.5 -60t60 -89t21.5 -108.5t-21.5 -109t-60 -89.5t-88.5 -60t-109 -21.5zM322 229q63 0 111 29.5t76 79.5t28 109t-28 108t-76 78.5t-111 29.5
q-61 0 -110 -29.5t-77 -78.5t-28 -108t28 -109t77 -79.5t110 -29.5zM208 298v299h113q57 0 90.5 -25.5t33.5 -69.5q0 -29 -15.5 -52t-45.5 -32l70 -120h-78l-60 110h-37v-110h-71zM278 464h41q25 0 39.5 9.5t14.5 28.5q0 18 -14.5 27t-39.5 9h-41v-74z" />
    <glyph glyph-name="macron" unicode="&#xaf;" horiz-adv-x="367" 
d="M39 613v97h289v-97h-289z" />
    <glyph glyph-name="degree" unicode="&#xb0;" horiz-adv-x="420" 
d="M210 384q-46 0 -85 23t-62.5 61.5t-23.5 86.5t23.5 87t62.5 61.5t85 22.5q47 0 85.5 -22.5t62 -61.5t23.5 -87t-23.5 -86.5t-62 -61.5t-85.5 -23zM210 478q32 0 54.5 21.5t22.5 55.5q0 35 -22.5 56.5t-54.5 21.5q-31 0 -54 -22t-23 -56q0 -33 23 -55t54 -22z" />
    <glyph glyph-name="plusminus" unicode="&#xb1;" horiz-adv-x="546" 
d="M40 0v96h466v-96h-466zM220 132v450h106v-450h-106zM40 306v103h466v-103h-466z" />
    <glyph glyph-name="uni00B2" unicode="&#xb2;" horiz-adv-x="364" 
d="M42 323q0 50 8 84t30 59t66 47l49 25q17 10 27 18t14 18.5t4 25.5q0 22 -14 35t-39 13q-29 0 -45 -14.5t-21 -47.5l-80 4q6 61 43.5 94.5t102.5 33.5q67 0 101 -32.5t34 -83.5q0 -47 -24 -74.5t-68 -49.5l-44 -22q-28 -15 -39 -29.5t-11 -28.5h187v-75h-281z" />
    <glyph glyph-name="uni00B3" unicode="&#xb3;" horiz-adv-x="357" 
d="M173 315q-56 0 -88.5 13t-47 38.5t-17.5 61.5l86 3q2 -21 18 -33.5t49 -12.5q32 0 49 13.5t17 38.5q0 24 -17 38.5t-53 14.5h-29v65h29q25 0 40 11.5t15 33.5q0 21 -13 34t-42 13q-26 0 -41 -12t-17 -32l-87 5q6 51 41.5 80.5t103.5 29.5q73 0 107 -29t34 -75
q0 -36 -18 -56.5t-54 -29.5q49 -10 69 -35t20 -60q0 -53 -40 -85.5t-114 -32.5z" />
    <glyph glyph-name="acute" unicode="&#xb4;" horiz-adv-x="268" 
d="M39 594l61 140h129l-90 -140h-100z" />
    <glyph glyph-name="uni03BC" unicode="&#xb5;" horiz-adv-x="597" 
d="M70 -150v380l129 -172v-208h-129zM246 -12q-81 0 -128.5 53.5t-47.5 148.5v344h128v-312q0 -67 22.5 -98.5t68.5 -31.5q52 0 80.5 34.5t28.5 100.5v307h128v-534h-117l-3 147l16 -5q-12 -76 -57 -115t-119 -39z" />
    <glyph glyph-name="uni03BC" unicode="&#x3bc;" horiz-adv-x="597" 
d="M70 -150v380l129 -172v-208h-129zM246 -12q-81 0 -128.5 53.5t-47.5 148.5v344h128v-312q0 -67 22.5 -98.5t68.5 -31.5q52 0 80.5 34.5t28.5 100.5v307h128v-534h-117l-3 147l16 -5q-12 -76 -57 -115t-119 -39z" />
    <glyph glyph-name="paragraph" unicode="&#xb6;" horiz-adv-x="640" 
d="M259 0v308q-65 0 -113.5 24.5t-75.5 69.5t-27 105q0 62 29 107.5t81.5 70.5t121.5 25h285v-710h-116v608h-69v-608h-116z" />
    <glyph glyph-name="periodcentered" unicode="&#xb7;" horiz-adv-x="225" 
d="M39 233v140h146v-140h-146z" />
    <glyph glyph-name="cedilla" unicode="&#xb8;" horiz-adv-x="325" 
d="M164 -228q-50 0 -81 23t-44 58l61 26q9 -20 23 -30t38 -10t37 10t13 28t-13 29.5t-56 11.5l-36 35l34 57h79l-30 -43q50 -3 73 -29t23 -64q0 -33 -16 -55.5t-43.5 -34.5t-61.5 -12z" />
    <glyph glyph-name="uni00B9" unicode="&#xb9;" horiz-adv-x="268" 
d="M121 323v233h-101v66h26q46 0 69 23.5t23 65.5h70v-388h-87z" />
    <glyph glyph-name="ordmasculine" unicode="&#xba;" horiz-adv-x="437" 
d="M219 376q-83 0 -131 47.5t-48 127.5t48 127.5t131 47.5q82 0 130 -48t48 -127q0 -80 -48 -127.5t-130 -47.5zM219 451q35 0 53.5 26t18.5 74q0 47 -18.5 73.5t-53.5 26.5q-36 0 -54.5 -26.5t-18.5 -73.5q0 -48 18.5 -74t54.5 -26z" />
    <glyph glyph-name="guillemotright" unicode="&#xbb;" horiz-adv-x="616" 
d="M284 76l171 200l-171 200h146l140 -163v-74l-140 -163h-146zM41 76l171 200l-171 200h146l140 -163v-74l-140 -163h-146z" />
    <glyph glyph-name="onequarter" unicode="&#xbc;" horiz-adv-x="770" 
d="M121 323v233h-101v66h26q46 0 69 23.5t23 65.5h70v-388h-87zM100 0l478 710h88l-478 -710h-88zM612 0v81h-182v64l177 242h92v-235h51v-71h-51v-81h-87zM515 152h97v125z" />
    <glyph glyph-name="onehalf" unicode="&#xbd;" horiz-adv-x="830" 
d="M121 323v233h-101v66h26q46 0 69 23.5t23 65.5h70v-388h-87zM100 0l478 710h88l-478 -710h-88zM508 0q0 50 8 84t30 59t66 47l49 25q17 10 27 18t14 18.5t4 25.5q0 22 -14 35t-39 13q-29 0 -45 -14.5t-21 -47.5l-80 4q6 61 43.5 94.5t102.5 33.5q67 0 101 -32.5t34 -83.5
q0 -47 -24 -74.5t-68 -49.5l-44 -22q-28 -15 -39 -29.5t-11 -28.5h187v-75h-281z" />
    <glyph glyph-name="threequarters" unicode="&#xbe;" horiz-adv-x="827" 
d="M173 315q-56 0 -88.5 13t-47 38.5t-17.5 61.5l86 3q2 -21 18 -33.5t49 -12.5q32 0 49 13.5t17 38.5q0 24 -17 38.5t-53 14.5h-29v65h29q25 0 40 11.5t15 33.5q0 21 -13 34t-42 13q-26 0 -41 -12t-17 -32l-87 5q6 51 41.5 80.5t103.5 29.5q73 0 107 -29t34 -75
q0 -36 -18 -56.5t-54 -29.5q49 -10 69 -35t20 -60q0 -53 -40 -85.5t-114 -32.5zM157 0l478 710h88l-478 -710h-88zM669 0v81h-182v64l177 242h92v-235h51v-71h-51v-81h-87zM572 152h97v125z" />
    <glyph glyph-name="questiondown" unicode="&#xbf;" horiz-adv-x="581" 
d="M278 -162q-76 0 -129 27t-81.5 73.5t-28.5 105.5q0 44 13 74t40 54.5t72 51.5q38 22 52 48.5t14 74.5h128q0 -77 -22.5 -119.5t-75.5 -71.5q-37 -20 -56 -35.5t-25.5 -33t-6.5 -43.5q0 -42 27.5 -69t78.5 -27q58 0 91 31t38 91l134 -6q-6 -66 -38.5 -117t-89 -80
t-135.5 -29zM369 564v-140h-146v140h146z" />
    <glyph glyph-name="Agrave" unicode="&#xc0;" horiz-adv-x="709" 
d="M19 0l256 710h159l256 -710h-136l-59 168h-281l-59 -168h-136zM252 279h205l-102 300zM312 769l-90 141h129l61 -141h-100z" />
    <glyph glyph-name="Aacute" unicode="&#xc1;" horiz-adv-x="709" 
d="M19 0l256 710h159l256 -710h-136l-59 168h-281l-59 -168h-136zM252 279h205l-102 300zM297 770l61 140h129l-90 -140h-100z" />
    <glyph glyph-name="Acircumflex" unicode="&#xc2;" horiz-adv-x="709" 
d="M19 0l256 710h159l256 -710h-136l-59 168h-281l-59 -168h-136zM252 279h205l-102 300zM197 770l94 146h128l94 -146h-93l-77 106h24l-77 -106h-93z" />
    <glyph glyph-name="Atilde" unicode="&#xc3;" horiz-adv-x="709" 
d="M19 0l256 710h159l256 -710h-136l-59 168h-281l-59 -168h-136zM252 279h205l-102 300zM411 780q-21 0 -38 6.5t-36 21.5q-13 11 -22 16t-21 5q-15 0 -26 -11.5t-14 -44.5h-67q1 64 29.5 99t76.5 35q24 0 42.5 -7t36.5 -22q14 -11 23.5 -15.5t19.5 -4.5q16 0 26 12t12 46
h68q-2 -64 -30.5 -100t-79.5 -36z" />
    <glyph glyph-name="Adieresis" unicode="&#xc4;" horiz-adv-x="709" 
d="M19 0l256 710h159l256 -710h-136l-59 168h-281l-59 -168h-136zM252 279h205l-102 300zM192 781v114h125v-114h-125zM393 781v114h125v-114h-125z" />
    <glyph glyph-name="Aring" unicode="&#xc5;" horiz-adv-x="713" 
d="M15 0l256 710h159l256 -710h-136l-59 168h-281l-59 -168h-136zM248 279h205l-102 300zM353 755q-42 0 -71 28.5t-29 70.5t28.5 70t71.5 28q42 0 70.5 -28t28.5 -70t-28.5 -70.5t-70.5 -28.5zM352 815q17 0 28 11t11 28q0 16 -11 27t-28 11q-16 0 -27 -11t-11 -27
q0 -17 11 -28t27 -11z" />
    <glyph glyph-name="AE" unicode="&#xc6;" horiz-adv-x="1019" 
d="M19 0l380 710h562v-113h-317v-185h305v-112h-305v-187h325v-113h-455v168h-285l53 111h232v320h-46l-310 -599h-139z" />
    <glyph glyph-name="Ccedilla" unicode="&#xc7;" horiz-adv-x="724" 
d="M372 -16q-97 0 -171 44.5t-116 127t-42 198.5q0 114 41 197.5t115 129t174 45.5q136 0 211 -67.5t98 -188.5l-136 -7q-13 70 -56 110t-117 40q-60 0 -104 -32t-68 -90t-24 -137q0 -80 24.5 -137.5t68.5 -88.5t102 -31q79 0 122.5 43.5t55.5 119.5l136 -7
q-14 -83 -54 -143.5t-105.5 -93t-154.5 -32.5zM367 -228q-50 0 -81 23t-44 58l61 26q9 -20 23 -30t38 -10t37 10t13 28t-13 29.5t-56 11.5l-36 35l34 57h79l-30 -43q50 -3 73 -29t23 -64q0 -33 -16 -55.5t-43.5 -34.5t-61.5 -12z" />
    <glyph glyph-name="Egrave" unicode="&#xc8;" horiz-adv-x="615" 
d="M80 0v710h478v-113h-348v-185h336v-112h-336v-187h356v-113h-486zM278 769l-90 141h129l61 -141h-100z" />
    <glyph glyph-name="Eacute" unicode="&#xc9;" horiz-adv-x="615" 
d="M80 0v710h478v-113h-348v-185h336v-112h-336v-187h356v-113h-486zM262 770l61 140h129l-90 -140h-100z" />
    <glyph glyph-name="Ecircumflex" unicode="&#xca;" horiz-adv-x="615" 
d="M80 0v710h478v-113h-348v-185h336v-112h-336v-187h356v-113h-486zM162 770l94 146h128l94 -146h-93l-77 106h24l-77 -106h-93z" />
    <glyph glyph-name="Edieresis" unicode="&#xcb;" horiz-adv-x="615" 
d="M80 0v710h478v-113h-348v-185h336v-112h-336v-187h356v-113h-486zM157 781v114h125v-114h-125zM358 781v114h125v-114h-125z" />
    <glyph glyph-name="Igrave" unicode="&#xcc;" horiz-adv-x="290" 
d="M80 0v710h130v-710h-130zM103 769l-90 141h129l61 -141h-100z" />
    <glyph glyph-name="Iacute" unicode="&#xcd;" horiz-adv-x="290" 
d="M80 0v710h130v-710h-130zM87 770l61 140h129l-90 -140h-100z" />
    <glyph glyph-name="Icircumflex" unicode="&#xce;" horiz-adv-x="290" 
d="M80 0v710h130v-710h-130zM-13 770l94 146h128l94 -146h-93l-77 106h24l-77 -106h-93z" />
    <glyph glyph-name="Idieresis" unicode="&#xcf;" horiz-adv-x="290" 
d="M80 0v710h130v-710h-130zM-18 781v114h125v-114h-125zM183 781v114h125v-114h-125z" />
    <glyph glyph-name="Eth" unicode="&#xd0;" horiz-adv-x="708" 
d="M80 0v710h236q170 0 261.5 -92.5t91.5 -263.5q0 -170 -90 -262t-257 -92h-242zM210 113h106q111 0 165 60t54 181q0 123 -54 183t-165 60h-106v-484zM12 303v103h388v-103h-388z" />
    <glyph glyph-name="Ntilde" unicode="&#xd1;" horiz-adv-x="748" 
d="M80 0v710h152l306 -534v534h130v-710h-156l-302 519v-519h-130zM439 780q-21 0 -38 6.5t-36 21.5q-13 11 -22 16t-21 5q-15 0 -26 -11.5t-14 -44.5h-67q1 64 29.5 99t76.5 35q24 0 42.5 -7t36.5 -22q14 -11 23.5 -15.5t19.5 -4.5q16 0 26 12t12 46h68q-2 -64 -30.5 -100
t-79.5 -36z" />
    <glyph glyph-name="Ograve" unicode="&#xd2;" horiz-adv-x="763" 
d="M381 -16q-105 0 -181 44.5t-116.5 127.5t-40.5 198t40.5 198.5t116.5 128.5t181 45q107 0 182.5 -45t116 -128.5t40.5 -198.5t-40.5 -198t-116 -127.5t-182.5 -44.5zM381 97q65 0 110.5 30.5t70 88t24.5 138.5t-24.5 139t-70 89t-110.5 31q-63 0 -109 -31t-70.5 -89
t-24.5 -139t24.5 -138.5t70.5 -88t109 -30.5zM339 769l-90 141h129l61 -141h-100z" />
    <glyph glyph-name="Oacute" unicode="&#xd3;" horiz-adv-x="763" 
d="M381 -16q-105 0 -181 44.5t-116.5 127.5t-40.5 198t40.5 198.5t116.5 128.5t181 45q107 0 182.5 -45t116 -128.5t40.5 -198.5t-40.5 -198t-116 -127.5t-182.5 -44.5zM381 97q65 0 110.5 30.5t70 88t24.5 138.5t-24.5 139t-70 89t-110.5 31q-63 0 -109 -31t-70.5 -89
t-24.5 -139t24.5 -138.5t70.5 -88t109 -30.5zM323 770l61 140h129l-90 -140h-100z" />
    <glyph glyph-name="Ocircumflex" unicode="&#xd4;" horiz-adv-x="763" 
d="M381 -16q-105 0 -181 44.5t-116.5 127.5t-40.5 198t40.5 198.5t116.5 128.5t181 45q107 0 182.5 -45t116 -128.5t40.5 -198.5t-40.5 -198t-116 -127.5t-182.5 -44.5zM381 97q65 0 110.5 30.5t70 88t24.5 138.5t-24.5 139t-70 89t-110.5 31q-63 0 -109 -31t-70.5 -89
t-24.5 -139t24.5 -138.5t70.5 -88t109 -30.5zM223 770l94 146h128l94 -146h-93l-77 106h24l-77 -106h-93z" />
    <glyph glyph-name="Otilde" unicode="&#xd5;" horiz-adv-x="763" 
d="M381 -16q-105 0 -181 44.5t-116.5 127.5t-40.5 198t40.5 198.5t116.5 128.5t181 45q107 0 182.5 -45t116 -128.5t40.5 -198.5t-40.5 -198t-116 -127.5t-182.5 -44.5zM381 97q65 0 110.5 30.5t70 88t24.5 138.5t-24.5 139t-70 89t-110.5 31q-63 0 -109 -31t-70.5 -89
t-24.5 -139t24.5 -138.5t70.5 -88t109 -30.5zM438 780q-21 0 -38 6.5t-36 21.5q-13 11 -22 16t-21 5q-15 0 -26 -11.5t-14 -44.5h-67q1 64 29.5 99t76.5 35q24 0 42.5 -7t36.5 -22q14 -11 23.5 -15.5t19.5 -4.5q16 0 26 12t12 46h68q-2 -64 -30.5 -100t-79.5 -36z" />
    <glyph glyph-name="Odieresis" unicode="&#xd6;" horiz-adv-x="763" 
d="M381 -16q-105 0 -181 44.5t-116.5 127.5t-40.5 198t40.5 198.5t116.5 128.5t181 45q107 0 182.5 -45t116 -128.5t40.5 -198.5t-40.5 -198t-116 -127.5t-182.5 -44.5zM381 97q65 0 110.5 30.5t70 88t24.5 138.5t-24.5 139t-70 89t-110.5 31q-63 0 -109 -31t-70.5 -89
t-24.5 -139t24.5 -138.5t70.5 -88t109 -30.5zM218 781v114h125v-114h-125zM419 781v114h125v-114h-125z" />
    <glyph glyph-name="multiply" unicode="&#xd7;" horiz-adv-x="528" 
d="M40 141l372 372l76 -75l-373 -372zM40 438l75 75l373 -372l-76 -75z" />
    <glyph glyph-name="Oslash" unicode="&#xd8;" horiz-adv-x="763" 
d="M381 -16q-105 0 -181 44.5t-116.5 127.5t-40.5 198t40.5 198.5t116.5 128.5t181 45q107 0 182.5 -45t116 -128.5t40.5 -198.5t-40.5 -198t-116 -127.5t-182.5 -44.5zM381 97q65 0 110.5 30.5t70 88t24.5 138.5t-24.5 139t-70 89t-110.5 31q-63 0 -109 -31t-70.5 -89
t-24.5 -139t24.5 -138.5t70.5 -88t109 -30.5zM73 -16l515 742h102l-515 -742h-102z" />
    <glyph glyph-name="Ugrave" unicode="&#xd9;" horiz-adv-x="699" 
d="M349 -16q-86 0 -150.5 33t-99 93.5t-34.5 143.5v456h130v-456q0 -75 40 -116t114 -41t114.5 41t40.5 116v456h130v-456q0 -83 -35 -143.5t-98.5 -93.5t-151.5 -33zM307 769l-90 141h129l61 -141h-100z" />
    <glyph glyph-name="Uacute" unicode="&#xda;" horiz-adv-x="699" 
d="M349 -16q-86 0 -150.5 33t-99 93.5t-34.5 143.5v456h130v-456q0 -75 40 -116t114 -41t114.5 41t40.5 116v456h130v-456q0 -83 -35 -143.5t-98.5 -93.5t-151.5 -33zM291 770l61 140h129l-90 -140h-100z" />
    <glyph glyph-name="Ucircumflex" unicode="&#xdb;" horiz-adv-x="699" 
d="M349 -16q-86 0 -150.5 33t-99 93.5t-34.5 143.5v456h130v-456q0 -75 40 -116t114 -41t114.5 41t40.5 116v456h130v-456q0 -83 -35 -143.5t-98.5 -93.5t-151.5 -33zM191 770l94 146h128l94 -146h-93l-77 106h24l-77 -106h-93z" />
    <glyph glyph-name="Udieresis" unicode="&#xdc;" horiz-adv-x="699" 
d="M349 -16q-86 0 -150.5 33t-99 93.5t-34.5 143.5v456h130v-456q0 -75 40 -116t114 -41t114.5 41t40.5 116v456h130v-456q0 -83 -35 -143.5t-98.5 -93.5t-151.5 -33zM186 781v114h125v-114h-125zM387 781v114h125v-114h-125z" />
    <glyph glyph-name="Yacute" unicode="&#xdd;" horiz-adv-x="613" 
d="M241 0v280l-248 430h146l168 -302l167 302h146l-248 -430v-280h-131zM249 770l61 140h129l-90 -140h-100z" />
    <glyph glyph-name="Thorn" unicode="&#xde;" horiz-adv-x="634" 
d="M121 149v114h207q64 0 96 25.5t32 77.5q0 51 -32 77t-96 26h-207v113h209q123 0 191.5 -56.5t68.5 -159.5t-68.5 -160t-191.5 -57h-209zM80 0v710h130v-710h-130z" />
    <glyph glyph-name="germandbls" unicode="&#xdf;" horiz-adv-x="633" 
d="M70 0v476q0 77 30.5 131.5t86.5 83.5t134 29q111 0 172 -51t61 -139q0 -68 -46.5 -111.5t-126.5 -49.5l-1 17q66 -2 115 -26.5t76.5 -65.5t27.5 -95q0 -93 -70.5 -146t-199.5 -53h-66v110h64q68 0 104 25.5t36 76.5q0 35 -16.5 58.5t-49 36t-81.5 12.5h-47v107h41
q52 0 81.5 25.5t29.5 68.5q0 41 -25.5 65.5t-78.5 24.5q-56 0 -89.5 -35.5t-33.5 -98.5v-476h-128z" />
    <glyph glyph-name="agrave" unicode="&#xe0;" horiz-adv-x="580" 
d="M225 -12q-84 0 -135 38.5t-51 107.5t43 108t131 56l177 35q0 57 -26 85.5t-77 28.5q-46 0 -72.5 -21.5t-36.5 -61.5l-130 6q16 85 78 130.5t161 45.5q114 0 172.5 -57.5t58.5 -164.5v-194q0 -21 7.5 -29t22.5 -8h17v-93q-6 -2 -19.5 -3t-27.5 -1q-33 0 -59 10.5t-40 37
t-14 72.5l11 -8q-8 -35 -34.5 -62.5t-66.5 -42.5t-90 -15zM251 81q43 0 74 17t48 47t17 71v30l-138 -28q-43 -9 -61.5 -26.5t-18.5 -45.5q0 -31 20.5 -48t58.5 -17zM248 593l-90 141h129l61 -141h-100z" />
    <glyph glyph-name="aacute" unicode="&#xe1;" horiz-adv-x="580" 
d="M225 -12q-84 0 -135 38.5t-51 107.5t43 108t131 56l177 35q0 57 -26 85.5t-77 28.5q-46 0 -72.5 -21.5t-36.5 -61.5l-130 6q16 85 78 130.5t161 45.5q114 0 172.5 -57.5t58.5 -164.5v-194q0 -21 7.5 -29t22.5 -8h17v-93q-6 -2 -19.5 -3t-27.5 -1q-33 0 -59 10.5t-40 37
t-14 72.5l11 -8q-8 -35 -34.5 -62.5t-66.5 -42.5t-90 -15zM251 81q43 0 74 17t48 47t17 71v30l-138 -28q-43 -9 -61.5 -26.5t-18.5 -45.5q0 -31 20.5 -48t58.5 -17zM232 594l61 140h129l-90 -140h-100z" />
    <glyph glyph-name="acircumflex" unicode="&#xe2;" horiz-adv-x="580" 
d="M225 -12q-84 0 -135 38.5t-51 107.5t43 108t131 56l177 35q0 57 -26 85.5t-77 28.5q-46 0 -72.5 -21.5t-36.5 -61.5l-130 6q16 85 78 130.5t161 45.5q114 0 172.5 -57.5t58.5 -164.5v-194q0 -21 7.5 -29t22.5 -8h17v-93q-6 -2 -19.5 -3t-27.5 -1q-33 0 -59 10.5t-40 37
t-14 72.5l11 -8q-8 -35 -34.5 -62.5t-66.5 -42.5t-90 -15zM251 81q43 0 74 17t48 47t17 71v30l-138 -28q-43 -9 -61.5 -26.5t-18.5 -45.5q0 -31 20.5 -48t58.5 -17zM132 594l94 146h128l94 -146h-93l-77 106h24l-77 -106h-93z" />
    <glyph glyph-name="atilde" unicode="&#xe3;" horiz-adv-x="580" 
d="M225 -12q-84 0 -135 38.5t-51 107.5t43 108t131 56l177 35q0 57 -26 85.5t-77 28.5q-46 0 -72.5 -21.5t-36.5 -61.5l-130 6q16 85 78 130.5t161 45.5q114 0 172.5 -57.5t58.5 -164.5v-194q0 -21 7.5 -29t22.5 -8h17v-93q-6 -2 -19.5 -3t-27.5 -1q-33 0 -59 10.5t-40 37
t-14 72.5l11 -8q-8 -35 -34.5 -62.5t-66.5 -42.5t-90 -15zM251 81q43 0 74 17t48 47t17 71v30l-138 -28q-43 -9 -61.5 -26.5t-18.5 -45.5q0 -31 20.5 -48t58.5 -17zM347 604q-21 0 -38 6.5t-36 21.5q-13 11 -22 16t-21 5q-15 0 -26 -11.5t-14 -44.5h-67q1 64 29.5 99
t76.5 35q24 0 42.5 -7t36.5 -22q14 -11 23.5 -15.5t19.5 -4.5q16 0 26 12t12 46h68q-2 -64 -30.5 -100t-79.5 -36z" />
    <glyph glyph-name="adieresis" unicode="&#xe4;" horiz-adv-x="580" 
d="M225 -12q-84 0 -135 38.5t-51 107.5t43 108t131 56l177 35q0 57 -26 85.5t-77 28.5q-46 0 -72.5 -21.5t-36.5 -61.5l-130 6q16 85 78 130.5t161 45.5q114 0 172.5 -57.5t58.5 -164.5v-194q0 -21 7.5 -29t22.5 -8h17v-93q-6 -2 -19.5 -3t-27.5 -1q-33 0 -59 10.5t-40 37
t-14 72.5l11 -8q-8 -35 -34.5 -62.5t-66.5 -42.5t-90 -15zM251 81q43 0 74 17t48 47t17 71v30l-138 -28q-43 -9 -61.5 -26.5t-18.5 -45.5q0 -31 20.5 -48t58.5 -17zM127 605v114h125v-114h-125zM328 605v114h125v-114h-125z" />
    <glyph glyph-name="aring" unicode="&#xe5;" horiz-adv-x="580" 
d="M225 -12q-84 0 -135 38.5t-51 107.5t43 108t131 56l177 35q0 57 -26 85.5t-77 28.5q-46 0 -72.5 -21.5t-36.5 -61.5l-130 6q16 85 78 130.5t161 45.5q114 0 172.5 -57.5t58.5 -164.5v-194q0 -21 7.5 -29t22.5 -8h17v-93q-6 -2 -19.5 -3t-27.5 -1q-33 0 -59 10.5t-40 37
t-14 72.5l11 -8q-8 -35 -34.5 -62.5t-66.5 -42.5t-90 -15zM251 81q43 0 74 17t48 47t17 71v30l-138 -28q-43 -9 -61.5 -26.5t-18.5 -45.5q0 -31 20.5 -48t58.5 -17zM291 575q-42 0 -71 28.5t-29 70.5t28.5 70t71.5 28q42 0 70.5 -28t28.5 -70t-28.5 -70.5t-70.5 -28.5z
M290 635q17 0 28 11t11 28q0 16 -11 27t-28 11q-16 0 -27 -11t-11 -27q0 -17 11 -28t27 -11z" />
    <glyph glyph-name="ae" unicode="&#xe6;" horiz-adv-x="945" 
d="M226 -12q-82 0 -134.5 37.5t-52.5 108.5q0 53 22.5 85.5t62 51.5t89.5 27l177 29q0 62 -26 91t-78 29q-47 0 -73.5 -23t-34.5 -60l-130 6q16 84 77.5 130t159.5 46q113 0 174 -56.5t59 -172.5l-55 -155q-12 -55 -44 -94t-81 -59.5t-112 -20.5zM264 80q37 2 65.5 17.5
t44.5 44.5t16 72v26l-138 -22q-46 -7 -63 -26.5t-17 -46.5q0 -32 22 -49.5t70 -15.5zM655 -12q-79 0 -138 34.5t-91 97.5t-32 147t32 146.5t90 97.5t137 35q76 0 133.5 -34t88.5 -98t31 -154v-29h-379q4 -70 38.5 -105.5t91.5 -35.5q43 0 71 19.5t40 54.5l131 -8
q-22 -78 -86.5 -123t-157.5 -45zM527 317h246q-4 65 -36.5 96.5t-83.5 31.5t-84.5 -33t-41.5 -95z" />
    <glyph glyph-name="ccedilla" unicode="&#xe7;" horiz-adv-x="580" 
d="M302 -12q-80 0 -139 34.5t-91.5 97.5t-32.5 147t32.5 146.5t91.5 97.5t139 35q68 0 121 -24t86.5 -68.5t41.5 -108.5l-132 -7q-8 51 -39.5 77.5t-77.5 26.5q-62 0 -96 -46.5t-34 -128.5q0 -83 34 -129t96 -46q47 0 78.5 27t38.5 84l132 -6q-8 -64 -41 -111t-86 -72.5
t-122 -25.5zM295 -228q-50 0 -81 23t-44 58l61 26q9 -20 23 -30t38 -10t37 10t13 28t-13 29.5t-56 11.5l-36 35l34 57h79l-30 -43q50 -3 73 -29t23 -64q0 -33 -16 -55.5t-43.5 -34.5t-61.5 -12z" />
    <glyph glyph-name="egrave" unicode="&#xe8;" horiz-adv-x="591" 
d="M301 -12q-80 0 -139 34.5t-91 97.5t-32 147t32 146.5t90.5 97.5t136.5 35q76 0 133.5 -34t88.5 -98t31 -154v-29h-379q4 -70 38.5 -105.5t91.5 -35.5q43 0 71.5 19.5t39.5 54.5l131 -8q-22 -78 -86.5 -123t-156.5 -45zM172 317h247q-4 65 -37 96.5t-84 31.5t-84.5 -33
t-41.5 -95zM259 591l-90 141h129l61 -141h-100z" />
    <glyph glyph-name="eacute" unicode="&#xe9;" horiz-adv-x="591" 
d="M301 -12q-80 0 -139 34.5t-91 97.5t-32 147t32 146.5t90.5 97.5t136.5 35q76 0 133.5 -34t88.5 -98t31 -154v-29h-379q4 -70 38.5 -105.5t91.5 -35.5q43 0 71.5 19.5t39.5 54.5l131 -8q-22 -78 -86.5 -123t-156.5 -45zM172 317h247q-4 65 -37 96.5t-84 31.5t-84.5 -33
t-41.5 -95zM244 592l61 140h129l-90 -140h-100z" />
    <glyph glyph-name="ecircumflex" unicode="&#xea;" horiz-adv-x="591" 
d="M301 -12q-80 0 -139 34.5t-91 97.5t-32 147t32 146.5t90.5 97.5t136.5 35q76 0 133.5 -34t88.5 -98t31 -154v-29h-379q4 -70 38.5 -105.5t91.5 -35.5q43 0 71.5 19.5t39.5 54.5l131 -8q-22 -78 -86.5 -123t-156.5 -45zM172 317h247q-4 65 -37 96.5t-84 31.5t-84.5 -33
t-41.5 -95zM144 592l94 146h128l94 -146h-93l-77 106h24l-77 -106h-93z" />
    <glyph glyph-name="edieresis" unicode="&#xeb;" horiz-adv-x="591" 
d="M301 -12q-80 0 -139 34.5t-91 97.5t-32 147t32 146.5t90.5 97.5t136.5 35q76 0 133.5 -34t88.5 -98t31 -154v-29h-379q4 -70 38.5 -105.5t91.5 -35.5q43 0 71.5 19.5t39.5 54.5l131 -8q-22 -78 -86.5 -123t-156.5 -45zM172 317h247q-4 65 -37 96.5t-84 31.5t-84.5 -33
t-41.5 -95zM139 603v114h125v-114h-125zM340 603v114h125v-114h-125z" />
    <glyph glyph-name="igrave" unicode="&#xec;" horiz-adv-x="269" 
d="M70 0v534h128v-534h-128zM92 593l-90 141h129l61 -141h-100z" />
    <glyph glyph-name="iacute" unicode="&#xed;" horiz-adv-x="269" 
d="M70 0v534h128v-534h-128zM76 594l61 140h129l-90 -140h-100z" />
    <glyph glyph-name="icircumflex" unicode="&#xee;" horiz-adv-x="269" 
d="M70 0v534h128v-534h-128zM-24 594l94 146h128l94 -146h-93l-77 106h24l-77 -106h-93z" />
    <glyph glyph-name="idieresis" unicode="&#xef;" horiz-adv-x="269" 
d="M70 0v534h128v-534h-128zM13 605v114h103v-114h-103zM152 605v114h103v-114h-103z" />
    <glyph glyph-name="eth" unicode="&#xf0;" horiz-adv-x="603" 
d="M233 510l-26 67l328 131l26 -68zM448 286q0 107 -27.5 181t-88.5 114.5t-161 48.5l34 92q97 -10 166 -49t111.5 -101.5t62 -141.5t19.5 -170zM302 -12q-83 0 -142 30t-90 86.5t-31 133.5q0 78 31 134t90 86t142 30q55 0 102.5 -21.5t83.5 -56.5t56 -74.5t20 -75.5
q0 -133 -68.5 -202.5t-193.5 -69.5zM302 90q62 0 95.5 39.5t33.5 114.5q0 65 -33.5 103.5t-95.5 38.5t-96 -39t-34 -109q0 -69 34 -108.5t96 -39.5z" />
    <glyph glyph-name="ntilde" unicode="&#xf1;" horiz-adv-x="601" 
d="M70 0v534h116l5 -150l-15 6q8 56 33 90t61 50t79 16q59 0 99.5 -26t61.5 -71.5t21 -105.5v-343h-128v302q0 45 -9 76t-29.5 47.5t-54.5 16.5q-51 0 -81.5 -36t-30.5 -104v-302h-128zM357 604q-21 0 -38 6.5t-36 21.5q-13 11 -22 16t-21 5q-15 0 -26 -11.5t-14 -44.5h-67
q1 64 29.5 99t76.5 35q24 0 42.5 -7t36.5 -22q14 -11 23.5 -15.5t19.5 -4.5q16 0 26 12t12 46h68q-2 -64 -30.5 -100t-79.5 -36z" />
    <glyph glyph-name="ograve" unicode="&#xf2;" horiz-adv-x="603" 
d="M302 -12q-79 0 -138.5 34.5t-92 97.5t-32.5 147q0 85 32.5 147.5t92 97t138.5 34.5t138 -34.5t91.5 -97t32.5 -147.5q0 -84 -32.5 -147t-91.5 -97.5t-138 -34.5zM302 92q62 0 95.5 46t33.5 129q0 82 -33.5 128.5t-95.5 46.5t-96 -46.5t-34 -128.5q0 -83 34 -129t96 -46z
M259 593l-90 141h129l61 -141h-100z" />
    <glyph glyph-name="oacute" unicode="&#xf3;" horiz-adv-x="603" 
d="M302 -12q-79 0 -138.5 34.5t-92 97.5t-32.5 147q0 85 32.5 147.5t92 97t138.5 34.5t138 -34.5t91.5 -97t32.5 -147.5q0 -84 -32.5 -147t-91.5 -97.5t-138 -34.5zM302 92q62 0 95.5 46t33.5 129q0 82 -33.5 128.5t-95.5 46.5t-96 -46.5t-34 -128.5q0 -83 34 -129t96 -46z
M244 594l61 140h129l-90 -140h-100z" />
    <glyph glyph-name="ocircumflex" unicode="&#xf4;" horiz-adv-x="603" 
d="M302 -12q-79 0 -138.5 34.5t-92 97.5t-32.5 147q0 85 32.5 147.5t92 97t138.5 34.5t138 -34.5t91.5 -97t32.5 -147.5q0 -84 -32.5 -147t-91.5 -97.5t-138 -34.5zM302 92q62 0 95.5 46t33.5 129q0 82 -33.5 128.5t-95.5 46.5t-96 -46.5t-34 -128.5q0 -83 34 -129t96 -46z
M144 594l94 146h128l94 -146h-93l-77 106h24l-77 -106h-93z" />
    <glyph glyph-name="otilde" unicode="&#xf5;" horiz-adv-x="603" 
d="M302 -12q-79 0 -138.5 34.5t-92 97.5t-32.5 147q0 85 32.5 147.5t92 97t138.5 34.5t138 -34.5t91.5 -97t32.5 -147.5q0 -84 -32.5 -147t-91.5 -97.5t-138 -34.5zM302 92q62 0 95.5 46t33.5 129q0 82 -33.5 128.5t-95.5 46.5t-96 -46.5t-34 -128.5q0 -83 34 -129t96 -46z
M358 604q-21 0 -38 6.5t-36 21.5q-13 11 -22 16t-21 5q-15 0 -26 -11.5t-14 -44.5h-67q1 64 29.5 99t76.5 35q24 0 42.5 -7t36.5 -22q14 -11 23.5 -15.5t19.5 -4.5q16 0 26 12t12 46h68q-2 -64 -30.5 -100t-79.5 -36z" />
    <glyph glyph-name="odieresis" unicode="&#xf6;" horiz-adv-x="603" 
d="M302 -12q-79 0 -138.5 34.5t-92 97.5t-32.5 147q0 85 32.5 147.5t92 97t138.5 34.5t138 -34.5t91.5 -97t32.5 -147.5q0 -84 -32.5 -147t-91.5 -97.5t-138 -34.5zM302 92q62 0 95.5 46t33.5 129q0 82 -33.5 128.5t-95.5 46.5t-96 -46.5t-34 -128.5q0 -83 34 -129t96 -46z
M139 605v114h125v-114h-125zM340 605v114h125v-114h-125z" />
    <glyph glyph-name="divide" unicode="&#xf7;" horiz-adv-x="556" 
d="M278 27q-34 0 -55 20.5t-21 53.5q0 32 21 52.5t55 20.5t55 -20.5t21 -52.5q0 -33 -21 -53.5t-55 -20.5zM278 404q-34 0 -55 21t-21 53t21 53t55 21t55 -21t21 -53t-21 -53t-55 -21zM40 238v102h476v-102h-476z" />
    <glyph glyph-name="oslash" unicode="&#xf8;" horiz-adv-x="603" 
d="M302 -12q-79 0 -138.5 34.5t-92 97.5t-32.5 147q0 85 32.5 147.5t92 97t138.5 34.5t138 -34.5t91.5 -97t32.5 -147.5q0 -84 -32.5 -147t-91.5 -97.5t-138 -34.5zM302 92q62 0 95.5 46t33.5 129q0 82 -33.5 128.5t-95.5 46.5t-96 -46.5t-34 -128.5q0 -83 34 -129t96 -46z
M62 -14l392 562h87l-392 -562h-87z" />
    <glyph glyph-name="ugrave" unicode="&#xf9;" horiz-adv-x="597" 
d="M246 -12q-81 0 -128.5 53.5t-47.5 148.5v344h128v-312q0 -67 22.5 -98.5t68.5 -31.5q52 0 80.5 34.5t28.5 100.5v307h128v-534h-117l-3 147l16 -5q-12 -76 -57 -115t-119 -39zM253 593l-90 141h129l61 -141h-100z" />
    <glyph glyph-name="uacute" unicode="&#xfa;" horiz-adv-x="597" 
d="M246 -12q-81 0 -128.5 53.5t-47.5 148.5v344h128v-312q0 -67 22.5 -98.5t68.5 -31.5q52 0 80.5 34.5t28.5 100.5v307h128v-534h-117l-3 147l16 -5q-12 -76 -57 -115t-119 -39zM238 594l61 140h129l-90 -140h-100z" />
    <glyph glyph-name="ucircumflex" unicode="&#xfb;" horiz-adv-x="597" 
d="M246 -12q-81 0 -128.5 53.5t-47.5 148.5v344h128v-312q0 -67 22.5 -98.5t68.5 -31.5q52 0 80.5 34.5t28.5 100.5v307h128v-534h-117l-3 147l16 -5q-12 -76 -57 -115t-119 -39zM138 594l94 146h128l94 -146h-93l-77 106h24l-77 -106h-93z" />
    <glyph glyph-name="udieresis" unicode="&#xfc;" horiz-adv-x="597" 
d="M246 -12q-81 0 -128.5 53.5t-47.5 148.5v344h128v-312q0 -67 22.5 -98.5t68.5 -31.5q52 0 80.5 34.5t28.5 100.5v307h128v-534h-117l-3 147l16 -5q-12 -76 -57 -115t-119 -39zM132 605v114h125v-114h-125zM333 605v114h125v-114h-125z" />
    <glyph glyph-name="yacute" unicode="&#xfd;" horiz-adv-x="570" 
d="M108 -150v99h68q26 0 38.5 8t19.5 27l15 37h-37l-191 513h133l134 -393l128 393h133l-209 -590q-18 -50 -50.5 -72t-90.5 -22h-91zM228 594l61 140h129l-90 -140h-100z" />
    <glyph glyph-name="thorn" unicode="&#xfe;" horiz-adv-x="614" 
d="M70 -150v860h130v-229q21 31 56.5 48t86.5 17q77 0 128.5 -38t77.5 -101t26 -140t-26 -140t-77.5 -101t-128.5 -38q-48 0 -84 17t-59 47v-202h-130zM317 98q44 0 71.5 23.5t41 62.5t13.5 83q0 46 -13.5 85t-41 62.5t-71.5 23.5t-72 -24t-41 -62.5t-13 -84.5q0 -43 13 -82
t41 -63t72 -24z" />
    <glyph glyph-name="ydieresis" unicode="&#xff;" horiz-adv-x="570" 
d="M108 -150v99h68q26 0 38.5 8t19.5 27l15 37h-37l-191 513h133l134 -393l128 393h133l-209 -590q-18 -50 -50.5 -72t-90.5 -22h-91zM123 605v114h125v-114h-125zM324 605v114h125v-114h-125z" />
    <glyph glyph-name="Amacron" unicode="&#x100;" horiz-adv-x="709" 
d="M19 0l256 710h159l256 -710h-136l-59 168h-281l-59 -168h-136zM252 279h205l-102 300zM210 789v97h289v-97h-289z" />
    <glyph glyph-name="amacron" unicode="&#x101;" horiz-adv-x="580" 
d="M225 -12q-84 0 -135 38.5t-51 107.5t43 108t131 56l177 35q0 57 -26 85.5t-77 28.5q-46 0 -72.5 -21.5t-36.5 -61.5l-130 6q16 85 78 130.5t161 45.5q114 0 172.5 -57.5t58.5 -164.5v-194q0 -21 7.5 -29t22.5 -8h17v-93q-6 -2 -19.5 -3t-27.5 -1q-33 0 -59 10.5t-40 37
t-14 72.5l11 -8q-8 -35 -34.5 -62.5t-66.5 -42.5t-90 -15zM251 81q43 0 74 17t48 47t17 71v30l-138 -28q-43 -9 -61.5 -26.5t-18.5 -45.5q0 -31 20.5 -48t58.5 -17zM146 613v97h289v-97h-289z" />
    <glyph glyph-name="Abreve" unicode="&#x102;" horiz-adv-x="709" 
d="M19 0l256 710h159l256 -710h-136l-59 168h-281l-59 -168h-136zM252 279h205l-102 300zM354 771q-66 0 -107 37.5t-44 103.5h77q5 -34 24 -49.5t50 -15.5q32 0 51 15.5t23 49.5h77q-3 -66 -43 -103.5t-108 -37.5z" />
    <glyph glyph-name="abreve" unicode="&#x103;" horiz-adv-x="580" 
d="M225 -12q-84 0 -135 38.5t-51 107.5t43 108t131 56l177 35q0 57 -26 85.5t-77 28.5q-46 0 -72.5 -21.5t-36.5 -61.5l-130 6q16 85 78 130.5t161 45.5q114 0 172.5 -57.5t58.5 -164.5v-194q0 -21 7.5 -29t22.5 -8h17v-93q-6 -2 -19.5 -3t-27.5 -1q-33 0 -59 10.5t-40 37
t-14 72.5l11 -8q-8 -35 -34.5 -62.5t-66.5 -42.5t-90 -15zM251 81q43 0 74 17t48 47t17 71v30l-138 -28q-43 -9 -61.5 -26.5t-18.5 -45.5q0 -31 20.5 -48t58.5 -17zM290 595q-66 0 -107 37.5t-44 103.5h77q5 -34 24 -49.5t50 -15.5q32 0 51 15.5t23 49.5h77
q-3 -66 -43 -103.5t-108 -37.5z" />
    <glyph glyph-name="Aogonek" unicode="&#x104;" horiz-adv-x="709" 
d="M19 0l256 710h159l256 -710h-136l-59 168h-281l-59 -168h-136zM252 279h205l-102 300zM627 -215q-50 0 -78.5 21t-28.5 60q0 30 17 59t35 55l33 42l85 -22l-32 -42q-16 -22 -23.5 -37.5t-7.5 -27.5q0 -13 8 -19t19 -6q13 0 25.5 3.5t20.5 9.5l26 -70q-12 -10 -40.5 -18
t-58.5 -8z" />
    <glyph glyph-name="aogonek" unicode="&#x105;" horiz-adv-x="580" 
d="M225 -12q-84 0 -135 38.5t-51 107.5t43 108t131 56l177 35q0 57 -26 85.5t-77 28.5q-46 0 -72.5 -21.5t-36.5 -61.5l-130 6q16 85 78 130.5t161 45.5q114 0 172.5 -57.5t58.5 -164.5v-194q0 -21 7.5 -29t22.5 -8h17v-93q-6 -2 -19.5 -3t-27.5 -1q-33 0 -59 10.5t-40 37
t-14 72.5l11 -8q-8 -35 -34.5 -62.5t-66.5 -42.5t-90 -15zM251 81q43 0 74 17t48 47t17 71v30l-138 -28q-43 -9 -61.5 -26.5t-18.5 -45.5q0 -31 20.5 -48t58.5 -17zM502 -215q-50 0 -78.5 21t-28.5 60q0 30 17 59t35 55l33 42l85 -22l-32 -42q-16 -22 -23.5 -37.5
t-7.5 -27.5q0 -13 8 -19t19 -6q13 0 25.5 3.5t20.5 9.5l26 -70q-12 -10 -40.5 -18t-58.5 -8z" />
    <glyph glyph-name="Cacute" unicode="&#x106;" horiz-adv-x="724" 
d="M372 -16q-97 0 -171 44.5t-116 127t-42 198.5q0 114 41 197.5t115 129t174 45.5q136 0 211 -67.5t98 -188.5l-136 -7q-13 70 -56 110t-117 40q-60 0 -104 -32t-68 -90t-24 -137q0 -80 24.5 -137.5t68.5 -88.5t102 -31q79 0 122.5 43.5t55.5 119.5l136 -7
q-14 -83 -54 -143.5t-105.5 -93t-154.5 -32.5zM314 770l61 140h129l-90 -140h-100z" />
    <glyph glyph-name="cacute" unicode="&#x107;" horiz-adv-x="580" 
d="M302 -12q-80 0 -139 34.5t-91.5 97.5t-32.5 147t32.5 146.5t91.5 97.5t139 35q68 0 121 -24t86.5 -68.5t41.5 -108.5l-132 -7q-8 51 -39.5 77.5t-77.5 26.5q-62 0 -96 -46.5t-34 -128.5q0 -83 34 -129t96 -46q47 0 78.5 27t38.5 84l132 -6q-8 -64 -41 -111t-86 -72.5
t-122 -25.5zM244 594l61 140h129l-90 -140h-100z" />
    <glyph glyph-name="Ccircumflex" unicode="&#x108;" horiz-adv-x="724" 
d="M372 -16q-97 0 -171 44.5t-116 127t-42 198.5q0 114 41 197.5t115 129t174 45.5q136 0 211 -67.5t98 -188.5l-136 -7q-13 70 -56 110t-117 40q-60 0 -104 -32t-68 -90t-24 -137q0 -80 24.5 -137.5t68.5 -88.5t102 -31q79 0 122.5 43.5t55.5 119.5l136 -7
q-14 -83 -54 -143.5t-105.5 -93t-154.5 -32.5zM214 770l94 146h128l94 -146h-93l-77 106h24l-77 -106h-93z" />
    <glyph glyph-name="ccircumflex" unicode="&#x109;" horiz-adv-x="580" 
d="M302 -12q-80 0 -139 34.5t-91.5 97.5t-32.5 147t32.5 146.5t91.5 97.5t139 35q68 0 121 -24t86.5 -68.5t41.5 -108.5l-132 -7q-8 51 -39.5 77.5t-77.5 26.5q-62 0 -96 -46.5t-34 -128.5q0 -83 34 -129t96 -46q47 0 78.5 27t38.5 84l132 -6q-8 -64 -41 -111t-86 -72.5
t-122 -25.5zM144 594l94 146h128l94 -146h-93l-77 106h24l-77 -106h-93z" />
    <glyph glyph-name="Cdotaccent" unicode="&#x10a;" horiz-adv-x="724" 
d="M372 -16q-97 0 -171 44.5t-116 127t-42 198.5q0 114 41 197.5t115 129t174 45.5q136 0 211 -67.5t98 -188.5l-136 -7q-13 70 -56 110t-117 40q-60 0 -104 -32t-68 -90t-24 -137q0 -80 24.5 -137.5t68.5 -88.5t102 -31q79 0 122.5 43.5t55.5 119.5l136 -7
q-14 -83 -54 -143.5t-105.5 -93t-154.5 -32.5zM305 781v114h133v-114h-133z" />
    <glyph glyph-name="cdotaccent" unicode="&#x10b;" horiz-adv-x="580" 
d="M302 -12q-80 0 -139 34.5t-91.5 97.5t-32.5 147t32.5 146.5t91.5 97.5t139 35q68 0 121 -24t86.5 -68.5t41.5 -108.5l-132 -7q-8 51 -39.5 77.5t-77.5 26.5q-62 0 -96 -46.5t-34 -128.5q0 -83 34 -129t96 -46q47 0 78.5 27t38.5 84l132 -6q-8 -64 -41 -111t-86 -72.5
t-122 -25.5zM235 605v114h133v-114h-133z" />
    <glyph glyph-name="Ccaron" unicode="&#x10c;" horiz-adv-x="724" 
d="M372 -16q-97 0 -171 44.5t-116 127t-42 198.5q0 114 41 197.5t115 129t174 45.5q136 0 211 -67.5t98 -188.5l-136 -7q-13 70 -56 110t-117 40q-60 0 -104 -32t-68 -90t-24 -137q0 -80 24.5 -137.5t68.5 -88.5t102 -31q79 0 122.5 43.5t55.5 119.5l136 -7
q-14 -83 -54 -143.5t-105.5 -93t-154.5 -32.5zM214 916h93l77 -107h-24l77 107h93l-94 -146h-128z" />
    <glyph glyph-name="ccaron" unicode="&#x10d;" horiz-adv-x="580" 
d="M302 -12q-80 0 -139 34.5t-91.5 97.5t-32.5 147t32.5 146.5t91.5 97.5t139 35q68 0 121 -24t86.5 -68.5t41.5 -108.5l-132 -7q-8 51 -39.5 77.5t-77.5 26.5q-62 0 -96 -46.5t-34 -128.5q0 -83 34 -129t96 -46q47 0 78.5 27t38.5 84l132 -6q-8 -64 -41 -111t-86 -72.5
t-122 -25.5zM144 740h93l77 -107h-24l77 107h93l-94 -146h-128z" />
    <glyph glyph-name="Dcaron" unicode="&#x10e;" horiz-adv-x="708" 
d="M80 0v710h236q170 0 261.5 -92.5t91.5 -263.5q0 -170 -90 -262t-257 -92h-242zM210 113h106q111 0 165 60t54 181q0 123 -54 183t-165 60h-106v-484zM167 916h93l77 -107h-24l77 107h93l-94 -146h-128z" />
    <glyph glyph-name="dcaron" unicode="&#x10f;" horiz-adv-x="714" 
d="M260 -12q-68 0 -117.5 34t-76.5 97t-27 148t27 148t77 97t117 34q56 0 98.5 -23t64.5 -65v252h128v-710h-122l-3 79q-22 -43 -66 -67t-100 -24zM299 92q40 0 67.5 20t42 59.5t14.5 95.5q0 57 -14.5 96t-42 59t-67.5 20q-58 0 -92.5 -46.5t-34.5 -128.5q0 -80 34.5 -127.5
t92.5 -47.5zM599 434l29 276h115l-54 -276h-90z" />
    <glyph glyph-name="Dcroat" unicode="&#x110;" horiz-adv-x="708" 
d="M80 0v710h236q170 0 261.5 -92.5t91.5 -263.5q0 -170 -90 -262t-257 -92h-242zM210 113h106q111 0 165 60t54 181q0 123 -54 183t-165 60h-106v-484zM12 303v103h388v-103h-388z" />
    <glyph glyph-name="dcroat" unicode="&#x111;" horiz-adv-x="621" 
d="M260 -12q-68 0 -117.5 34t-76.5 97t-27 148t27 148t77 97t117 34q56 0 98.5 -23t64.5 -65v252h128v-710h-122l-3 79q-22 -43 -66 -67t-100 -24zM299 92q40 0 67.5 20t42 59.5t14.5 95.5q0 57 -14.5 96t-42 59t-67.5 20q-58 0 -92.5 -46.5t-34.5 -128.5q0 -80 34.5 -127.5
t92.5 -47.5zM285 578v81h332v-81h-332z" />
    <glyph glyph-name="Emacron" unicode="&#x112;" horiz-adv-x="615" 
d="M80 0v710h478v-113h-348v-185h336v-112h-336v-187h356v-113h-486zM176 789v97h289v-97h-289z" />
    <glyph glyph-name="emacron" unicode="&#x113;" horiz-adv-x="591" 
d="M301 -12q-80 0 -139 34.5t-91 97.5t-32 147t32 146.5t90.5 97.5t136.5 35q76 0 133.5 -34t88.5 -98t31 -154v-29h-379q4 -70 38.5 -105.5t91.5 -35.5q43 0 71.5 19.5t39.5 54.5l131 -8q-22 -78 -86.5 -123t-156.5 -45zM172 317h247q-4 65 -37 96.5t-84 31.5t-84.5 -33
t-41.5 -95zM157 611v97h289v-97h-289z" />
    <glyph glyph-name="Edotaccent" unicode="&#x116;" horiz-adv-x="615" 
d="M80 0v710h478v-113h-348v-185h336v-112h-336v-187h356v-113h-486zM254 781v114h133v-114h-133z" />
    <glyph glyph-name="edotaccent" unicode="&#x117;" horiz-adv-x="591" 
d="M301 -12q-80 0 -139 34.5t-91 97.5t-32 147t32 146.5t90.5 97.5t136.5 35q76 0 133.5 -34t88.5 -98t31 -154v-29h-379q4 -70 38.5 -105.5t91.5 -35.5q43 0 71.5 19.5t39.5 54.5l131 -8q-22 -78 -86.5 -123t-156.5 -45zM172 317h247q-4 65 -37 96.5t-84 31.5t-84.5 -33
t-41.5 -95zM235 603v114h133v-114h-133z" />
    <glyph glyph-name="Eogonek" unicode="&#x118;" horiz-adv-x="615" 
d="M80 0v710h478v-113h-348v-185h336v-112h-336v-187h356v-113h-486zM503 -215q-50 0 -78.5 21t-28.5 60q0 30 17 59t35 55l33 42l85 -22l-32 -42q-16 -22 -23.5 -37.5t-7.5 -27.5q0 -13 8 -19t19 -6q13 0 25.5 3.5t20.5 9.5l26 -70q-12 -10 -40.5 -18t-58.5 -8z" />
    <glyph glyph-name="eogonek" unicode="&#x119;" horiz-adv-x="591" 
d="M382 -215q-51 0 -78.5 23.5t-27.5 65.5q0 32 12 57.5t33 49.5l88 99l92 -10l-87 -105q-17 -20 -24.5 -37t-7.5 -32q0 -14 7.5 -21t19.5 -7q13 0 24.5 3.5t19.5 9.5l27 -70q-13 -10 -40.5 -18t-57.5 -8zM301 -12q-80 0 -139 34.5t-91 97.5t-32 147t32 146.5t90.5 97.5
t136.5 35q76 0 133.5 -34t88.5 -98t31 -154v-29h-379q4 -70 38.5 -105.5t91.5 -35.5q43 0 71.5 19.5t39.5 54.5l131 -8q-22 -78 -86.5 -123t-156.5 -45zM172 317h247q-4 65 -37 96.5t-84 31.5t-84.5 -33t-41.5 -95z" />
    <glyph glyph-name="Ecaron" unicode="&#x11a;" horiz-adv-x="615" 
d="M80 0v710h478v-113h-348v-185h336v-112h-336v-187h356v-113h-486zM162 916h93l77 -107h-24l77 107h93l-94 -146h-128z" />
    <glyph glyph-name="ecaron" unicode="&#x11b;" horiz-adv-x="591" 
d="M301 -12q-80 0 -139 34.5t-91 97.5t-32 147t32 146.5t90.5 97.5t136.5 35q76 0 133.5 -34t88.5 -98t31 -154v-29h-379q4 -70 38.5 -105.5t91.5 -35.5q43 0 71.5 19.5t39.5 54.5l131 -8q-22 -78 -86.5 -123t-156.5 -45zM172 317h247q-4 65 -37 96.5t-84 31.5t-84.5 -33
t-41.5 -95zM144 738h93l77 -107h-24l77 107h93l-94 -146h-128z" />
    <glyph glyph-name="Gcircumflex" unicode="&#x11c;" horiz-adv-x="726" 
d="M367 -16q-101 0 -174 47.5t-111.5 130.5t-38.5 192q0 107 39.5 191t113.5 132.5t178 48.5q90 0 151.5 -31t98.5 -86t52 -127l-136 -7q-11 63 -49.5 100.5t-115.5 37.5q-68 0 -111.5 -35t-65 -93.5t-21.5 -130.5q0 -74 21 -132t65.5 -91.5t112.5 -33.5q53 0 91 22t60 60.5
t24 85.5h-175v101h302v-366h-84l-8 156l16 -10q-11 -48 -44.5 -84.5t-83 -57t-107.5 -20.5zM217 770l94 146h128l94 -146h-93l-77 106h24l-77 -106h-93z" />
    <glyph glyph-name="gcircumflex" unicode="&#x11d;" horiz-adv-x="620" 
d="M298 -162q-70 0 -120 19t-80.5 53.5t-42.5 79.5l132 9q10 -30 34.5 -47t76.5 -17q59 0 91 26.5t32 82.5v68q-19 -39 -61 -62.5t-94 -23.5q-66 0 -117.5 32.5t-80.5 91t-29 135.5t28.5 135.5t79.5 92t117 33.5q58 0 100 -26t61 -69v83h125v-487q0 -68 -31.5 -115
t-88 -70.5t-132.5 -23.5zM296 126q57 0 91 42.5t35 117.5q1 50 -14.5 85.5t-44 55t-67.5 19.5q-59 0 -91.5 -43.5t-32.5 -116.5t33.5 -116.5t90.5 -43.5zM143 594l94 146h128l94 -146h-93l-77 106h24l-77 -106h-93z" />
    <glyph glyph-name="Gbreve" unicode="&#x11e;" horiz-adv-x="726" 
d="M367 -16q-101 0 -174 47.5t-111.5 130.5t-38.5 192q0 107 39.5 191t113.5 132.5t178 48.5q90 0 151.5 -31t98.5 -86t52 -127l-136 -7q-11 63 -49.5 100.5t-115.5 37.5q-68 0 -111.5 -35t-65 -93.5t-21.5 -130.5q0 -74 21 -132t65.5 -91.5t112.5 -33.5q53 0 91 22t60 60.5
t24 85.5h-175v101h302v-366h-84l-8 156l16 -10q-11 -48 -44.5 -84.5t-83 -57t-107.5 -20.5zM374 771q-66 0 -107 37.5t-44 103.5h77q5 -34 24 -49.5t50 -15.5q32 0 51 15.5t23 49.5h77q-3 -66 -43 -103.5t-108 -37.5z" />
    <glyph glyph-name="gbreve" unicode="&#x11f;" horiz-adv-x="620" 
d="M298 -162q-70 0 -120 19t-80.5 53.5t-42.5 79.5l132 9q10 -30 34.5 -47t76.5 -17q59 0 91 26.5t32 82.5v68q-19 -39 -61 -62.5t-94 -23.5q-66 0 -117.5 32.5t-80.5 91t-29 135.5t28.5 135.5t79.5 92t117 33.5q58 0 100 -26t61 -69v83h125v-487q0 -68 -31.5 -115
t-88 -70.5t-132.5 -23.5zM296 126q57 0 91 42.5t35 117.5q1 50 -14.5 85.5t-44 55t-67.5 19.5q-59 0 -91.5 -43.5t-32.5 -116.5t33.5 -116.5t90.5 -43.5zM300 595q-66 0 -107 37.5t-44 103.5h77q5 -34 24 -49.5t50 -15.5q32 0 51 15.5t23 49.5h77q-3 -66 -43 -103.5
t-108 -37.5z" />
    <glyph glyph-name="Gdotaccent" unicode="&#x120;" horiz-adv-x="726" 
d="M367 -16q-101 0 -174 47.5t-111.5 130.5t-38.5 192q0 107 39.5 191t113.5 132.5t178 48.5q90 0 151.5 -31t98.5 -86t52 -127l-136 -7q-11 63 -49.5 100.5t-115.5 37.5q-68 0 -111.5 -35t-65 -93.5t-21.5 -130.5q0 -74 21 -132t65.5 -91.5t112.5 -33.5q53 0 91 22t60 60.5
t24 85.5h-175v101h302v-366h-84l-8 156l16 -10q-11 -48 -44.5 -84.5t-83 -57t-107.5 -20.5zM308 781v114h133v-114h-133z" />
    <glyph glyph-name="gdotaccent" unicode="&#x121;" horiz-adv-x="620" 
d="M298 -162q-70 0 -120 19t-80.5 53.5t-42.5 79.5l132 9q10 -30 34.5 -47t76.5 -17q59 0 91 26.5t32 82.5v68q-19 -39 -61 -62.5t-94 -23.5q-66 0 -117.5 32.5t-80.5 91t-29 135.5t28.5 135.5t79.5 92t117 33.5q58 0 100 -26t61 -69v83h125v-487q0 -68 -31.5 -115
t-88 -70.5t-132.5 -23.5zM296 126q57 0 91 42.5t35 117.5q1 50 -14.5 85.5t-44 55t-67.5 19.5q-59 0 -91.5 -43.5t-32.5 -116.5t33.5 -116.5t90.5 -43.5zM234 605v114h133v-114h-133z" />
    <glyph glyph-name="uni0122" unicode="&#x122;" horiz-adv-x="726" 
d="M367 -16q-101 0 -174 47.5t-111.5 130.5t-38.5 192q0 107 39.5 191t113.5 132.5t178 48.5q90 0 151.5 -31t98.5 -86t52 -127l-136 -7q-11 63 -49.5 100.5t-115.5 37.5q-68 0 -111.5 -35t-65 -93.5t-21.5 -130.5q0 -74 21 -132t65.5 -91.5t112.5 -33.5q53 0 91 22t60 60.5
t24 85.5h-175v101h302v-366h-84l-8 156l16 -10q-11 -48 -44.5 -84.5t-83 -57t-107.5 -20.5zM300 -249l53 91h-35v108h120v-97l-60 -102h-78z" />
    <glyph glyph-name="uni0123" unicode="&#x123;" horiz-adv-x="620" 
d="M298 -162q-70 0 -120 19t-80.5 53.5t-42.5 79.5l132 9q10 -30 34.5 -47t76.5 -17q59 0 91 26.5t32 82.5v68q-19 -39 -61 -62.5t-94 -23.5q-66 0 -117.5 32.5t-80.5 91t-29 135.5t28.5 135.5t79.5 92t117 33.5q58 0 100 -26t61 -69v83h125v-487q0 -68 -31.5 -115
t-88 -70.5t-132.5 -23.5zM296 126q57 0 91 42.5t35 117.5q1 50 -14.5 85.5t-44 55t-67.5 19.5q-59 0 -91.5 -43.5t-32.5 -116.5t33.5 -116.5t90.5 -43.5zM240 595v98l60 101h78l-53 -91h35v-108h-120z" />
    <glyph glyph-name="Hcircumflex" unicode="&#x124;" horiz-adv-x="719" 
d="M80 0v710h130v-339l-60 43h418l-59 -43v339h130v-710h-130v343l59 -42h-418l60 42v-343h-130zM201 770l94 146h128l94 -146h-93l-77 106h24l-77 -106h-93z" />
    <glyph glyph-name="hcircumflex" unicode="&#x125;" horiz-adv-x="601" 
d="M70 0v710h128v-298h-16q8 46 32 75.5t59 44t77 14.5q59 0 99.5 -25.5t61 -71.5t20.5 -106v-343h-128v312q0 65 -22 97.5t-69 32.5q-52 0 -83 -34t-31 -99v-309h-128zM-22 750l94 146h128l94 -146h-93l-77 106h24l-77 -106h-93z" />
    <glyph glyph-name="Hbar" unicode="&#x126;" horiz-adv-x="719" 
d="M80 0v710h130v-339l-60 43h418l-59 -43v339h130v-710h-130v343l59 -42h-418l60 42v-343h-130zM7 522v101h704v-101h-704z" />
    <glyph glyph-name="hbar" unicode="&#x127;" horiz-adv-x="601" 
d="M70 0v710h128v-298h-16q8 46 32 75.5t59 44t77 14.5q59 0 99.5 -25.5t61 -71.5t20.5 -106v-343h-128v312q0 65 -22 97.5t-69 32.5q-52 0 -83 -34t-31 -99v-309h-128zM2 578v81h332v-81h-332z" />
    <glyph glyph-name="Itilde" unicode="&#x128;" horiz-adv-x="290" 
d="M80 0v710h130v-710h-130zM202 780q-21 0 -38 6.5t-36 21.5q-13 11 -22 16t-21 5q-15 0 -26 -11.5t-14 -44.5h-67q1 64 29.5 99t76.5 35q24 0 42.5 -7t36.5 -22q14 -11 23.5 -15.5t19.5 -4.5q16 0 26 12t12 46h68q-2 -64 -30.5 -100t-79.5 -36z" />
    <glyph glyph-name="itilde" unicode="&#x129;" horiz-adv-x="269" 
d="M70 0v534h128v-534h-128zM191 604q-21 0 -38 6.5t-36 21.5q-13 11 -22 16t-21 5q-15 0 -26 -11.5t-14 -44.5h-67q1 64 29.5 99t76.5 35q24 0 42.5 -7t36.5 -22q14 -11 23.5 -15.5t19.5 -4.5q16 0 26 12t12 46h68q-2 -64 -30.5 -100t-79.5 -36z" />
    <glyph glyph-name="Imacron" unicode="&#x12a;" horiz-adv-x="290" 
d="M80 0v710h130v-710h-130zM0 789v97h289v-97h-289z" />
    <glyph glyph-name="imacron" unicode="&#x12b;" horiz-adv-x="269" 
d="M70 0v534h128v-534h-128zM-10 613v97h289v-97h-289z" />
    <glyph glyph-name="Iogonek" unicode="&#x12e;" horiz-adv-x="290" 
d="M80 0v710h130v-710h-130zM147 -215q-50 0 -78.5 21t-28.5 60q0 30 17 59t35 55l33 42l85 -22l-32 -42q-16 -22 -23.5 -37.5t-7.5 -27.5q0 -13 8 -19t19 -6q13 0 25.5 3.5t20.5 9.5l26 -70q-12 -10 -40.5 -18t-58.5 -8z" />
    <glyph glyph-name="iogonek" unicode="&#x12f;" horiz-adv-x="269" 
d="M70 0v534h128v-534h-128zM68 605v114h133v-114h-133zM135 -215q-50 0 -78.5 21t-28.5 60q0 30 17 59t35 55l33 42l85 -22l-32 -42q-16 -22 -23.5 -37.5t-7.5 -27.5q0 -13 8 -19t19 -6q13 0 25.5 3.5t20.5 9.5l26 -70q-12 -10 -40.5 -18t-58.5 -8z" />
    <glyph glyph-name="Idotaccent" unicode="&#x130;" horiz-adv-x="290" 
d="M80 0v710h130v-710h-130zM78 781v114h133v-114h-133z" />
    <glyph glyph-name="dotlessi" unicode="&#x131;" horiz-adv-x="269" 
d="M70 0v534h128v-534h-128z" />
    <glyph glyph-name="IJ" unicode="&#x132;" horiz-adv-x="891" 
d="M80 0v710h130v-710h-130zM578 -16q-77 0 -133 33.5t-85.5 93t-30.5 135.5l131 7q2 -78 32.5 -117t85.5 -39q56 0 87 39.5t31 116.5v457h130v-457q0 -82 -31 -142.5t-86.5 -93.5t-130.5 -33z" />
    <glyph glyph-name="ij" unicode="&#x133;" horiz-adv-x="554" 
d="M70 0v534h128v-534h-128zM68 605v114h133v-114h-133zM244 -150v99h53q29 0 44 12.5t15 46.5v526h128v-530q0 -82 -37 -118t-127 -36h-76zM353 605v114h133v-114h-133z" />
    <glyph glyph-name="Jcircumflex" unicode="&#x134;" horiz-adv-x="617" 
d="M304 -16q-77 0 -133 33.5t-85.5 93t-30.5 135.5l131 7q2 -78 32.5 -117t85.5 -39q56 0 87 39.5t31 116.5v457h130v-457q0 -82 -31 -142.5t-86.5 -93.5t-130.5 -33zM330 770l94 146h128l94 -146h-93l-77 106h24l-77 -106h-93z" />
    <glyph glyph-name="jcircumflex" unicode="&#x135;" horiz-adv-x="308" 
d="M-3 -150v99h53q29 0 44 12.5t15 46.5v526h128v-530q0 -82 -37 -118t-127 -36h-76zM15 594l94 146h128l94 -146h-93l-77 106h24l-77 -106h-93z" />
    <glyph glyph-name="uni0136" unicode="&#x136;" horiz-adv-x="672" 
d="M80 0v710h130v-324l278 324h154l-266 -312l283 -398h-149l-220 309l-80 -91v-218h-130zM276 -249l53 91h-35v108h120v-97l-60 -102h-78z" />
    <glyph glyph-name="uni0137" unicode="&#x137;" horiz-adv-x="628" 
d="M70 0v710h128v-417l219 241h158l-209 -222l216 -312h-144l-156 236l-84 -89v-147h-128zM231 -249l53 91h-35v108h120v-97l-60 -102h-78z" />
    <glyph glyph-name="Lacute" unicode="&#x139;" horiz-adv-x="586" 
d="M80 0v710h130v-670l-71 73h408v-113h-467zM87 770l61 140h129l-90 -140h-100z" />
    <glyph glyph-name="lacute" unicode="&#x13a;" horiz-adv-x="297" 
d="M198 0q-58 0 -93 30t-35 96v584h128v-571q0 -20 10.5 -30t29.5 -10h39v-99h-79zM76 742l61 140h129l-90 -140h-100z" />
    <glyph glyph-name="uni013B" unicode="&#x13b;" horiz-adv-x="586" 
d="M80 0v710h130v-670l-71 73h408v-113h-467zM235 -249l53 91h-35v108h120v-97l-60 -102h-78z" />
    <glyph glyph-name="uni013C" unicode="&#x13c;" horiz-adv-x="297" 
d="M198 0q-58 0 -93 30t-35 96v584h128v-571q0 -20 10.5 -30t29.5 -10h39v-99h-79zM99 -249l53 91h-35v108h120v-97l-60 -102h-78z" />
    <glyph glyph-name="Lcaron" unicode="&#x13d;" horiz-adv-x="586" 
d="M80 0v710h130v-670l-71 73h408v-113h-467zM388 434l29 276h115l-54 -276h-90z" />
    <glyph glyph-name="lcaron" unicode="&#x13e;" horiz-adv-x="366" 
d="M198 0q-58 0 -93 30t-35 96v584h128v-571q0 -20 10.5 -30t29.5 -10h39v-99h-79zM250 434l29 276h115l-54 -276h-90z" />
    <glyph glyph-name="Lslash" unicode="&#x141;" horiz-adv-x="586" 
d="M80 0v710h130v-670l-71 73h408v-113h-467zM10 249v94l341 168v-93z" />
    <glyph glyph-name="lslash" unicode="&#x142;" horiz-adv-x="297" 
d="M198 0q-58 0 -93 30t-35 96v584h128v-571q0 -20 10.5 -30t29.5 -10h39v-99h-79zM4 291v88l280 120v-88z" />
    <glyph glyph-name="Nacute" unicode="&#x143;" horiz-adv-x="748" 
d="M80 0v710h152l306 -534v534h130v-710h-156l-302 519v-519h-130zM325 770l61 140h129l-90 -140h-100z" />
    <glyph glyph-name="nacute" unicode="&#x144;" horiz-adv-x="601" 
d="M70 0v534h116l5 -150l-15 6q8 56 33 90t61 50t79 16q59 0 99.5 -26t61.5 -71.5t21 -105.5v-343h-128v302q0 45 -9 76t-29.5 47.5t-54.5 16.5q-51 0 -81.5 -36t-30.5 -104v-302h-128zM243 594l61 140h129l-90 -140h-100z" />
    <glyph glyph-name="uni0145" unicode="&#x145;" horiz-adv-x="748" 
d="M80 0v710h152l306 -534v534h130v-710h-156l-302 519v-519h-130zM295 -249l53 91h-35v108h120v-97l-60 -102h-78z" />
    <glyph glyph-name="uni0146" unicode="&#x146;" horiz-adv-x="601" 
d="M70 0v534h116l5 -150l-15 6q8 56 33 90t61 50t79 16q59 0 99.5 -26t61.5 -71.5t21 -105.5v-343h-128v302q0 45 -9 76t-29.5 47.5t-54.5 16.5q-51 0 -81.5 -36t-30.5 -104v-302h-128zM223 -249l53 91h-35v108h120v-97l-60 -102h-78z" />
    <glyph glyph-name="Ncaron" unicode="&#x147;" horiz-adv-x="748" 
d="M80 0v710h152l306 -534v534h130v-710h-156l-302 519v-519h-130zM225 916h93l77 -107h-24l77 107h93l-94 -146h-128z" />
    <glyph glyph-name="ncaron" unicode="&#x148;" horiz-adv-x="601" 
d="M70 0v534h116l5 -150l-15 6q8 56 33 90t61 50t79 16q59 0 99.5 -26t61.5 -71.5t21 -105.5v-343h-128v302q0 45 -9 76t-29.5 47.5t-54.5 16.5q-51 0 -81.5 -36t-30.5 -104v-302h-128zM143 740h93l77 -107h-24l77 107h93l-94 -146h-128z" />
    <glyph glyph-name="Eng" unicode="&#x14a;" horiz-adv-x="748" 
d="M80 0v710h152l306 -534v534h130v-710h-156l-302 519v-519h-130zM389 -158v96h98q28 0 42 13.5t14 40.5v111h125v-109q0 -70 -41 -111t-117 -41h-121z" />
    <glyph glyph-name="eng" unicode="&#x14b;" horiz-adv-x="601" 
d="M274 -150v92h67q29 0 45.5 16.5t16.5 45.5v105h128v-113q0 -42 -20 -75.5t-56.5 -52t-86.5 -18.5h-94zM70 0v534h116l5 -150l-15 6q8 56 33 90t61 50t79 16q59 0 99.5 -26t61.5 -71.5t21 -105.5v-343h-128v302q0 45 -9 76t-29.5 47.5t-54.5 16.5q-51 0 -81.5 -36
t-30.5 -104v-302h-128z" />
    <glyph glyph-name="Omacron" unicode="&#x14c;" horiz-adv-x="763" 
d="M381 -16q-105 0 -181 44.5t-116.5 127.5t-40.5 198t40.5 198.5t116.5 128.5t181 45q107 0 182.5 -45t116 -128.5t40.5 -198.5t-40.5 -198t-116 -127.5t-182.5 -44.5zM381 97q65 0 110.5 30.5t70 88t24.5 138.5t-24.5 139t-70 89t-110.5 31q-63 0 -109 -31t-70.5 -89
t-24.5 -139t24.5 -138.5t70.5 -88t109 -30.5zM237 789v97h289v-97h-289z" />
    <glyph glyph-name="omacron" unicode="&#x14d;" horiz-adv-x="603" 
d="M302 -12q-79 0 -138.5 34.5t-92 97.5t-32.5 147q0 85 32.5 147.5t92 97t138.5 34.5t138 -34.5t91.5 -97t32.5 -147.5q0 -84 -32.5 -147t-91.5 -97.5t-138 -34.5zM302 92q62 0 95.5 46t33.5 129q0 82 -33.5 128.5t-95.5 46.5t-96 -46.5t-34 -128.5q0 -83 34 -129t96 -46z
M157 613v97h289v-97h-289z" />
    <glyph glyph-name="Ohungarumlaut" unicode="&#x150;" horiz-adv-x="763" 
d="M381 -16q-105 0 -181 44.5t-116.5 127.5t-40.5 198t40.5 198.5t116.5 128.5t181 45q107 0 182.5 -45t116 -128.5t40.5 -198.5t-40.5 -198t-116 -127.5t-182.5 -44.5zM381 97q65 0 110.5 30.5t70 88t24.5 138.5t-24.5 139t-70 89t-110.5 31q-63 0 -109 -31t-70.5 -89
t-24.5 -139t24.5 -138.5t70.5 -88t109 -30.5zM249 770l61 140h129l-90 -140h-100zM411 770l61 140h129l-90 -140h-100z" />
    <glyph glyph-name="ohungarumlaut" unicode="&#x151;" horiz-adv-x="603" 
d="M302 -12q-79 0 -138.5 34.5t-92 97.5t-32.5 147q0 85 32.5 147.5t92 97t138.5 34.5t138 -34.5t91.5 -97t32.5 -147.5q0 -84 -32.5 -147t-91.5 -97.5t-138 -34.5zM302 92q62 0 95.5 46t33.5 129q0 82 -33.5 128.5t-95.5 46.5t-96 -46.5t-34 -128.5q0 -83 34 -129t96 -46z
M170 594l61 140h129l-90 -140h-100zM331 594l61 140h129l-90 -140h-100z" />
    <glyph glyph-name="OE" unicode="&#x152;" horiz-adv-x="1109" 
d="M380 -16q-104 0 -179.5 45.5t-116.5 128.5t-41 196q0 114 41 197.5t116.5 129t179.5 45.5q72 0 128 -24.5t94 -71.5v80h450v-113h-320v-185h308v-112h-308v-187h328v-113h-458v79q-38 -45 -94 -70t-128 -25zM380 97q71 0 116 33.5t67 91.5t22 132t-22 132.5t-67 92.5
t-116 34q-68 0 -113 -34t-67.5 -92.5t-22.5 -132.5t22.5 -132t67.5 -91.5t113 -33.5z" />
    <glyph glyph-name="oe" unicode="&#x153;" horiz-adv-x="984" 
d="M302 -12q-79 0 -138.5 34.5t-92 97.5t-32.5 147q0 85 32.5 147.5t92 97t138.5 34.5t138 -34.5t91.5 -97t32.5 -147.5q0 -84 -32.5 -147t-91.5 -97.5t-138 -34.5zM302 92q62 0 95.5 46t33.5 129q0 82 -33.5 128.5t-95.5 46.5t-96 -46.5t-34 -128.5q0 -83 34 -129t96 -46z
M695 -12q-80 0 -139 34.5t-91 97.5t-32 147t32 146.5t90.5 97.5t136.5 35q76 0 133.5 -34t88.5 -98t31 -154v-29h-379q4 -70 38.5 -105.5t91.5 -35.5q43 0 71.5 19.5t39.5 54.5l131 -8q-22 -78 -86.5 -123t-156.5 -45zM566 317h247q-4 65 -37 96.5t-84 31.5t-84.5 -33
t-41.5 -95z" />
    <glyph glyph-name="Racute" unicode="&#x154;" horiz-adv-x="689" 
d="M80 0v710h297q77 0 133 -26t87 -74t31 -113q0 -49 -21 -87t-56.5 -61t-78.5 -28l-5 10q69 0 106.5 -31t42.5 -95l18 -205h-132l-15 186q-3 42 -27 62t-80 20h-170v-268h-130zM210 382h159q59 0 92 28t33 79q0 52 -33.5 80t-97.5 28h-153v-215zM284 770l61 140h129
l-90 -140h-100z" />
    <glyph glyph-name="racute" unicode="&#x155;" horiz-adv-x="409" 
d="M70 0v534h120l5 -148l-11 2q12 77 45.5 111.5t91.5 34.5h49v-110h-50q-41 0 -68 -12t-40.5 -37.5t-13.5 -66.5v-308h-128zM162 594l61 140h129l-90 -140h-100z" />
    <glyph glyph-name="uni0156" unicode="&#x156;" horiz-adv-x="689" 
d="M80 0v710h297q77 0 133 -26t87 -74t31 -113q0 -49 -21 -87t-56.5 -61t-78.5 -28l-5 10q69 0 106.5 -31t42.5 -95l18 -205h-132l-15 186q-3 42 -27 62t-80 20h-170v-268h-130zM210 382h159q59 0 92 28t33 79q0 52 -33.5 80t-97.5 28h-153v-215zM279 -249l53 91h-35v108
h120v-97l-60 -102h-78z" />
    <glyph glyph-name="uni0157" unicode="&#x157;" horiz-adv-x="409" 
d="M70 0v534h120l5 -148l-11 2q12 77 45.5 111.5t91.5 34.5h49v-110h-50q-41 0 -68 -12t-40.5 -37.5t-13.5 -66.5v-308h-128zM56 -249l53 91h-35v108h120v-97l-60 -102h-78z" />
    <glyph glyph-name="Rcaron" unicode="&#x158;" horiz-adv-x="689" 
d="M80 0v710h297q77 0 133 -26t87 -74t31 -113q0 -49 -21 -87t-56.5 -61t-78.5 -28l-5 10q69 0 106.5 -31t42.5 -95l18 -205h-132l-15 186q-3 42 -27 62t-80 20h-170v-268h-130zM210 382h159q59 0 92 28t33 79q0 52 -33.5 80t-97.5 28h-153v-215zM184 916h93l77 -107h-24
l77 107h93l-94 -146h-128z" />
    <glyph glyph-name="rcaron" unicode="&#x159;" horiz-adv-x="409" 
d="M70 0v534h120l5 -148l-11 2q12 77 45.5 111.5t91.5 34.5h49v-110h-50q-41 0 -68 -12t-40.5 -37.5t-13.5 -66.5v-308h-128zM62 740h93l77 -107h-24l77 107h93l-94 -146h-128z" />
    <glyph glyph-name="Sacute" unicode="&#x15a;" horiz-adv-x="668" 
d="M348 -16q-88 0 -152 31t-100.5 86.5t-42.5 129.5l132 8q6 -46 26.5 -78t55 -48.5t83.5 -16.5q42 0 71.5 10.5t45 31t15.5 50.5q0 27 -13 48.5t-50 39t-110 34.5q-88 20 -141 45.5t-77 64t-24 96.5q0 62 31 109.5t88 74t137 26.5q85 0 144 -30.5t93 -83.5t42 -122l-131 -6
q-5 39 -23.5 68t-50 45.5t-76.5 16.5q-56 0 -88.5 -25.5t-32.5 -67.5q0 -29 13.5 -48t48.5 -32.5t98 -28.5q95 -20 151 -51t80 -72t24 -94q0 -65 -33 -112.5t-93 -73t-141 -25.5zM266 770l61 140h129l-90 -140h-100z" />
    <glyph glyph-name="sacute" unicode="&#x15b;" horiz-adv-x="553" 
d="M287 -12q-81 0 -134.5 23t-81.5 64t-32 93l131 6q7 -42 34 -65t84 -23q45 0 68.5 14.5t23.5 45.5q0 18 -8.5 30t-33 21t-71.5 18q-81 14 -127 34.5t-64.5 51.5t-18.5 77q0 75 57.5 121.5t168.5 46.5q77 0 126.5 -24.5t75 -65t29.5 -90.5l-130 -6q-1 25 -12 45t-33 31.5
t-58 11.5q-45 0 -68.5 -18t-23.5 -48q0 -21 9.5 -35t32.5 -22.5t63 -15.5q82 -12 130 -33t68.5 -52.5t20.5 -75.5q0 -77 -61.5 -118.5t-164.5 -41.5zM219 594l61 140h129l-90 -140h-100z" />
    <glyph glyph-name="Scircumflex" unicode="&#x15c;" horiz-adv-x="668" 
d="M348 -16q-88 0 -152 31t-100.5 86.5t-42.5 129.5l132 8q6 -46 26.5 -78t55 -48.5t83.5 -16.5q42 0 71.5 10.5t45 31t15.5 50.5q0 27 -13 48.5t-50 39t-110 34.5q-88 20 -141 45.5t-77 64t-24 96.5q0 62 31 109.5t88 74t137 26.5q85 0 144 -30.5t93 -83.5t42 -122l-131 -6
q-5 39 -23.5 68t-50 45.5t-76.5 16.5q-56 0 -88.5 -25.5t-32.5 -67.5q0 -29 13.5 -48t48.5 -32.5t98 -28.5q95 -20 151 -51t80 -72t24 -94q0 -65 -33 -112.5t-93 -73t-141 -25.5zM166 770l94 146h128l94 -146h-93l-77 106h24l-77 -106h-93z" />
    <glyph glyph-name="scircumflex" unicode="&#x15d;" horiz-adv-x="553" 
d="M287 -12q-81 0 -134.5 23t-81.5 64t-32 93l131 6q7 -42 34 -65t84 -23q45 0 68.5 14.5t23.5 45.5q0 18 -8.5 30t-33 21t-71.5 18q-81 14 -127 34.5t-64.5 51.5t-18.5 77q0 75 57.5 121.5t168.5 46.5q77 0 126.5 -24.5t75 -65t29.5 -90.5l-130 -6q-1 25 -12 45t-33 31.5
t-58 11.5q-45 0 -68.5 -18t-23.5 -48q0 -21 9.5 -35t32.5 -22.5t63 -15.5q82 -12 130 -33t68.5 -52.5t20.5 -75.5q0 -77 -61.5 -118.5t-164.5 -41.5zM119 594l94 146h128l94 -146h-93l-77 106h24l-77 -106h-93z" />
    <glyph glyph-name="Scedilla" unicode="&#x15e;" horiz-adv-x="668" 
d="M348 -16q-88 0 -152 31t-100.5 86.5t-42.5 129.5l132 8q6 -46 26.5 -78t55 -48.5t83.5 -16.5q42 0 71.5 10.5t45 31t15.5 50.5q0 27 -13 48.5t-50 39t-110 34.5q-88 20 -141 45.5t-77 64t-24 96.5q0 62 31 109.5t88 74t137 26.5q85 0 144 -30.5t93 -83.5t42 -122l-131 -6
q-5 39 -23.5 68t-50 45.5t-76.5 16.5q-56 0 -88.5 -25.5t-32.5 -67.5q0 -29 13.5 -48t48.5 -32.5t98 -28.5q95 -20 151 -51t80 -72t24 -94q0 -65 -33 -112.5t-93 -73t-141 -25.5zM335 -228q-50 0 -81 23t-44 58l61 26q9 -20 23 -30t38 -10t37 10t13 28t-13 29.5t-56 11.5
l-36 35l34 57h79l-30 -43q50 -3 73 -29t23 -64q0 -33 -16 -55.5t-43.5 -34.5t-61.5 -12z" />
    <glyph glyph-name="scedilla" unicode="&#x15f;" horiz-adv-x="553" 
d="M287 -12q-81 0 -134.5 23t-81.5 64t-32 93l131 6q7 -42 34 -65t84 -23q45 0 68.5 14.5t23.5 45.5q0 18 -8.5 30t-33 21t-71.5 18q-81 14 -127 34.5t-64.5 51.5t-18.5 77q0 75 57.5 121.5t168.5 46.5q77 0 126.5 -24.5t75 -65t29.5 -90.5l-130 -6q-1 25 -12 45t-33 31.5
t-58 11.5q-45 0 -68.5 -18t-23.5 -48q0 -21 9.5 -35t32.5 -22.5t63 -15.5q82 -12 130 -33t68.5 -52.5t20.5 -75.5q0 -77 -61.5 -118.5t-164.5 -41.5zM276 -228q-50 0 -81 23t-44 58l61 26q9 -20 23 -30t38 -10t37 10t13 28t-13 29.5t-56 11.5l-36 35l34 57h79l-30 -43
q50 -3 73 -29t23 -64q0 -33 -16 -55.5t-43.5 -34.5t-61.5 -12z" />
    <glyph glyph-name="Scaron" unicode="&#x160;" horiz-adv-x="668" 
d="M348 -16q-88 0 -152 31t-100.5 86.5t-42.5 129.5l132 8q6 -46 26.5 -78t55 -48.5t83.5 -16.5q42 0 71.5 10.5t45 31t15.5 50.5q0 27 -13 48.5t-50 39t-110 34.5q-88 20 -141 45.5t-77 64t-24 96.5q0 62 31 109.5t88 74t137 26.5q85 0 144 -30.5t93 -83.5t42 -122l-131 -6
q-5 39 -23.5 68t-50 45.5t-76.5 16.5q-56 0 -88.5 -25.5t-32.5 -67.5q0 -29 13.5 -48t48.5 -32.5t98 -28.5q95 -20 151 -51t80 -72t24 -94q0 -65 -33 -112.5t-93 -73t-141 -25.5zM166 916h93l77 -107h-24l77 107h93l-94 -146h-128z" />
    <glyph glyph-name="scaron" unicode="&#x161;" horiz-adv-x="553" 
d="M287 -12q-81 0 -134.5 23t-81.5 64t-32 93l131 6q7 -42 34 -65t84 -23q45 0 68.5 14.5t23.5 45.5q0 18 -8.5 30t-33 21t-71.5 18q-81 14 -127 34.5t-64.5 51.5t-18.5 77q0 75 57.5 121.5t168.5 46.5q77 0 126.5 -24.5t75 -65t29.5 -90.5l-130 -6q-1 25 -12 45t-33 31.5
t-58 11.5q-45 0 -68.5 -18t-23.5 -48q0 -21 9.5 -35t32.5 -22.5t63 -15.5q82 -12 130 -33t68.5 -52.5t20.5 -75.5q0 -77 -61.5 -118.5t-164.5 -41.5zM119 740h93l77 -107h-24l77 107h93l-94 -146h-128z" />
    <glyph glyph-name="uni0162" unicode="&#x162;" horiz-adv-x="584" 
d="M227 0v597h-216v113h561v-113h-215v-597h-130zM285 -228q-50 0 -81 23t-44 58l61 26q9 -20 23 -30t38 -10t37 10t13 28t-13 29.5t-56 11.5l-36 35l34 57h79l-30 -43q50 -3 73 -29t23 -64q0 -33 -16 -55.5t-43.5 -34.5t-61.5 -12z" />
    <glyph glyph-name="uni0163" unicode="&#x163;" horiz-adv-x="427" 
d="M284 0q-80 0 -117.5 37t-37.5 116v506h128v-494q0 -37 16 -51.5t50 -14.5h75v-99h-114zM45 435v99h353v-99h-353zM245 -228q-50 0 -81 23t-44 58l61 26q9 -20 23 -30t38 -10t37 10t13 28t-13 29.5t-56 11.5l-36 35l34 57h79l-30 -43q50 -3 73 -29t23 -64q0 -33 -16 -55.5
t-43.5 -34.5t-61.5 -12z" />
    <glyph glyph-name="Tcaron" unicode="&#x164;" horiz-adv-x="584" 
d="M227 0v597h-216v113h561v-113h-215v-597h-130zM134 916h93l77 -107h-24l77 107h93l-94 -146h-128z" />
    <glyph glyph-name="tcaron" unicode="&#x165;" horiz-adv-x="433" 
d="M314 556l29 226h108l-54 -226h-83zM284 0q-80 0 -117.5 37t-37.5 116v506h128v-494q0 -37 16 -51.5t50 -14.5h75v-99h-114zM45 435v99h353v-99h-353z" />
    <glyph glyph-name="Tbar" unicode="&#x166;" horiz-adv-x="584" 
d="M227 0v597h-216v113h561v-113h-215v-597h-130zM98 282v103h388v-103h-388z" />
    <glyph glyph-name="tbar" unicode="&#x167;" horiz-adv-x="427" 
d="M284 0q-80 0 -117.5 37t-37.5 116v506h128v-494q0 -37 16 -51.5t50 -14.5h75v-99h-114zM45 435v99h353v-99h-353zM48 245v81h338v-81h-338z" />
    <glyph glyph-name="Utilde" unicode="&#x168;" horiz-adv-x="699" 
d="M349 -16q-86 0 -150.5 33t-99 93.5t-34.5 143.5v456h130v-456q0 -75 40 -116t114 -41t114.5 41t40.5 116v456h130v-456q0 -83 -35 -143.5t-98.5 -93.5t-151.5 -33zM406 780q-21 0 -38 6.5t-36 21.5q-13 11 -22 16t-21 5q-15 0 -26 -11.5t-14 -44.5h-67q1 64 29.5 99
t76.5 35q24 0 42.5 -7t36.5 -22q14 -11 23.5 -15.5t19.5 -4.5q16 0 26 12t12 46h68q-2 -64 -30.5 -100t-79.5 -36z" />
    <glyph glyph-name="utilde" unicode="&#x169;" horiz-adv-x="597" 
d="M246 -12q-81 0 -128.5 53.5t-47.5 148.5v344h128v-312q0 -67 22.5 -98.5t68.5 -31.5q52 0 80.5 34.5t28.5 100.5v307h128v-534h-117l-3 147l16 -5q-12 -76 -57 -115t-119 -39zM344 604q-21 0 -38 6.5t-36 21.5q-13 11 -22 16t-21 5q-15 0 -26 -11.5t-14 -44.5h-67
q1 64 29.5 99t76.5 35q24 0 42.5 -7t36.5 -22q14 -11 23.5 -15.5t19.5 -4.5q16 0 26 12t12 46h68q-2 -64 -30.5 -100t-79.5 -36z" />
    <glyph glyph-name="Umacron" unicode="&#x16a;" horiz-adv-x="699" 
d="M349 -16q-86 0 -150.5 33t-99 93.5t-34.5 143.5v456h130v-456q0 -75 40 -116t114 -41t114.5 41t40.5 116v456h130v-456q0 -83 -35 -143.5t-98.5 -93.5t-151.5 -33zM205 789v97h289v-97h-289z" />
    <glyph glyph-name="umacron" unicode="&#x16b;" horiz-adv-x="597" 
d="M246 -12q-81 0 -128.5 53.5t-47.5 148.5v344h128v-312q0 -67 22.5 -98.5t68.5 -31.5q52 0 80.5 34.5t28.5 100.5v307h128v-534h-117l-3 147l16 -5q-12 -76 -57 -115t-119 -39zM151 613v97h289v-97h-289z" />
    <glyph glyph-name="Ubreve" unicode="&#x16c;" horiz-adv-x="699" 
d="M349 -16q-86 0 -150.5 33t-99 93.5t-34.5 143.5v456h130v-456q0 -75 40 -116t114 -41t114.5 41t40.5 116v456h130v-456q0 -83 -35 -143.5t-98.5 -93.5t-151.5 -33zM349 771q-66 0 -107 37.5t-44 103.5h77q5 -34 24 -49.5t50 -15.5q32 0 51 15.5t23 49.5h77
q-3 -66 -43 -103.5t-108 -37.5z" />
    <glyph glyph-name="ubreve" unicode="&#x16d;" horiz-adv-x="597" 
d="M246 -12q-81 0 -128.5 53.5t-47.5 148.5v344h128v-312q0 -67 22.5 -98.5t68.5 -31.5q52 0 80.5 34.5t28.5 100.5v307h128v-534h-117l-3 147l16 -5q-12 -76 -57 -115t-119 -39zM295 595q-66 0 -107 37.5t-44 103.5h77q5 -34 24 -49.5t50 -15.5q32 0 51 15.5t23 49.5h77
q-3 -66 -43 -103.5t-108 -37.5z" />
    <glyph glyph-name="Uring" unicode="&#x16e;" horiz-adv-x="699" 
d="M349 -16q-86 0 -150.5 33t-99 93.5t-34.5 143.5v456h130v-456q0 -75 40 -116t114 -41t114.5 41t40.5 116v456h130v-456q0 -83 -35 -143.5t-98.5 -93.5t-151.5 -33zM350 751q-42 0 -71 28.5t-29 70.5t28.5 70t71.5 28q42 0 70.5 -28t28.5 -70t-28.5 -70.5t-70.5 -28.5z
M349 811q17 0 28 11t11 28q0 16 -11 27t-28 11q-16 0 -27 -11t-11 -27q0 -17 11 -28t27 -11z" />
    <glyph glyph-name="uring" unicode="&#x16f;" horiz-adv-x="597" 
d="M246 -12q-81 0 -128.5 53.5t-47.5 148.5v344h128v-312q0 -67 22.5 -98.5t68.5 -31.5q52 0 80.5 34.5t28.5 100.5v307h128v-534h-117l-3 147l16 -5q-12 -76 -57 -115t-119 -39zM296 575q-42 0 -71 28.5t-29 70.5t28.5 70t71.5 28q42 0 70.5 -28t28.5 -70t-28.5 -70.5
t-70.5 -28.5zM295 635q17 0 28 11t11 28q0 16 -11 27t-28 11q-16 0 -27 -11t-11 -27q0 -17 11 -28t27 -11z" />
    <glyph glyph-name="Uhungarumlaut" unicode="&#x170;" horiz-adv-x="699" 
d="M349 -16q-86 0 -150.5 33t-99 93.5t-34.5 143.5v456h130v-456q0 -75 40 -116t114 -41t114.5 41t40.5 116v456h130v-456q0 -83 -35 -143.5t-98.5 -93.5t-151.5 -33zM217 770l61 140h129l-90 -140h-100zM379 770l61 140h129l-90 -140h-100z" />
    <glyph glyph-name="uhungarumlaut" unicode="&#x171;" horiz-adv-x="597" 
d="M246 -12q-81 0 -128.5 53.5t-47.5 148.5v344h128v-312q0 -67 22.5 -98.5t68.5 -31.5q52 0 80.5 34.5t28.5 100.5v307h128v-534h-117l-3 147l16 -5q-12 -76 -57 -115t-119 -39zM163 594l61 140h129l-90 -140h-100zM325 594l61 140h129l-90 -140h-100z" />
    <glyph glyph-name="Uogonek" unicode="&#x172;" horiz-adv-x="699" 
d="M349 -16q-86 0 -150.5 33t-99 93.5t-34.5 143.5v456h130v-456q0 -75 40 -116t114 -41t114.5 41t40.5 116v456h130v-456q0 -83 -35 -143.5t-98.5 -93.5t-151.5 -33zM400 -213q-50 0 -78.5 21t-28.5 60q0 30 17 59t35 55l33 42l85 -22l-32 -42q-16 -22 -23.5 -37.5
t-7.5 -27.5q0 -13 8 -19t19 -6q13 0 25.5 3.5t20.5 9.5l26 -70q-12 -10 -40.5 -18t-58.5 -8z" />
    <glyph glyph-name="uogonek" unicode="&#x173;" horiz-adv-x="597" 
d="M246 -12q-81 0 -128.5 53.5t-47.5 148.5v344h128v-312q0 -67 22.5 -98.5t68.5 -31.5q52 0 80.5 34.5t28.5 100.5v307h128v-534h-117l-3 147l16 -5q-12 -76 -57 -115t-119 -39zM463 -215q-50 0 -78.5 21t-28.5 60q0 30 17 59t35 55l33 42l85 -22l-32 -42
q-16 -22 -23.5 -37.5t-7.5 -27.5q0 -13 8 -19t19 -6q13 0 25.5 3.5t20.5 9.5l26 -70q-12 -10 -40.5 -18t-58.5 -8z" />
    <glyph glyph-name="Wcircumflex" unicode="&#x174;" horiz-adv-x="991" 
d="M227 0l-190 710h137l130 -530l131 530h121l131 -530l129 530h138l-190 -710h-144l-124 486l-124 -486h-145zM338 770l94 146h128l94 -146h-93l-77 106h24l-77 -106h-93z" />
    <glyph glyph-name="wcircumflex" unicode="&#x175;" horiz-adv-x="839" 
d="M182 0l-161 534h131l104 -389l107 389h112l108 -389l104 389h131l-161 -534h-132l-106 358l-105 -358h-132zM262 594l94 146h128l94 -146h-93l-77 106h24l-77 -106h-93z" />
    <glyph glyph-name="Ycircumflex" unicode="&#x176;" horiz-adv-x="613" 
d="M241 0v280l-248 430h146l168 -302l167 302h146l-248 -430v-280h-131zM149 770l94 146h128l94 -146h-93l-77 106h24l-77 -106h-93z" />
    <glyph glyph-name="ycircumflex" unicode="&#x177;" horiz-adv-x="570" 
d="M108 -150v99h68q26 0 38.5 8t19.5 27l15 37h-37l-191 513h133l134 -393l128 393h133l-209 -590q-18 -50 -50.5 -72t-90.5 -22h-91zM128 594l94 146h128l94 -146h-93l-77 106h24l-77 -106h-93z" />
    <glyph glyph-name="Ydieresis" unicode="&#x178;" horiz-adv-x="613" 
d="M241 0v280l-248 430h146l168 -302l167 302h146l-248 -430v-280h-131zM144 781v114h125v-114h-125zM345 781v114h125v-114h-125z" />
    <glyph glyph-name="Zacute" unicode="&#x179;" horiz-adv-x="577" 
d="M27 0v112l353 485h-338v113h496v-112l-356 -485h368v-113h-523zM239 770l61 140h129l-90 -140h-100z" />
    <glyph glyph-name="zacute" unicode="&#x17a;" horiz-adv-x="567" 
d="M50 0v106l309 329h-297v99h448v-106l-312 -329h319v-99h-467zM228 594l61 140h129l-90 -140h-100z" />
    <glyph glyph-name="Zdotaccent" unicode="&#x17b;" horiz-adv-x="577" 
d="M27 0v112l353 485h-338v113h496v-112l-356 -485h368v-113h-523zM231 781v114h133v-114h-133z" />
    <glyph glyph-name="zdotaccent" unicode="&#x17c;" horiz-adv-x="567" 
d="M50 0v106l309 329h-297v99h448v-106l-312 -329h319v-99h-467zM220 605v114h133v-114h-133z" />
    <glyph glyph-name="Zcaron" unicode="&#x17d;" horiz-adv-x="577" 
d="M27 0v112l353 485h-338v113h496v-112l-356 -485h368v-113h-523zM139 916h93l77 -107h-24l77 107h93l-94 -146h-128z" />
    <glyph glyph-name="zcaron" unicode="&#x17e;" horiz-adv-x="567" 
d="M50 0v106l309 329h-297v99h448v-106l-312 -329h319v-99h-467zM128 740h93l77 -107h-24l77 107h93l-94 -146h-128z" />
    <glyph glyph-name="uni018F" unicode="&#x18f;" horiz-adv-x="743" 
d="M576 292h-394q10 -65 34 -108.5t62 -65t87 -21.5q59 0 104 27t70.5 80.5t25.5 131.5v27q0 80 -26 135.5t-71.5 85t-103.5 29.5q-36 0 -67 -13t-55.5 -39.5t-40.5 -65.5l-137 9q22 69 64.5 118.5t102.5 76.5t133 27q100 0 175.5 -44t118 -127t42.5 -200q0 -90 -26 -159
t-71.5 -116.5t-106.5 -71.5t-132 -24q-63 0 -121 23t-103 68t-71 113t-26 158v53h537z" />
    <glyph glyph-name="florin" unicode="&#x192;" horiz-adv-x="522" 
d="M50 0v105h62q26 0 41 14.5t18 40.5l45 410q8 67 49.5 104t109.5 36l113 -1v-105h-89q-27 0 -42.5 -14.5t-18.5 -40.5l-46 -410q-7 -67 -48.5 -104t-111.5 -36zM116 416v99h372v-99h-372z" />
    <glyph glyph-name="Ohorn" unicode="&#x1a0;" horiz-adv-x="763" 
d="M381 -16q-105 0 -181 44.5t-116.5 127.5t-40.5 198t40.5 198.5t116.5 128.5t181 45q107 0 182.5 -45t116 -128.5t40.5 -198.5t-40.5 -198t-116 -127.5t-182.5 -44.5zM381 97q65 0 110.5 30.5t70 88t24.5 138.5t-24.5 139t-70 89t-110.5 31q-63 0 -109 -31t-70.5 -89
t-24.5 -139t24.5 -138.5t70.5 -88t109 -30.5zM484 649l-7 61h53q26 0 40.5 12t14.5 40q0 24 -4.5 50.5t-9.5 44.5h101q6 -15 10 -41t4 -52q0 -60 -36 -87.5t-106 -27.5h-60z" />
    <glyph glyph-name="ohorn" unicode="&#x1a1;" horiz-adv-x="603" 
d="M302 -12q-79 0 -138.5 34.5t-92 97.5t-32.5 147q0 85 32.5 147.5t92 97t138.5 34.5t138 -34.5t91.5 -97t32.5 -147.5q0 -84 -32.5 -147t-91.5 -97.5t-138 -34.5zM302 92q62 0 95.5 46t33.5 129q0 82 -33.5 128.5t-95.5 46.5t-96 -46.5t-34 -128.5q0 -83 34 -129t96 -46z
M373 473l-7 61h53q26 0 40.5 12t14.5 40q0 24 -4.5 50.5t-9.5 44.5h101q6 -15 10 -41t4 -52q0 -60 -36 -87.5t-106 -27.5h-60z" />
    <glyph glyph-name="Uhorn" unicode="&#x1af;" horiz-adv-x="699" 
d="M349 -16q-86 0 -150.5 33t-99 93.5t-34.5 143.5v456h130v-456q0 -75 40 -116t114 -41t114.5 41t40.5 116v456h130v-456q0 -83 -35 -143.5t-98.5 -93.5t-151.5 -33zM518 649l-7 61h53q26 0 40.5 12t14.5 40q0 24 -4.5 50.5t-9.5 44.5h101q6 -15 10 -41t4 -52
q0 -60 -36 -87.5t-106 -27.5h-60z" />
    <glyph glyph-name="uhorn" unicode="&#x1b0;" horiz-adv-x="605" 
d="M246 -12q-81 0 -128.5 53.5t-47.5 148.5v344h128v-312q0 -67 22.5 -98.5t68.5 -31.5q52 0 80.5 34.5t28.5 100.5v307h128v-534h-117l-3 147l16 -5q-12 -76 -57 -115t-119 -39zM413 473l-7 61h53q26 0 40.5 12t14.5 40q0 24 -4.5 50.5t-9.5 44.5h101q6 -15 10 -41t4 -52
q0 -60 -36 -87.5t-106 -27.5h-60z" />
    <glyph glyph-name="uni01CD" unicode="&#x1cd;" horiz-adv-x="709" 
d="M19 0l256 710h159l256 -710h-136l-59 168h-281l-59 -168h-136zM252 279h205l-102 300zM197 916h93l77 -107h-24l77 107h93l-94 -146h-128z" />
    <glyph glyph-name="uni01CE" unicode="&#x1ce;" horiz-adv-x="580" 
d="M225 -12q-84 0 -135 38.5t-51 107.5t43 108t131 56l177 35q0 57 -26 85.5t-77 28.5q-46 0 -72.5 -21.5t-36.5 -61.5l-130 6q16 85 78 130.5t161 45.5q114 0 172.5 -57.5t58.5 -164.5v-194q0 -21 7.5 -29t22.5 -8h17v-93q-6 -2 -19.5 -3t-27.5 -1q-33 0 -59 10.5t-40 37
t-14 72.5l11 -8q-8 -35 -34.5 -62.5t-66.5 -42.5t-90 -15zM251 81q43 0 74 17t48 47t17 71v30l-138 -28q-43 -9 -61.5 -26.5t-18.5 -45.5q0 -31 20.5 -48t58.5 -17zM132 740h93l77 -107h-24l77 107h93l-94 -146h-128z" />
    <glyph glyph-name="uni01E4" unicode="&#x1e4;" horiz-adv-x="768" 
d="M376 162v72h354v-72h-354zM374 -16q-109 0 -182.5 49t-111 132.5t-37.5 188.5t39 189t114 133.5t182 49.5q127 0 201.5 -66t96.5 -178l-136 -7q-7 41 -26 72t-52.5 48.5t-85.5 17.5q-69 0 -113 -35t-65 -93.5t-21 -130.5q0 -74 21.5 -132.5t64.5 -91.5t109 -33
q59 0 98 22.5t59.5 64t21.5 98.5h-175v84h302v-43q0 -110 -36.5 -186t-104.5 -114.5t-163 -38.5z" />
    <glyph glyph-name="uni01E5" unicode="&#x1e5;" horiz-adv-x="647" 
d="M264 240v82h352v-82h-352zM298 -162q-70 0 -120 19t-80.5 53.5t-42.5 79.5l132 9q10 -30 34.5 -47t76.5 -17q59 0 91 26.5t32 82.5v68q-19 -39 -61 -62.5t-94 -23.5q-66 0 -117.5 32.5t-80.5 91t-29 135.5t28.5 135.5t79.5 92t117 33.5q58 0 100 -26t61 -69v83h125v-487
q0 -68 -31.5 -115t-88 -70.5t-132.5 -23.5zM296 126q57 0 91 42.5t35 117.5q1 50 -14.5 85.5t-44 55t-67.5 19.5q-59 0 -91.5 -43.5t-32.5 -116.5t33.5 -116.5t90.5 -43.5z" />
    <glyph glyph-name="Gcaron" unicode="&#x1e6;" horiz-adv-x="726" 
d="M367 -16q-101 0 -174 47.5t-111.5 130.5t-38.5 192q0 107 39.5 191t113.5 132.5t178 48.5q90 0 151.5 -31t98.5 -86t52 -127l-136 -7q-11 63 -49.5 100.5t-115.5 37.5q-68 0 -111.5 -35t-65 -93.5t-21.5 -130.5q0 -74 21 -132t65.5 -91.5t112.5 -33.5q53 0 91 22t60 60.5
t24 85.5h-175v101h302v-366h-84l-8 156l16 -10q-11 -48 -44.5 -84.5t-83 -57t-107.5 -20.5zM217 916h93l77 -107h-24l77 107h93l-94 -146h-128z" />
    <glyph glyph-name="gcaron" unicode="&#x1e7;" horiz-adv-x="620" 
d="M298 -162q-70 0 -120 19t-80.5 53.5t-42.5 79.5l132 9q10 -30 34.5 -47t76.5 -17q59 0 91 26.5t32 82.5v68q-19 -39 -61 -62.5t-94 -23.5q-66 0 -117.5 32.5t-80.5 91t-29 135.5t28.5 135.5t79.5 92t117 33.5q58 0 100 -26t61 -69v83h125v-487q0 -68 -31.5 -115
t-88 -70.5t-132.5 -23.5zM296 126q57 0 91 42.5t35 117.5q1 50 -14.5 85.5t-44 55t-67.5 19.5q-59 0 -91.5 -43.5t-32.5 -116.5t33.5 -116.5t90.5 -43.5zM143 740h93l77 -107h-24l77 107h93l-94 -146h-128z" />
    <glyph glyph-name="uni01E8" unicode="&#x1e8;" horiz-adv-x="672" 
d="M80 0v710h130v-324l278 324h154l-266 -312l283 -398h-149l-220 309l-80 -91v-218h-130zM182 916h93l77 -107h-24l77 107h93l-94 -146h-128z" />
    <glyph glyph-name="uni01E9" unicode="&#x1e9;" horiz-adv-x="628" 
d="M70 0v710h128v-417l219 241h158l-209 -222l216 -312h-144l-156 236l-84 -89v-147h-128zM-24 888h93l77 -107h-24l77 107h93l-94 -146h-128z" />
    <glyph glyph-name="uni0218" unicode="&#x218;" horiz-adv-x="668" 
d="M348 -16q-88 0 -152 31t-100.5 86.5t-42.5 129.5l132 8q6 -46 26.5 -78t55 -48.5t83.5 -16.5q42 0 71.5 10.5t45 31t15.5 50.5q0 27 -13 48.5t-50 39t-110 34.5q-88 20 -141 45.5t-77 64t-24 96.5q0 62 31 109.5t88 74t137 26.5q85 0 144 -30.5t93 -83.5t42 -122l-131 -6
q-5 39 -23.5 68t-50 45.5t-76.5 16.5q-56 0 -88.5 -25.5t-32.5 -67.5q0 -29 13.5 -48t48.5 -32.5t98 -28.5q95 -20 151 -51t80 -72t24 -94q0 -65 -33 -112.5t-93 -73t-141 -25.5zM264 -249l53 91h-35v108h120v-97l-60 -102h-78z" />
    <glyph glyph-name="uni0219" unicode="&#x219;" horiz-adv-x="553" 
d="M287 -12q-81 0 -134.5 23t-81.5 64t-32 93l131 6q7 -42 34 -65t84 -23q45 0 68.5 14.5t23.5 45.5q0 18 -8.5 30t-33 21t-71.5 18q-81 14 -127 34.5t-64.5 51.5t-18.5 77q0 75 57.5 121.5t168.5 46.5q77 0 126.5 -24.5t75 -65t29.5 -90.5l-130 -6q-1 25 -12 45t-33 31.5
t-58 11.5q-45 0 -68.5 -18t-23.5 -48q0 -21 9.5 -35t32.5 -22.5t63 -15.5q82 -12 130 -33t68.5 -52.5t20.5 -75.5q0 -77 -61.5 -118.5t-164.5 -41.5zM205 -249l53 91h-35v108h120v-97l-60 -102h-78z" />
    <glyph glyph-name="uni021A" unicode="&#x21a;" horiz-adv-x="584" 
d="M227 0v597h-216v113h561v-113h-215v-597h-130zM214 -249l53 91h-35v108h120v-97l-60 -102h-78z" />
    <glyph glyph-name="uni021B" unicode="&#x21b;" horiz-adv-x="427" 
d="M284 0q-80 0 -117.5 37t-37.5 116v506h128v-494q0 -37 16 -51.5t50 -14.5h75v-99h-114zM45 435v99h353v-99h-353zM174 -249l53 91h-35v108h120v-97l-60 -102h-78z" />
    <glyph glyph-name="uni0237" unicode="&#x237;" horiz-adv-x="308" 
d="M-3 -150v99h53q29 0 44 12.5t15 46.5v526h128v-530q0 -82 -37 -118t-127 -36h-76z" />
    <glyph glyph-name="uni0259" unicode="&#x259;" horiz-adv-x="591" 
d="M290 546q80 0 138.5 -34.5t90.5 -97.5t32 -147t-32 -147t-90 -97.5t-137 -34.5q-76 0 -132.5 34t-88.5 98t-32 154v29h380q-3 71 -38 106t-93 35q-42 0 -70 -19t-40 -55l-131 8q22 78 86.5 123t156.5 45zM419 217h-247q4 -65 37 -96.5t83 -31.5q53 0 86 33t41 95z" />
    <glyph glyph-name="uni02B9" unicode="&#x2b9;" horiz-adv-x="257" 
d="M40 477l41 233h119l-53 -233h-107z" />
    <glyph glyph-name="uni02BC" unicode="&#x2bc;" horiz-adv-x="230" 
d="M55 448l30 262h104l-55 -262h-79z" />
    <glyph glyph-name="circumflex" unicode="&#x2c6;" horiz-adv-x="394" 
d="M39 594l94 146h128l94 -146h-93l-77 106h24l-77 -106h-93z" />
    <glyph glyph-name="caron" unicode="&#x2c7;" horiz-adv-x="394" 
d="M39 740h93l77 -107h-24l77 107h93l-94 -146h-128z" />
    <glyph glyph-name="uni02C8" unicode="&#x2c8;" horiz-adv-x="191" 
d="M56 448l-15 181v81h108v-81l-14 -181h-79z" />
    <glyph glyph-name="breve" unicode="&#x2d8;" horiz-adv-x="380" 
d="M190 595q-66 0 -107 37.5t-44 103.5h77q5 -34 24 -49.5t50 -15.5q32 0 51 15.5t23 49.5h77q-3 -66 -43 -103.5t-108 -37.5z" />
    <glyph glyph-name="dotaccent" unicode="&#x2d9;" horiz-adv-x="211" 
d="M39 605v114h133v-114h-133z" />
    <glyph glyph-name="ring" unicode="&#x2da;" horiz-adv-x="277" 
d="M139 575q-42 0 -71 28.5t-29 70.5t28.5 70t71.5 28q42 0 70.5 -28t28.5 -70t-28.5 -70.5t-70.5 -28.5zM138 635q17 0 28 11t11 28q0 16 -11 27t-28 11q-16 0 -27 -11t-11 -27q0 -17 11 -28t27 -11z" />
    <glyph glyph-name="ogonek" unicode="&#x2db;" horiz-adv-x="285" 
d="M146 -215q-50 0 -78.5 21t-28.5 60q0 30 17 59t35 55l33 42l85 -22l-32 -42q-16 -22 -23.5 -37.5t-7.5 -27.5q0 -13 8 -19t19 -6q13 0 25.5 3.5t20.5 9.5l26 -70q-12 -10 -40.5 -18t-58.5 -8z" />
    <glyph glyph-name="tilde" unicode="&#x2dc;" horiz-adv-x="412" 
d="M263 604q-21 0 -38 6.5t-36 21.5q-13 11 -22 16t-21 5q-15 0 -26 -11.5t-14 -44.5h-67q1 64 29.5 99t76.5 35q24 0 42.5 -7t36.5 -22q14 -11 23.5 -15.5t19.5 -4.5q16 0 26 12t12 46h68q-2 -64 -30.5 -100t-79.5 -36z" />
    <glyph glyph-name="hungarumlaut" unicode="&#x2dd;" horiz-adv-x="430" 
d="M39 594l61 140h129l-90 -140h-100zM201 594l61 140h129l-90 -140h-100z" />
    <glyph glyph-name="gravecomb" unicode="&#x300;" 
d="M129 593l-90 141h129l61 -141h-100z" />
    <glyph glyph-name="acutecomb" unicode="&#x301;" 
d="M39 594l61 140h129l-90 -140h-100z" />
    <glyph glyph-name="uni0302" unicode="&#x302;" 
d="M39 594l94 146h128l94 -146h-93l-77 106h24l-77 -106h-93z" />
    <glyph glyph-name="tildecomb" unicode="&#x303;" 
d="M263 604q-21 0 -38 6.5t-36 21.5q-13 11 -22 16t-21 5q-15 0 -26 -11.5t-14 -44.5h-67q1 64 29.5 99t76.5 35q24 0 42.5 -7t36.5 -22q14 -11 23.5 -15.5t19.5 -4.5q16 0 26 12t12 46h68q-2 -64 -30.5 -100t-79.5 -36z" />
    <glyph glyph-name="uni0304" unicode="&#x304;" 
d="M39 613v97h289v-97h-289z" />
    <glyph glyph-name="uni0306" unicode="&#x306;" 
d="M190 595q-66 0 -107 37.5t-44 103.5h77q5 -34 24 -49.5t50 -15.5q32 0 51 15.5t23 49.5h77q-3 -66 -43 -103.5t-108 -37.5z" />
    <glyph glyph-name="uni0307" unicode="&#x307;" 
d="M39 605v114h133v-114h-133z" />
    <glyph glyph-name="uni0308" unicode="&#x308;" 
d="M39 605v114h125v-114h-125zM240 605v114h125v-114h-125z" />
    <glyph glyph-name="hookabovecomb" unicode="&#x309;" 
d="M161 589h-80q19 20 31 38t12 35q0 13 -8 21.5t-29 8.5q-12 0 -25.5 -2.5t-22.5 -5.5v70q9 2 27 4.5t42 2.5q54 0 76.5 -20.5t22.5 -59.5q0 -34 -15.5 -56t-30.5 -36z" />
    <glyph glyph-name="uni030A" unicode="&#x30a;" 
d="M139 575q-42 0 -71 28.5t-29 70.5t28.5 70t71.5 28q42 0 70.5 -28t28.5 -70t-28.5 -70.5t-70.5 -28.5zM138 635q17 0 28 11t11 28q0 16 -11 27t-28 11q-16 0 -27 -11t-11 -27q0 -17 11 -28t27 -11z" />
    <glyph glyph-name="uni030B" unicode="&#x30b;" 
d="M39 594l61 140h129l-90 -140h-100zM201 594l61 140h129l-90 -140h-100z" />
    <glyph glyph-name="uni030C" unicode="&#x30c;" 
d="M39 740h93l77 -107h-24l77 107h93l-94 -146h-128z" />
    <glyph glyph-name="uni0312" unicode="&#x312;" 
d="M39 595v98l60 101h78l-53 -91h35v-108h-120z" />
    <glyph glyph-name="uni031B" unicode="&#x31b;" 
d="M46 473l-7 61h53q26 0 40.5 12t14.5 40q0 24 -4.5 50.5t-9.5 44.5h101q6 -15 10 -41t4 -52q0 -60 -36 -87.5t-106 -27.5h-60z" />
    <glyph glyph-name="dotbelowcomb" unicode="&#x323;" 
d="M39 -154v103h115v-103h-115z" />
    <glyph glyph-name="uni0326" unicode="&#x326;" 
d="M39 -249l53 91h-35v108h120v-97l-60 -102h-78z" />
    <glyph glyph-name="uni0327" unicode="&#x327;" 
d="M164 -228q-50 0 -81 23t-44 58l61 26q9 -20 23 -30t38 -10t37 10t13 28t-13 29.5t-56 11.5l-36 35l34 57h79l-30 -43q50 -3 73 -29t23 -64q0 -33 -16 -55.5t-43.5 -34.5t-61.5 -12z" />
    <glyph glyph-name="uni0328" unicode="&#x328;" 
d="M146 -215q-50 0 -78.5 21t-28.5 60q0 30 17 59t35 55l33 42l85 -22l-32 -42q-16 -22 -23.5 -37.5t-7.5 -27.5q0 -13 8 -19t19 -6q13 0 25.5 3.5t20.5 9.5l26 -70q-12 -10 -40.5 -18t-58.5 -8z" />
    <glyph glyph-name="uni0335" unicode="&#x335;" 
d="M108 292v81h332v-81h-332z" />
    <glyph glyph-name="uni0336" unicode="&#x336;" 
d="M20 506v101h704v-101h-704z" />
    <glyph glyph-name="uni0337" unicode="&#x337;" 
d="M40 288v88l280 120v-88z" />
    <glyph glyph-name="uni0338" unicode="&#x338;" 
d="M40 -16l392 562h87l-392 -562h-87z" />
    <glyph glyph-name="Lambda" unicode="&#x39b;" horiz-adv-x="703" 
d="M19 0l256 710h153l256 -710h-133l-199 579l-200 -579h-133z" />
    <glyph glyph-name="uni03A9" unicode="&#x3a9;" horiz-adv-x="755" 
d="M45 0v113l142 -1q-43 23 -75.5 62.5t-50.5 92.5t-18 116q0 75 23.5 137.5t67 109t105.5 71.5t138 25q104 0 179 -44t115.5 -121t40.5 -178q0 -63 -17.5 -116t-49.5 -92.5t-76 -62.5l142 1v-113h-289v113q44 2 80 36t56.5 90t20.5 125q0 77 -24 133t-69 86t-109 30
q-63 0 -107.5 -30t-68.5 -86t-24 -133q0 -69 20.5 -125t56 -90t79.5 -36v-113h-288z" />
    <glyph glyph-name="uni03A9" unicode="&#x3c9;" horiz-adv-x="755" 
d="M45 0v113l142 -1q-43 23 -75.5 62.5t-50.5 92.5t-18 116q0 75 23.5 137.5t67 109t105.5 71.5t138 25q104 0 179 -44t115.5 -121t40.5 -178q0 -63 -17.5 -116t-49.5 -92.5t-76 -62.5l142 1v-113h-289v113q44 2 80 36t56.5 90t20.5 125q0 77 -24 133t-69 86t-109 30
q-63 0 -107.5 -30t-68.5 -86t-24 -133q0 -69 20.5 -125t56 -90t79.5 -36v-113h-288z" />
    <glyph glyph-name="lambda" unicode="&#x3bb;" horiz-adv-x="616" 
d="M534 0q-32 0 -55 8t-40.5 25t-33 43.5t-29.5 63.5l-164 409q-13 31 -26 46.5t-42 15.5h-53v99h79q44 0 72.5 -15t50.5 -46t41 -79l163 -409q9 -20 16.5 -34t18.5 -21t29 -7h36v-99h-63zM19 0l219 519l107 -51l-193 -468h-133z" />
    <glyph glyph-name="pi" unicode="&#x3c0;" horiz-adv-x="665" 
d="M595 0q-88 0 -129.5 43.5t-41.5 123.5v330h112v-330q0 -32 16.5 -50t47.5 -18h34v-99h-39zM149 0v495h112v-495h-112zM45 434v100h590v-100h-590z" />
    <glyph glyph-name="uni0400" unicode="&#x400;" horiz-adv-x="615" 
d="M80 0v710h478v-113h-348v-185h336v-112h-336v-187h356v-113h-486zM283 769l-90 141h129l61 -141h-100z" />
    <glyph glyph-name="uni0401" unicode="&#x401;" horiz-adv-x="615" 
d="M80 0v710h478v-113h-348v-185h336v-112h-336v-187h356v-113h-486zM157 781v114h125v-114h-125zM358 781v114h125v-114h-125z" />
    <glyph glyph-name="uni0402" unicode="&#x402;" horiz-adv-x="830" 
d="M508 -16q-19 0 -38 1.5t-30 2.5v113q12 -1 29.5 -2.5t32.5 -1.5q67 0 104 30t37 96q0 62 -31.5 95.5t-101.5 33.5q-38 0 -71 -10t-59.5 -25.5t-42.5 -32.5v-284h-130v686h130v-343l-37 34q19 21 50.5 41.5t75.5 34t100 13.5q78 0 134 -29t86 -82.5t30 -127.5
q0 -75 -30.5 -129.5t-89.5 -84t-148 -29.5zM11 597v113h561v-113h-561z" />
    <glyph glyph-name="uni0403" unicode="&#x403;" horiz-adv-x="551" 
d="M80 0v710h460v-113h-390l60 60v-657h-130zM246 770l61 140h129l-90 -140h-100z" />
    <glyph glyph-name="uni0404" unicode="&#x404;" horiz-adv-x="736" 
d="M376 -16q-101 0 -176 45.5t-116 129t-41 195.5q0 113 41 196.5t116 129.5t176 46q135 0 215.5 -69.5t103.5 -193.5l-135 -7q-13 75 -61.5 116t-122.5 41q-61 0 -105.5 -31.5t-69 -89.5t-24.5 -138t24.5 -138t69 -88.5t105.5 -30.5q76 0 125.5 41t61.5 125l136 -6
q-14 -85 -56.5 -146t-110 -94t-156.5 -33zM472 300h-342v108h342v-108z" />
    <glyph glyph-name="uni0405" unicode="&#x405;" horiz-adv-x="668" 
d="M348 -16q-88 0 -152 31t-100.5 86.5t-42.5 129.5l132 8q6 -46 26.5 -78t55 -48.5t83.5 -16.5q42 0 71.5 10.5t45 31t15.5 50.5q0 27 -13 48.5t-50 39t-110 34.5q-88 20 -141 45.5t-77 64t-24 96.5q0 62 31 109.5t88 74t137 26.5q85 0 144 -30.5t93 -83.5t42 -122l-131 -6
q-5 39 -23.5 68t-50 45.5t-76.5 16.5q-56 0 -88.5 -25.5t-32.5 -67.5q0 -29 13.5 -48t48.5 -32.5t98 -28.5q95 -20 151 -51t80 -72t24 -94q0 -65 -33 -112.5t-93 -73t-141 -25.5z" />
    <glyph glyph-name="uni0406" unicode="&#x406;" horiz-adv-x="290" 
d="M80 0v710h130v-710h-130z" />
    <glyph glyph-name="uni0407" unicode="&#x407;" horiz-adv-x="290" 
d="M80 0v710h130v-710h-130zM24 781v114h103v-114h-103zM163 781v114h103v-114h-103z" />
    <glyph glyph-name="uni0408" unicode="&#x408;" horiz-adv-x="617" 
d="M304 -16q-77 0 -133 33.5t-85.5 93t-30.5 135.5l131 7q2 -78 32.5 -117t85.5 -39q56 0 87 39.5t31 116.5v457h130v-457q0 -82 -31 -142.5t-86.5 -93.5t-130.5 -33z" />
    <glyph glyph-name="uni0409" unicode="&#x409;" horiz-adv-x="1128" 
d="M592 0l32 113h179q66 0 101.5 30t35.5 93q0 65 -35.5 95t-101.5 30h-179v113h185q125 0 195 -62t70 -176q0 -113 -70 -174.5t-195 -61.5h-217zM55 0v116h25q17 0 29 6t20 21t11 42l52 525h465v-710h-129v597h-226l-42 -415q-6 -70 -23 -109.5t-48 -56t-83 -16.5h-51z" />
    <glyph glyph-name="uni040A" unicode="&#x40a;" horiz-adv-x="1103" 
d="M567 0l34 113h186q68 0 98 23.5t30 84.5q0 58 -30 84t-98 26h-186v113h192q128 0 192 -58t64 -165q0 -111 -64 -166t-192 -55h-226zM80 0v710h130v-339l-60 43h418l-59 -43v339h130v-710h-130v343l59 -42h-418l60 42v-343h-130z" />
    <glyph glyph-name="uni040B" unicode="&#x40b;" horiz-adv-x="833" 
d="M207 0v700h130v-350l-35 36q19 18 50.5 36.5t76.5 31t105 12.5q79 0 133.5 -23t83 -70t28.5 -121v-252h-130v234q0 63 -31 90.5t-100 27.5q-44 0 -78 -9.5t-59.5 -23.5t-43.5 -29v-290h-130zM11 597v113h561v-113h-561z" />
    <glyph glyph-name="uni040C" unicode="&#x40c;" horiz-adv-x="669" 
d="M499 0l-306 355l296 355h157l-309 -355l319 -355h-157zM80 0v710h130v-710h-130zM291 770l61 140h129l-90 -140h-100z" />
    <glyph glyph-name="uni040D" unicode="&#x40d;" horiz-adv-x="745" 
d="M665 0h-130v519l-302 -519h-156v710h130v-534l305 534h153v-710zM320 769l-90 141h128l61 -141h-99z" />
    <glyph glyph-name="uni040E" unicode="&#x40e;" horiz-adv-x="665" 
d="M116 0v113h100q23 0 36.5 7.5t22.5 29.5l235 560h136l-266 -616q-21 -48 -51.5 -71t-85.5 -23h-127zM254 204l-235 506h136l191 -423l-31 -83h-61zM330 771q-69 0 -112.5 36t-51.5 105h100q4 -37 19.5 -55t44.5 -18q30 0 45.5 18t18.5 55h100q-7 -69 -50 -105t-114 -36z
" />
    <glyph glyph-name="uni040F" unicode="&#x40f;" horiz-adv-x="719" 
d="M80 0v710h130v-597h298v597h131v-710h-559zM300 -150v182h120v-182h-120z" />
    <glyph glyph-name="uni0410" unicode="&#x410;" horiz-adv-x="709" 
d="M19 0l256 710h159l256 -710h-136l-59 168h-281l-59 -168h-136zM252 279h205l-102 300z" />
    <glyph glyph-name="uni0411" unicode="&#x411;" horiz-adv-x="672" 
d="M80 0v710h467v-113h-397l60 60v-211h145q125 0 194 -60t69 -164t-69 -163t-194 -59h-275zM210 113h139q66 0 100.5 27.5t34.5 81.5t-34.5 82t-100.5 28h-139v-219z" />
    <glyph glyph-name="uni0412" unicode="&#x412;" horiz-adv-x="695" 
d="M80 0v710h266q130 0 197.5 -46t67.5 -146q0 -45 -18.5 -78.5t-54 -52.5t-85.5 -21l-1 2q91 -3 140 -49.5t49 -123.5q0 -98 -67.5 -146.5t-191.5 -48.5h-302zM210 110h166q61 0 96.5 25t35.5 74t-35 75t-97 26h-166v-200zM210 412h132q64 0 100 24t36 70q0 48 -35 71
t-101 23h-132v-188z" />
    <glyph glyph-name="uni0413" unicode="&#x413;" horiz-adv-x="551" 
d="M80 0v710h460v-113h-390l60 60v-657h-130z" />
    <glyph glyph-name="uni0414" unicode="&#x414;" horiz-adv-x="808" 
d="M36 -150v263h87q20 22 33.5 55t18.5 79l52 463h451v-597h84v-263h-130v150h-466v-150h-130zM254 113h294v484h-210l-42 -359q-6 -45 -16.5 -76t-25.5 -49z" />
    <glyph glyph-name="uni0415" unicode="&#x415;" horiz-adv-x="615" 
d="M80 0v710h478v-113h-348v-185h336v-112h-336v-187h356v-113h-486z" />
    <glyph glyph-name="uni0416" unicode="&#x416;" horiz-adv-x="974" 
d="M808 0l-273 355l263 355h153l-275 -355l285 -355h-153zM13 0l285 355l-275 355h153l263 -355l-273 -355h-153zM422 0v710h130v-710h-130z" />
    <glyph glyph-name="uni0417" unicode="&#x417;" horiz-adv-x="643" 
d="M320 -16q-86 0 -149 27.5t-97.5 76t-37.5 112.5l133 5q5 -50 41 -79t111 -29q69 0 105 27t36 81t-33.5 79.5t-92.5 25.5h-111v102h111q62 0 93 21t31 75q0 45 -33 75t-109 30q-77 0 -111 -28t-39 -78l-132 8q6 60 39 107.5t94 75.5t151 28q89 0 150 -27.5t93 -74
t32 -103.5q0 -51 -21.5 -86.5t-63.5 -55.5t-102 -25v16q60 -6 102 -26t64.5 -56t22.5 -90q0 -60 -31.5 -108.5t-92.5 -77t-153 -28.5z" />
    <glyph glyph-name="uni0418" unicode="&#x418;" horiz-adv-x="748" 
d="M668 0h-130v519l-302 -519h-156v710h130v-534l305 534h153v-710z" />
    <glyph glyph-name="uni0419" unicode="&#x419;" horiz-adv-x="748" 
d="M668 0h-130v519l-302 -519h-156v710h130v-534l305 534h153v-710zM363 771q-69 0 -112.5 36t-51.5 105h100q4 -37 19.5 -55t44.5 -18q30 0 45.5 18t18.5 55h100q-7 -69 -50 -105t-114 -36z" />
    <glyph glyph-name="uni041A" unicode="&#x41a;" horiz-adv-x="669" 
d="M499 0l-306 355l296 355h157l-309 -355l319 -355h-157zM80 0v710h130v-710h-130z" />
    <glyph glyph-name="uni041B" unicode="&#x41b;" horiz-adv-x="737" 
d="M55 0v116h25q17 0 29 6t20 21t11 42l52 525h465v-710h-129v597h-226l-42 -415q-6 -70 -23 -109.5t-48 -56t-83 -16.5h-51z" />
    <glyph glyph-name="uni041C" unicode="&#x41c;" horiz-adv-x="902" 
d="M80 0v710h175l196 -550l196 550h175v-710h-130v490l-179 -489h-124l-179 489v-490h-130z" />
    <glyph glyph-name="uni041D" unicode="&#x41d;" horiz-adv-x="719" 
d="M80 0v710h130v-339l-60 43h418l-59 -43v339h130v-710h-130v343l59 -42h-418l60 42v-343h-130z" />
    <glyph glyph-name="uni041E" unicode="&#x41e;" horiz-adv-x="763" 
d="M381 -16q-105 0 -181 44.5t-116.5 127.5t-40.5 198t40.5 198.5t116.5 128.5t181 45q107 0 182.5 -45t116 -128.5t40.5 -198.5t-40.5 -198t-116 -127.5t-182.5 -44.5zM381 97q65 0 110.5 30.5t70 88t24.5 138.5t-24.5 139t-70 89t-110.5 31q-63 0 -109 -31t-70.5 -89
t-24.5 -139t24.5 -138.5t70.5 -88t109 -30.5z" />
    <glyph glyph-name="uni041F" unicode="&#x41f;" horiz-adv-x="719" 
d="M80 0v710h559v-710h-131v597h-298v-597h-130z" />
    <glyph glyph-name="uni0420" unicode="&#x420;" horiz-adv-x="664" 
d="M80 0v710h275q125 0 195 -60t70 -166q0 -71 -32 -122.5t-91 -78.5t-142 -27h-145v-256h-130zM210 369h139q66 0 101.5 29t35.5 86q0 56 -35.5 84.5t-101.5 28.5h-139v-228z" />
    <glyph glyph-name="uni0421" unicode="&#x421;" horiz-adv-x="724" 
d="M372 -16q-97 0 -171 44.5t-116 127t-42 198.5q0 114 41 197.5t115 129t174 45.5q136 0 211 -67.5t98 -188.5l-136 -7q-13 70 -56 110t-117 40q-60 0 -104 -32t-68 -90t-24 -137q0 -80 24.5 -137.5t68.5 -88.5t102 -31q79 0 122.5 43.5t55.5 119.5l136 -7
q-14 -83 -54 -143.5t-105.5 -93t-154.5 -32.5z" />
    <glyph glyph-name="uni0422" unicode="&#x422;" horiz-adv-x="603" 
d="M216 0v597h-216v113h561v-113h-215v-597h-130z" />
    <glyph glyph-name="uni0423" unicode="&#x423;" horiz-adv-x="665" 
d="M116 0v113h100q23 0 36.5 7.5t22.5 29.5l235 560h136l-266 -616q-21 -48 -51.5 -71t-85.5 -23h-127zM254 204l-235 506h136l191 -423l-31 -83h-61z" />
    <glyph glyph-name="uni0424" unicode="&#x424;" horiz-adv-x="884" 
d="M380 73q-118 0 -193 37t-109.5 101t-34.5 144t34.5 144t109.5 101t193 37h123q120 0 194 -37t109 -101t35 -144t-35 -144t-109 -101t-194 -37h-123zM503 186q78 0 122 21t62.5 59t18.5 89t-18.5 89t-62.5 59t-122 21h-123q-77 0 -121 -21t-63 -59t-19 -89t19 -89t63 -59
t121 -21h123zM380 -16v742h123v-742h-123z" />
    <glyph glyph-name="uni0425" unicode="&#x425;" horiz-adv-x="660" 
d="M13 0l239 356l-237 354h152l165 -255l161 255h151l-236 -352l239 -358h-151l-166 259l-166 -259h-151z" />
    <glyph glyph-name="uni0426" unicode="&#x426;" horiz-adv-x="773" 
d="M596 -150v150h-56v113h187v-263h-131zM80 710h130v-597h298v597h131v-710h-559v710z" />
    <glyph glyph-name="uni0427" unicode="&#x427;" horiz-adv-x="706" 
d="M496 0v348l34 -36q-17 -18 -48 -36.5t-77 -31t-108 -12.5q-77 0 -131.5 22.5t-83 70t-28.5 121.5v264h130v-246q0 -63 31.5 -90.5t99.5 -27.5q44 0 78 9t59.5 23t43.5 30v302h130v-710h-130z" />
    <glyph glyph-name="uni0428" unicode="&#x428;" horiz-adv-x="980" 
d="M80 0v710h130v-657l-60 60h275v597h130v-597h275l-60 -60v657h130v-710h-820z" />
    <glyph glyph-name="uni0429" unicode="&#x429;" horiz-adv-x="1033" 
d="M857 -150v150h-57v113h187v-263h-130zM80 0v710h130v-657l-60 60h275v597h130v-597h275l-60 -60v657h130v-710h-820z" />
    <glyph glyph-name="uni042A" unicode="&#x42a;" horiz-adv-x="800" 
d="M216 0v657l61 -60h-237v113h306v-236h145q125 0 195 -62t70 -176q0 -113 -70 -174.5t-195 -61.5h-275zM346 113h139q66 0 101.5 30t35.5 93q0 65 -35.5 95t-101.5 30h-139v-248z" />
    <glyph glyph-name="uni042B" unicode="&#x42b;" horiz-adv-x="900" 
d="M80 710h130v-236h145q125 0 195 -62t70 -176q0 -113 -70 -174.5t-195 -61.5h-275v710zM210 361v-248h139q66 0 101.5 30t35.5 93q0 65 -35.5 95t-101.5 30h-139zM690 0v710h130v-710h-130z" />
    <glyph glyph-name="uni042C" unicode="&#x42c;" horiz-adv-x="674" 
d="M80 710h130v-236h145q125 0 195 -62t70 -176q0 -113 -70 -174.5t-195 -61.5h-275v710zM210 361v-248h139q66 0 101.5 30t35.5 93q0 65 -35.5 95t-101.5 30h-139z" />
    <glyph glyph-name="uni042D" unicode="&#x42d;" horiz-adv-x="736" 
d="M361 -16q-90 0 -157 33t-109.5 94t-57.5 146l136 6q13 -84 62.5 -125t125.5 -41q60 0 104.5 30.5t69 88.5t24.5 138t-24.5 138t-69 89.5t-104.5 31.5q-73 0 -122 -41t-62 -116l-136 7q24 124 104 193.5t216 69.5q100 0 175 -46t116 -129.5t41 -196.5q0 -112 -41 -195.5
t-116 -129t-175 -45.5zM265 300v108h341v-108h-341z" />
    <glyph glyph-name="uni042E" unicode="&#x42e;" horiz-adv-x="988" 
d="M80 0v710h130v-710h-130zM191 300v114h183v-114h-183zM626 -16q-101 0 -172.5 44.5t-109 127.5t-37.5 198t37.5 198.5t109 128.5t172.5 45t172 -45t109 -128.5t38 -198.5t-38 -198t-109 -127.5t-172 -44.5zM626 97q89 0 136.5 67.5t47.5 189.5t-47.5 190.5t-136.5 68.5
q-88 0 -136 -68.5t-48 -190.5t48 -189.5t136 -67.5z" />
    <glyph glyph-name="uni042F" unicode="&#x42f;" horiz-adv-x="681" 
d="M471 0v259h-144q-82 0 -142.5 24t-94 74t-33.5 126q0 77 33.5 127t94 75t142.5 25h274v-710h-130zM54 0l176 299l125 -22l-159 -277h-142zM328 372h143v225h-143q-65 0 -101 -27t-36 -86q0 -58 36 -85t101 -27z" />
    <glyph glyph-name="uni0430" unicode="&#x430;" horiz-adv-x="580" 
d="M225 -12q-84 0 -135 38.5t-51 107.5t43 108t131 56l177 35q0 57 -26 85.5t-77 28.5q-46 0 -72.5 -21.5t-36.5 -61.5l-130 6q16 85 78 130.5t161 45.5q114 0 172.5 -57.5t58.5 -164.5v-194q0 -21 7.5 -29t22.5 -8h17v-93q-6 -2 -19.5 -3t-27.5 -1q-33 0 -59 10.5t-40 37
t-14 72.5l11 -8q-8 -35 -34.5 -62.5t-66.5 -42.5t-90 -15zM251 81q43 0 74 17t48 47t17 71v30l-138 -28q-43 -9 -61.5 -26.5t-18.5 -45.5q0 -31 20.5 -48t58.5 -17z" />
    <glyph glyph-name="uni0431" unicode="&#x431;" horiz-adv-x="597" 
d="M300 -12q-127 0 -192 75.5t-65 232.5q0 99 16.5 164.5t51 106.5t89.5 63.5t132 35.5q25 4 38.5 9t18.5 13.5t7 21.5h123q-3 -48 -17.5 -76t-50 -43.5t-99.5 -24.5q-55 -7 -91.5 -21t-58 -38t-30 -61.5t-8.5 -90.5l-10 2q7 38 31 66t61 43.5t80 15.5q68 0 119.5 -29
t80 -84t28.5 -135q0 -75 -30 -130t-87 -85.5t-137 -30.5zM300 92q57 0 89.5 34t32.5 108q0 72 -32.5 108t-88.5 36q-36 0 -64 -17t-44 -49t-16 -78q0 -50 14.5 -81.5t42.5 -46t66 -14.5z" />
    <glyph glyph-name="uni0432" unicode="&#x432;" horiz-adv-x="609" 
d="M70 0v534h266q66 0 108.5 -17t62 -49.5t19.5 -76.5q0 -53 -35.5 -85.5t-97.5 -34.5v8q75 -3 115.5 -39t40.5 -95q0 -74 -47.5 -109.5t-146.5 -35.5h-285zM198 96h142q38 0 58 15.5t20 48.5q0 32 -21 50.5t-63 18.5h-136v-133zM198 313h116q43 0 62 17.5t19 46.5
q0 28 -18 44.5t-55 16.5h-124v-125z" />
    <glyph glyph-name="uni0433" unicode="&#x433;" horiz-adv-x="468" 
d="M70 0v534h389v-100h-328l67 59v-493h-128z" />
    <glyph glyph-name="uni0434" unicode="&#x434;" horiz-adv-x="648" 
d="M64 78q17 10 35.5 28t33.5 54t21 99l29 275h367v-500h-127v400h-133l-20 -185q-6 -54 -19 -89t-28.5 -57t-30.5 -34.5t-26 -21.5zM26 -106v206h596v-206h-126v106h-344v-106h-126z" />
    <glyph glyph-name="uni0435" unicode="&#x435;" horiz-adv-x="591" 
d="M301 -12q-80 0 -139 34.5t-91 97.5t-32 147t32 146.5t90.5 97.5t136.5 35q76 0 133.5 -34t88.5 -98t31 -154v-29h-379q4 -70 38.5 -105.5t91.5 -35.5q43 0 71.5 19.5t39.5 54.5l131 -8q-22 -78 -86.5 -123t-156.5 -45zM172 317h247q-4 65 -37 96.5t-84 31.5t-84.5 -33
t-41.5 -95z" />
    <glyph glyph-name="uni0436" unicode="&#x436;" horiz-adv-x="947" 
d="M410 0v534h128v-534h-128zM752 0l-229 265l221 269h149l-231 -269l239 -265h-149zM195 0h-149l239 265l-231 269h149l221 -269z" />
    <glyph glyph-name="uni0437" unicode="&#x437;" horiz-adv-x="545" 
d="M272 -12q-105 0 -165.5 46.5t-70.5 129.5l130 4q5 -38 28 -59t78 -21q53 0 78.5 18t25.5 54q0 32 -21 50.5t-65 18.5h-88v87h89q41 0 59.5 15t18.5 46t-22.5 50t-75.5 19q-54 0 -76 -16t-27 -43l-130 5q10 72 68 113t166 41q77 0 128 -20.5t76.5 -56t25.5 -81.5
q0 -56 -38.5 -83.5t-115.5 -36.5v15q75 -6 118 -39t43 -97q0 -71 -62.5 -115t-174.5 -44z" />
    <glyph glyph-name="uni0438" unicode="&#x438;" horiz-adv-x="596" 
d="M70 0v534h128v-338l203 338h125v-534h-128v338l-203 -338h-125z" />
    <glyph glyph-name="uni0439" unicode="&#x439;" horiz-adv-x="596" 
d="M70 0v534h128v-338l203 338h125v-534h-128v338l-203 -338h-125zM296 595q-69 0 -112.5 36t-51.5 105h100q4 -37 19.5 -55t44.5 -18q30 0 45.5 18t18.5 55h100q-7 -69 -50 -105t-114 -36z" />
    <glyph glyph-name="uni043A" unicode="&#x43a;" horiz-adv-x="624" 
d="M425 0l-239 265l231 269h153l-241 -268l249 -266h-153zM70 0v534h129v-534h-129z" />
    <glyph glyph-name="uni043B" unicode="&#x43b;" horiz-adv-x="634" 
d="M50 -4v102h24q20 0 30 9.5t13 39.5l42 387h405v-534h-128v434h-172l-34 -310q-7 -64 -33 -96t-93 -32h-54z" />
    <glyph glyph-name="uni043C" unicode="&#x43c;" horiz-adv-x="724" 
d="M70 0v534h148l144 -386l144 386h148v-534h-127v381l21 -4l-138 -377h-96l-138 377l21 4v-381h-127z" />
    <glyph glyph-name="uni043D" unicode="&#x43d;" horiz-adv-x="602" 
d="M70 0v534h128v-534h-128zM404 0v534h128v-534h-128zM130 232v100h355v-100h-355z" />
    <glyph glyph-name="uni043E" unicode="&#x43e;" horiz-adv-x="603" 
d="M302 -12q-79 0 -138.5 34.5t-92 97.5t-32.5 147q0 85 32.5 147.5t92 97t138.5 34.5t138 -34.5t91.5 -97t32.5 -147.5q0 -84 -32.5 -147t-91.5 -97.5t-138 -34.5zM302 92q62 0 95.5 46t33.5 129q0 82 -33.5 128.5t-95.5 46.5t-96 -46.5t-34 -128.5q0 -83 34 -129t96 -46z
" />
    <glyph glyph-name="uni043F" unicode="&#x43f;" horiz-adv-x="602" 
d="M70 0v534h462v-534h-128v434h-206v-434h-128z" />
    <glyph glyph-name="uni0440" unicode="&#x440;" horiz-adv-x="621" 
d="M70 -150v684h123l3 -114l-13 6q20 59 65.5 89.5t106.5 30.5q76 0 126.5 -38t75.5 -101t25 -140t-25.5 -140t-76 -101t-126.5 -38q-40 0 -74.5 14t-59 40t-34.5 61l12 10v-263h-128zM324 92q58 0 91.5 46.5t33.5 128.5t-33.5 128.5t-91.5 46.5q-39 0 -67 -19.5
t-43.5 -58.5t-15.5 -97t15 -97t43.5 -58.5t67.5 -19.5z" />
    <glyph glyph-name="uni0441" unicode="&#x441;" horiz-adv-x="580" 
d="M302 -12q-80 0 -139 34.5t-91.5 97.5t-32.5 147t32.5 146.5t91.5 97.5t139 35q68 0 121 -24t86.5 -68.5t41.5 -108.5l-132 -7q-8 51 -39.5 77.5t-77.5 26.5q-62 0 -96 -46.5t-34 -128.5q0 -83 34 -129t96 -46q47 0 78.5 27t38.5 84l132 -6q-8 -64 -41 -111t-86 -72.5
t-122 -25.5z" />
    <glyph glyph-name="uni0442" unicode="&#x442;" horiz-adv-x="570" 
d="M221 0v434h-182v100h492v-100h-182v-434h-128z" />
    <glyph glyph-name="uni0443" unicode="&#x443;" horiz-adv-x="570" 
d="M108 -150v99h68q26 0 38.5 8t19.5 27l15 37h-37l-191 513h133l134 -393l128 393h133l-209 -590q-18 -50 -50.5 -72t-90.5 -22h-91z" />
    <glyph glyph-name="uni0444" unicode="&#x444;" horiz-adv-x="800" 
d="M341 -150v150q-94 0 -161.5 29t-104 88.5t-36.5 150.5q0 89 36.5 148t104 88.5t161.5 29.5v176h118v-176q94 0 161.5 -29.5t104 -88.5t36.5 -148q0 -91 -36.5 -150.5t-104 -88.5t-161.5 -29v-150h-118zM341 106v321q-82 0 -125 -38t-43 -121q0 -84 43 -123t125 -39z
M459 106q82 0 125 39t43 123q0 83 -43 121t-125 38v-321z" />
    <glyph glyph-name="uni0445" unicode="&#x445;" horiz-adv-x="628" 
d="M46 0l192 272l-185 262h139l122 -182l120 182h141l-184 -263l191 -271h-139l-127 192l-128 -192h-142z" />
    <glyph glyph-name="uni0446" unicode="&#x446;" horiz-adv-x="634" 
d="M480 -106v106h-47v100h175v-206h-128zM70 534h128v-434h206v434h128v-534h-462v534z" />
    <glyph glyph-name="uni0447" unicode="&#x447;" horiz-adv-x="620" 
d="M421 0v264l43 -43q-19 -18 -47.5 -33.5t-65.5 -24.5t-84 -9q-63 0 -107 18t-67 57.5t-23 104.5v200h128v-184q0 -52 25.5 -71.5t70.5 -19.5q28 0 53 6t44.5 16t29.5 21v232h128v-534h-128z" />
    <glyph glyph-name="uni0448" unicode="&#x448;" horiz-adv-x="854" 
d="M70 0v534h128v-494l-60 60h225v434h128v-434h226l-61 -60v494h128v-534h-714z" />
    <glyph glyph-name="uni0449" unicode="&#x449;" horiz-adv-x="886" 
d="M732 -106v106h-47v100h175v-206h-128zM70 0v534h128v-494l-60 60h225v434h128v-434h226l-61 -60v494h128v-534h-714z" />
    <glyph glyph-name="uni044A" unicode="&#x44a;" horiz-adv-x="630" 
d="M162 0v495l61 -60h-173v99h240v-188h88q71 0 118.5 -22t71 -60.5t23.5 -90.5q0 -51 -23.5 -90.5t-71 -61t-118.5 -21.5h-216zM290 100h85q47 0 67.5 18.5t20.5 54.5t-20.5 54.5t-67.5 18.5h-85v-146z" />
    <glyph glyph-name="uni044B" unicode="&#x44b;" horiz-adv-x="772" 
d="M70 0v534h128v-188h116q72 0 118 -21.5t68.5 -60.5t22.5 -91t-22.5 -91t-68.5 -60.5t-118 -21.5h-244zM198 100h110q47 0 67 18.5t20 54.5q0 35 -20 54t-67 19h-110v-146zM573 0v534h128v-534h-128z" />
    <glyph glyph-name="uni044C" unicode="&#x44c;" horiz-adv-x="562" 
d="M70 0v534h128v-188h116q72 0 118 -21.5t68.5 -60.5t22.5 -91t-22.5 -91t-68.5 -60.5t-118 -21.5h-244zM198 100h110q47 0 67 18.5t20 54.5q0 35 -20 54t-67 19h-110v-146z" />
    <glyph glyph-name="uni044D" unicode="&#x44d;" horiz-adv-x="590" 
d="M226 222v90h258v-90h-258zM289 -12q-69 0 -122.5 25t-86.5 70t-41 103l132 6q8 -48 39.5 -74t78.5 -26q62 0 96 46t34 129q0 82 -34 128.5t-96 46.5q-47 0 -78.5 -25t-39.5 -69l-132 7q8 59 41.5 102t87 66t121.5 23q79 0 138 -35t91.5 -97.5t32.5 -146.5t-32.5 -147
t-91.5 -97.5t-138 -34.5z" />
    <glyph glyph-name="uni044E" unicode="&#x44e;" horiz-adv-x="835" 
d="M70 0v534h128v-534h-128zM139 217v100h198v-100h-198zM534 -12q-79 0 -138.5 34.5t-92 97.5t-32.5 147q0 85 32.5 147.5t92 97t138.5 34.5t137.5 -34.5t91.5 -97t33 -147.5q0 -84 -33 -147t-91.5 -97.5t-137.5 -34.5zM534 92q61 0 95 46t34 129q0 82 -34 128.5t-95 46.5
q-62 0 -96.5 -46.5t-34.5 -128.5q0 -83 34.5 -129t96.5 -46z" />
    <glyph glyph-name="uni044F" unicode="&#x44f;" horiz-adv-x="607" 
d="M409 0v173h-115q-110 0 -165 48.5t-55 133.5t55 132t165 47h243v-534h-128zM70 0l146 231l114 -24l-126 -207h-134zM296 273h113v161h-113q-45 0 -67.5 -21t-22.5 -59q0 -39 22.5 -60t67.5 -21z" />
    <glyph glyph-name="uni0450" unicode="&#x450;" horiz-adv-x="591" 
d="M301 -12q-80 0 -139 34.5t-91 97.5t-32 147t32 146.5t90.5 97.5t136.5 35q76 0 133.5 -34t88.5 -98t31 -154v-29h-379q4 -70 38.5 -105.5t91.5 -35.5q43 0 71.5 19.5t39.5 54.5l131 -8q-22 -78 -86.5 -123t-156.5 -45zM172 317h247q-4 65 -37 96.5t-84 31.5t-84.5 -33
t-41.5 -95zM259 591l-90 141h129l61 -141h-100z" />
    <glyph glyph-name="uni0451" unicode="&#x451;" horiz-adv-x="591" 
d="M301 -12q-80 0 -139 34.5t-91 97.5t-32 147t32 146.5t90.5 97.5t136.5 35q76 0 133.5 -34t88.5 -98t31 -154v-29h-379q4 -70 38.5 -105.5t91.5 -35.5q43 0 71.5 19.5t39.5 54.5l131 -8q-22 -78 -86.5 -123t-156.5 -45zM172 317h247q-4 65 -37 96.5t-84 31.5t-84.5 -33
t-41.5 -95zM139 603v114h125v-114h-125zM340 603v114h125v-114h-125z" />
    <glyph glyph-name="uni0452" unicode="&#x452;" horiz-adv-x="601" 
d="M70 0v710h128v-248q22 43 62 63.5t90 20.5q59 0 99.5 -25.5t61 -71.5t20.5 -106v-339q0 -82 -37.5 -118t-126.5 -36h-49v99h26q29 0 44 12.5t15 46.5v304q0 65 -22 97.5t-69 32.5q-52 0 -83 -34t-31 -99v-309h-128zM6 578v81h332v-81h-332z" />
    <glyph glyph-name="uni0453" unicode="&#x453;" horiz-adv-x="468" 
d="M70 0v534h389v-100h-328l67 59v-493h-128zM209 594l61 140h129l-90 -140h-100z" />
    <glyph glyph-name="uni0454" unicode="&#x454;" horiz-adv-x="590" 
d="M365 222h-259v90h259v-90zM302 -12q-80 0 -139 34.5t-91.5 97.5t-32.5 147t32.5 146.5t91.5 97.5t139 35q68 0 121 -23t86.5 -66t41.5 -102l-132 -7q-8 44 -39.5 69t-77.5 25q-62 0 -96 -46.5t-34 -128.5q0 -83 34 -129t96 -46q47 0 78.5 26t38.5 74l132 -6
q-8 -58 -41 -103t-86 -70t-122 -25z" />
    <glyph glyph-name="uni0455" unicode="&#x455;" horiz-adv-x="553" 
d="M287 -12q-81 0 -134.5 23t-81.5 64t-32 93l131 6q7 -42 34 -65t84 -23q45 0 68.5 14.5t23.5 45.5q0 18 -8.5 30t-33 21t-71.5 18q-81 14 -127 34.5t-64.5 51.5t-18.5 77q0 75 57.5 121.5t168.5 46.5q77 0 126.5 -24.5t75 -65t29.5 -90.5l-130 -6q-1 25 -12 45t-33 31.5
t-58 11.5q-45 0 -68.5 -18t-23.5 -48q0 -21 9.5 -35t32.5 -22.5t63 -15.5q82 -12 130 -33t68.5 -52.5t20.5 -75.5q0 -77 -61.5 -118.5t-164.5 -41.5z" />
    <glyph glyph-name="uni0456" unicode="&#x456;" horiz-adv-x="269" 
d="M70 0v534h128v-534h-128zM68 605v114h133v-114h-133z" />
    <glyph glyph-name="uni0457" unicode="&#x457;" horiz-adv-x="269" 
d="M70 0v534h128v-534h-128zM13 605v114h103v-114h-103zM152 605v114h103v-114h-103z" />
    <glyph glyph-name="uni0458" unicode="&#x458;" horiz-adv-x="308" 
d="M-3 -150v99h53q29 0 44 12.5t15 46.5v526h128v-530q0 -82 -37 -118t-127 -36h-76zM107 605v114h133v-114h-133z" />
    <glyph glyph-name="uni0459" unicode="&#x459;" horiz-adv-x="928" 
d="M436 0v434h-172l-34 -310q-7 -64 -33 -96t-93 -32h-54v102h24q20 0 30 9.5t13 39.5l42 387h405v-188h116q71 0 117.5 -21.5t69 -60.5t22.5 -91t-22.5 -91t-69 -60.5t-117.5 -21.5h-244zM564 100h109q48 0 68 18.5t20 54.5q0 35 -20 54t-68 19h-109v-146z" />
    <glyph glyph-name="uni045A" unicode="&#x45a;" horiz-adv-x="896" 
d="M70 0v534h128v-534h-128zM116 232v100h362v-100h-362zM404 0v534h128v-188h116q71 0 117.5 -21.5t69 -60.5t22.5 -91t-22.5 -91t-69 -60.5t-117.5 -21.5h-244zM532 100h109q48 0 68 18.5t20 54.5q0 35 -20 54t-68 19h-109v-146z" />
    <glyph glyph-name="uni045B" unicode="&#x45b;" horiz-adv-x="601" 
d="M70 0v710h128v-298h-16q8 46 32 75.5t59 44t77 14.5q59 0 99.5 -25.5t61 -71.5t20.5 -106v-343h-128v312q0 65 -22 97.5t-69 32.5q-52 0 -83 -34t-31 -99v-309h-128zM6 578v81h332v-81h-332z" />
    <glyph glyph-name="uni045C" unicode="&#x45c;" horiz-adv-x="624" 
d="M425 0l-239 265l231 269h153l-241 -268l249 -266h-153zM70 0v534h129v-534h-129zM250 594l61 140h129l-90 -140h-100z" />
    <glyph glyph-name="uni045D" unicode="&#x45d;" horiz-adv-x="596" 
d="M70 0v534h128v-338l203 338h125v-534h-128v338l-203 -338h-125zM256 593l-90 141h129l61 -141h-100z" />
    <glyph glyph-name="uni045E" unicode="&#x45e;" horiz-adv-x="570" 
d="M108 -150v99h68q26 0 38.5 8t19.5 27l15 37h-37l-191 513h133l134 -393l128 393h133l-209 -590q-18 -50 -50.5 -72t-90.5 -22h-91zM282 595q-69 0 -112.5 36t-51.5 105h100q4 -37 19.5 -55t44.5 -18q30 0 45.5 18t18.5 55h100q-7 -69 -50 -105t-114 -36z" />
    <glyph glyph-name="uni045F" unicode="&#x45f;" horiz-adv-x="602" 
d="M70 0v534h128v-434h206v434h128v-534h-462zM237 -106v136h128v-136h-128z" />
    <glyph glyph-name="uni0462" unicode="&#x462;" horiz-adv-x="786" 
d="M192 0v726h130v-267h149q125 0 193 -58.5t68 -172.5q0 -113 -68 -170.5t-193 -57.5h-279zM322 113h141q67 0 101 28t34 87q0 60 -34 89t-101 29h-141v-233zM40 546v102h494v-102h-494z" />
    <glyph glyph-name="uni0463" unicode="&#x463;" horiz-adv-x="592" 
d="M104 0v657h128v-327h107q108 0 160.5 -45.5t52.5 -119.5t-52.5 -119.5t-160.5 -45.5h-235zM232 99h101q45 0 66 16.5t21 49.5t-21 49.5t-66 16.5h-101v-132zM20 435v99h369v-99h-369z" />
    <glyph glyph-name="uni046A" unicode="&#x46a;" horiz-adv-x="766" 
d="M13 0l104 294q19 53 49 78t76 25h281q47 0 77 -25t49 -78l104 -294h-129l-80 234q-9 28 -21 40t-40 12h-201q-27 0 -39 -11.5t-22 -40.5l-80 -234h-128zM321 0v373h125v-373h-125zM327 310l-249 287v113h610v-113l-248 -287h-113zM384 400l169 197h-339z" />
    <glyph glyph-name="uni046B" unicode="&#x46b;" horiz-adv-x="747" 
d="M46 0l91 214q16 40 41 61t63 21h265q38 0 63 -21t41 -61l91 -214h-130l-67 168q-10 25 -22.5 34t-34.5 9h-148q-21 0 -33.5 -9t-22.5 -34l-67 -168h-130zM313 0v286h121v-286h-121zM307 244l-228 194h133l224 -194h-129zM312 244l224 194h133l-228 -194h-129zM79 438v96
h590v-96h-590z" />
    <glyph glyph-name="uni0472" unicode="&#x472;" horiz-adv-x="763" 
d="M513 269q-31 0 -63 9.5t-65 22.5t-66.5 22.5t-66.5 9.5q-34 0 -66 -14t-57 -34l1 119q27 17 57 28t66 11q37 0 71 -9.5t65.5 -22.5t61.5 -23t59 -10q35 0 63.5 11t53.5 33v-120q-20 -14 -48 -23.5t-66 -9.5zM381 -16q-105 0 -181 44.5t-116.5 127.5t-40.5 198t40.5 198.5
t116.5 128.5t181 45q107 0 182.5 -45t116 -128.5t40.5 -198.5t-40.5 -198t-116 -127.5t-182.5 -44.5zM381 97q65 0 110.5 30.5t70 88t24.5 138.5t-24.5 139t-70 89t-110.5 31q-63 0 -109 -31t-70.5 -89t-24.5 -139t24.5 -138.5t70.5 -88t109 -30.5z" />
    <glyph glyph-name="uni0473" unicode="&#x473;" horiz-adv-x="603" 
d="M115 196l-7 101q21 19 46.5 30.5t51.5 11.5q28 0 53 -8.5t48 -19t47 -19t49 -8.5q22 0 40.5 8.5t33.5 24.5l9 -97q-18 -15 -37.5 -24.5t-42.5 -9.5q-24 0 -46.5 8.5t-46 19t-49 19t-56.5 8.5q-25 0 -49 -13t-44 -32zM302 -12q-79 0 -138.5 34.5t-92 97.5t-32.5 147
q0 85 32.5 147.5t92 97t138.5 34.5t138 -34.5t91.5 -97t32.5 -147.5q0 -84 -32.5 -147t-91.5 -97.5t-138 -34.5zM302 92q62 0 95.5 46t33.5 129q0 82 -33.5 128.5t-95.5 46.5t-96 -46.5t-34 -128.5q0 -83 34 -129t96 -46z" />
    <glyph glyph-name="uni0474" unicode="&#x474;" horiz-adv-x="742" 
d="M276 0l-257 710h136l200 -564l155 442q18 51 40.5 81t54.5 43.5t77 13.5h51v-113h-33q-25 0 -40 -13.5t-26 -45.5l-202 -554h-156z" />
    <glyph glyph-name="uni0475" unicode="&#x475;" horiz-adv-x="585" 
d="M216 0l-195 534h135l136 -405l104 309q13 38 29.5 59t39.5 29t55 8h44v-100h-12q-15 0 -24 -8.5t-16 -28.5l-144 -397h-152z" />
    <glyph glyph-name="uni0490" unicode="&#x490;" horiz-adv-x="551" 
d="M80 0v710h391l-61 -60v215h130v-268h-330v-597h-130z" />
    <glyph glyph-name="uni0491" unicode="&#x491;" horiz-adv-x="468" 
d="M70 0v534h260v106h129v-206h-321l60 60v-494h-128z" />
    <glyph glyph-name="uni0492" unicode="&#x492;" horiz-adv-x="611" 
d="M40 287v104h422v-104h-422zM140 0v710h460v-113h-390l60 60v-657h-130z" />
    <glyph glyph-name="uni0493" unicode="&#x493;" horiz-adv-x="550" 
d="M30 203v101h378v-101h-378zM122 0v534h389v-100h-328l67 59v-493h-128z" />
    <glyph glyph-name="uni0496" unicode="&#x496;" horiz-adv-x="1001" 
d="M862 -150v150h-37v113h168v-263h-131zM808 0l-273 355l263 355h153l-275 -355l285 -355h-153zM13 0l285 355l-275 355h153l263 -355l-273 -355h-153zM422 0v710h130v-710h-130z" />
    <glyph glyph-name="uni0497" unicode="&#x497;" horiz-adv-x="941" 
d="M807 -106v106h-47v100h175v-206h-128zM410 0v534h128v-534h-128zM752 0l-229 265l221 269h149l-231 -269l239 -265h-149zM195 0h-149l239 265l-231 269h149l221 -269z" />
    <glyph glyph-name="uni049A" unicode="&#x49a;" horiz-adv-x="698" 
d="M555 -150v150h-38v113h168v-263h-130zM499 0l-306 355l296 355h157l-309 -355l319 -355h-157zM80 0v710h130v-710h-130z" />
    <glyph glyph-name="uni049B" unicode="&#x49b;" horiz-adv-x="615" 
d="M481 -106v106h-47v100h175v-206h-128zM425 0l-239 265l231 269h153l-241 -268l249 -266h-153zM70 0v534h129v-534h-129z" />
    <glyph glyph-name="uni04A2" unicode="&#x4a2;" horiz-adv-x="788" 
d="M598 -150v150h-38v113h168v-263h-130zM80 0v710h130v-339l-60 43h418l-59 -43v339h130v-710h-130v343l59 -42h-418l60 42v-343h-130z" />
    <glyph glyph-name="uni04A3" unicode="&#x4a3;" horiz-adv-x="638" 
d="M484 -106v106h-47v100h175v-206h-128zM70 0v534h128v-534h-128zM404 0v534h128v-534h-128zM130 232v100h355v-100h-355z" />
    <glyph glyph-name="uni04AE" unicode="&#x4ae;" horiz-adv-x="613" 
d="M241 0v280l-248 430h146l168 -302l167 302h146l-248 -430v-280h-131z" />
    <glyph glyph-name="uni04AF" unicode="&#x4af;" horiz-adv-x="590" 
d="M231 0l-210 534h133l141 -384l141 384h133l-210 -534h-128zM231 -150v219h128v-219h-128z" />
    <glyph glyph-name="uni04B0" unicode="&#x4b0;" horiz-adv-x="613" 
d="M74 206v104h464v-104h-464zM241 0v280l-248 430h146l168 -302l167 302h146l-248 -430v-280h-131z" />
    <glyph glyph-name="uni04B1" unicode="&#x4b1;" horiz-adv-x="590" 
d="M55 0v100h480v-100h-480zM231 0l-210 534h133l141 -384l141 384h133l-210 -534h-128zM231 -150v219h128v-219h-128z" />
    <glyph glyph-name="uni04B2" unicode="&#x4b2;" horiz-adv-x="695" 
d="M551 -150v150h-37v113h168v-263h-131zM13 0l239 356l-237 354h152l165 -255l161 255h151l-236 -352l239 -358h-151l-166 259l-166 -259h-151z" />
    <glyph glyph-name="uni04B3" unicode="&#x4b3;" horiz-adv-x="635" 
d="M501 -106v106h-48v100h176v-206h-128zM46 0l192 272l-185 262h139l122 -182l120 182h141l-184 -263l191 -271h-139l-127 192l-128 -192h-142z" />
    <glyph glyph-name="uni04B6" unicode="&#x4b6;" horiz-adv-x="765" 
d="M589 -150v150h-57v113h187v-263h-130zM496 0v348l34 -36q-17 -18 -48 -36.5t-77 -31t-108 -12.5q-77 0 -131.5 22.5t-83 70t-28.5 121.5v264h130v-246q0 -63 31.5 -90.5t99.5 -27.5q44 0 78 9t59.5 23t43.5 30v302h130v-710h-130z" />
    <glyph glyph-name="uni04B7" unicode="&#x4b7;" horiz-adv-x="656" 
d="M502 -106v106h-48v100h176v-206h-128zM421 0v264l43 -43q-19 -18 -47.5 -33.5t-65.5 -24.5t-84 -9q-63 0 -107 18t-67 57.5t-23 104.5v200h128v-184q0 -52 25.5 -71.5t70.5 -19.5q28 0 53 6t44.5 16t29.5 21v232h128v-534h-128z" />
    <glyph glyph-name="uni04BA" unicode="&#x4ba;" horiz-adv-x="706" 
d="M210 710v-348l-34 36q17 18 48 36.5t77 31t108 12.5q77 0 131.5 -22.5t83 -70t28.5 -121.5v-264h-130v246q0 63 -31.5 90.5t-99.5 27.5q-44 0 -78 -9t-59.5 -23t-43.5 -30v-302h-130v710h130z" />
    <glyph glyph-name="uni04BB" unicode="&#x4bb;" horiz-adv-x="601" 
d="M70 0v710h128v-298h-16q8 46 32 75.5t59 44t77 14.5q59 0 99.5 -25.5t61 -71.5t20.5 -106v-343h-128v312q0 65 -22 97.5t-69 32.5q-52 0 -83 -34t-31 -99v-309h-128z" />
    <glyph glyph-name="uni04C0" unicode="&#x4c0;" horiz-adv-x="290" 
d="M80 0v710h130v-710h-130z" />
    <glyph glyph-name="uni04CF" unicode="&#x4cf;" horiz-adv-x="288" 
d="M80 0v710h128v-710h-128z" />
    <glyph glyph-name="uni04D8" unicode="&#x4d8;" horiz-adv-x="743" 
d="M576 292h-394q10 -65 34 -108.5t62 -65t87 -21.5q59 0 104 27t70.5 80.5t25.5 131.5v27q0 80 -26 135.5t-71.5 85t-103.5 29.5q-36 0 -67 -13t-55.5 -39.5t-40.5 -65.5l-137 9q22 69 64.5 118.5t102.5 76.5t133 27q100 0 175.5 -44t118 -127t42.5 -200q0 -90 -26 -159
t-71.5 -116.5t-106.5 -71.5t-132 -24q-63 0 -121 23t-103 68t-71 113t-26 158v53h537z" />
    <glyph glyph-name="uni04D9" unicode="&#x4d9;" horiz-adv-x="591" 
d="M290 546q80 0 138.5 -34.5t90.5 -97.5t32 -147t-32 -147t-90 -97.5t-137 -34.5q-76 0 -132.5 34t-88.5 98t-32 154v29h380q-3 71 -38 106t-93 35q-42 0 -70 -19t-40 -55l-131 8q22 78 86.5 123t156.5 45zM419 217h-247q4 -65 37 -96.5t83 -31.5q53 0 86 33t41 95z" />
    <glyph glyph-name="uni04E2" unicode="&#x4e2;" horiz-adv-x="748" 
d="M668 0h-130v519l-302 -519h-156v710h130v-534l305 534h153v-710zM220 789v97h289v-97h-289z" />
    <glyph glyph-name="uni04E3" unicode="&#x4e3;" horiz-adv-x="596" 
d="M70 0v534h128v-338l203 338h125v-534h-128v338l-203 -338h-125zM153 613v97h289v-97h-289z" />
    <glyph glyph-name="uni04E8" unicode="&#x4e8;" horiz-adv-x="763" 
d="M100 301v108h564v-108h-564zM381 -16q-105 0 -181 44.5t-116.5 127.5t-40.5 198t40.5 198.5t116.5 128.5t181 45q107 0 182.5 -45t116 -128.5t40.5 -198.5t-40.5 -198t-116 -127.5t-182.5 -44.5zM381 97q65 0 110.5 30.5t70 88t24.5 138.5t-24.5 139t-70 89t-110.5 31
q-63 0 -109 -31t-70.5 -89t-24.5 -139t24.5 -138.5t70.5 -88t109 -30.5z" />
    <glyph glyph-name="uni04E9" unicode="&#x4e9;" horiz-adv-x="603" 
d="M108 218v98h387v-98h-387zM302 -12q-79 0 -138.5 34.5t-92 97.5t-32.5 147q0 85 32.5 147.5t92 97t138.5 34.5t138 -34.5t91.5 -97t32.5 -147.5q0 -84 -32.5 -147t-91.5 -97.5t-138 -34.5zM302 92q62 0 95.5 46t33.5 129q0 82 -33.5 128.5t-95.5 46.5t-96 -46.5
t-34 -128.5q0 -83 34 -129t96 -46z" />
    <glyph glyph-name="uni04EE" unicode="&#x4ee;" horiz-adv-x="665" 
d="M116 0v113h100q23 0 36.5 7.5t22.5 29.5l235 560h136l-266 -616q-21 -48 -51.5 -71t-85.5 -23h-127zM254 204l-235 506h136l191 -423l-31 -83h-61zM187 789v97h289v-97h-289z" />
    <glyph glyph-name="uni04EF" unicode="&#x4ef;" horiz-adv-x="570" 
d="M108 -150v99h68q26 0 38.5 8t19.5 27l15 37h-37l-191 513h133l134 -393l128 393h133l-209 -590q-18 -50 -50.5 -72t-90.5 -22h-91zM140 613v97h289v-97h-289z" />
    <glyph glyph-name="uni0E3F" unicode="&#xe3f;" horiz-adv-x="672" 
d="M80 0v710h231q136 0 206.5 -49.5t70.5 -147.5q0 -42 -19.5 -74.5t-54.5 -51.5t-83 -21l-1 2q90 -3 139 -47t49 -120q0 -94 -69.5 -147.5t-197.5 -53.5h-271zM210 110h141q65 0 100.5 26t35.5 74q0 49 -34.5 74.5t-101.5 25.5h-141v-200zM282 -91v896h77v-896h-77z
M210 412h106q70 0 105.5 23.5t35.5 69.5t-35.5 70.5t-105.5 24.5h-106v-188z" />
    <glyph glyph-name="uni1E20" unicode="&#x1e20;" horiz-adv-x="726" 
d="M367 -16q-101 0 -174 47.5t-111.5 130.5t-38.5 192q0 107 39.5 191t113.5 132.5t178 48.5q90 0 151.5 -31t98.5 -86t52 -127l-136 -7q-11 63 -49.5 100.5t-115.5 37.5q-68 0 -111.5 -35t-65 -93.5t-21.5 -130.5q0 -74 21 -132t65.5 -91.5t112.5 -33.5q53 0 91 22t60 60.5
t24 85.5h-175v101h302v-366h-84l-8 156l16 -10q-11 -48 -44.5 -84.5t-83 -57t-107.5 -20.5zM230 789v97h289v-97h-289z" />
    <glyph glyph-name="uni1E21" unicode="&#x1e21;" horiz-adv-x="620" 
d="M298 -162q-70 0 -120 19t-80.5 53.5t-42.5 79.5l132 9q10 -30 34.5 -47t76.5 -17q59 0 91 26.5t32 82.5v68q-19 -39 -61 -62.5t-94 -23.5q-66 0 -117.5 32.5t-80.5 91t-29 135.5t28.5 135.5t79.5 92t117 33.5q58 0 100 -26t61 -69v83h125v-487q0 -68 -31.5 -115
t-88 -70.5t-132.5 -23.5zM296 126q57 0 91 42.5t35 117.5q1 50 -14.5 85.5t-44 55t-67.5 19.5q-59 0 -91.5 -43.5t-32.5 -116.5t33.5 -116.5t90.5 -43.5zM156 613v97h289v-97h-289z" />
    <glyph glyph-name="Wgrave" unicode="&#x1e80;" horiz-adv-x="991" 
d="M227 0l-190 710h137l130 -530l131 530h121l131 -530l129 530h138l-190 -710h-144l-124 486l-124 -486h-145zM453 769l-90 141h129l61 -141h-100z" />
    <glyph glyph-name="wgrave" unicode="&#x1e81;" horiz-adv-x="839" 
d="M182 0l-161 534h131l104 -389l107 389h112l108 -389l104 389h131l-161 -534h-132l-106 358l-105 -358h-132zM378 593l-90 141h129l61 -141h-100z" />
    <glyph glyph-name="Wacute" unicode="&#x1e82;" horiz-adv-x="991" 
d="M227 0l-190 710h137l130 -530l131 530h121l131 -530l129 530h138l-190 -710h-144l-124 486l-124 -486h-145zM438 770l61 140h129l-90 -140h-100z" />
    <glyph glyph-name="wacute" unicode="&#x1e83;" horiz-adv-x="839" 
d="M182 0l-161 534h131l104 -389l107 389h112l108 -389l104 389h131l-161 -534h-132l-106 358l-105 -358h-132zM362 594l61 140h129l-90 -140h-100z" />
    <glyph glyph-name="Wdieresis" unicode="&#x1e84;" horiz-adv-x="991" 
d="M227 0l-190 710h137l130 -530l131 530h121l131 -530l129 530h138l-190 -710h-144l-124 486l-124 -486h-145zM332 781v114h125v-114h-125zM533 781v114h125v-114h-125z" />
    <glyph glyph-name="wdieresis" unicode="&#x1e85;" horiz-adv-x="839" 
d="M182 0l-161 534h131l104 -389l107 389h112l108 -389l104 389h131l-161 -534h-132l-106 358l-105 -358h-132zM257 605v114h125v-114h-125zM458 605v114h125v-114h-125z" />
    <glyph glyph-name="uni1E9E" unicode="&#x1e9e;" horiz-adv-x="725" 
d="M80 0v479q0 111 62 171t177 60h313v-118l-264 -238l10 73q145 0 218.5 -53t73.5 -153q0 -69 -32 -118.5t-92 -76t-144 -26.5h-125v113h125q63 0 99 29t36 79q0 53 -38.5 81t-105.5 28h-100v95l251 234l9 -62h-234q-54 0 -81.5 -29.5t-27.5 -88.5v-479h-130z" />
    <glyph glyph-name="uni1EA0" unicode="&#x1ea0;" horiz-adv-x="709" 
d="M19 0l256 710h159l256 -710h-136l-59 168h-281l-59 -168h-136zM252 279h205l-102 300zM297 -154v103h115v-103h-115z" />
    <glyph glyph-name="uni1EA1" unicode="&#x1ea1;" horiz-adv-x="580" 
d="M225 -12q-84 0 -135 38.5t-51 107.5t43 108t131 56l177 35q0 57 -26 85.5t-77 28.5q-46 0 -72.5 -21.5t-36.5 -61.5l-130 6q16 85 78 130.5t161 45.5q114 0 172.5 -57.5t58.5 -164.5v-194q0 -21 7.5 -29t22.5 -8h17v-93q-6 -2 -19.5 -3t-27.5 -1q-33 0 -59 10.5t-40 37
t-14 72.5l11 -8q-8 -35 -34.5 -62.5t-66.5 -42.5t-90 -15zM251 81q43 0 74 17t48 47t17 71v30l-138 -28q-43 -9 -61.5 -26.5t-18.5 -45.5q0 -31 20.5 -48t58.5 -17zM226 -154v103h115v-103h-115z" />
    <glyph glyph-name="uni1EA2" unicode="&#x1ea2;" horiz-adv-x="709" 
d="M19 0l256 710h159l256 -710h-136l-59 168h-281l-59 -168h-136zM252 279h205l-102 300zM393 765h-80q19 20 31 38t12 35q0 13 -8 21.5t-29 8.5q-12 0 -25.5 -2.5t-22.5 -5.5v70q9 2 27 4.5t42 2.5q54 0 76.5 -20.5t22.5 -59.5q0 -34 -15.5 -56t-30.5 -36z" />
    <glyph glyph-name="uni1EA3" unicode="&#x1ea3;" horiz-adv-x="580" 
d="M225 -12q-84 0 -135 38.5t-51 107.5t43 108t131 56l177 35q0 57 -26 85.5t-77 28.5q-46 0 -72.5 -21.5t-36.5 -61.5l-130 6q16 85 78 130.5t161 45.5q114 0 172.5 -57.5t58.5 -164.5v-194q0 -21 7.5 -29t22.5 -8h17v-93q-6 -2 -19.5 -3t-27.5 -1q-33 0 -59 10.5t-40 37
t-14 72.5l11 -8q-8 -35 -34.5 -62.5t-66.5 -42.5t-90 -15zM251 81q43 0 74 17t48 47t17 71v30l-138 -28q-43 -9 -61.5 -26.5t-18.5 -45.5q0 -31 20.5 -48t58.5 -17zM329 589h-80q19 20 31 38t12 35q0 13 -8 21.5t-29 8.5q-12 0 -25.5 -2.5t-22.5 -5.5v70q9 2 27 4.5t42 2.5
q54 0 76.5 -20.5t22.5 -59.5q0 -34 -15.5 -56t-30.5 -36z" />
    <glyph glyph-name="uni1EA4" unicode="&#x1ea4;" horiz-adv-x="709" 
d="M19 0l256 710h159l256 -710h-136l-59 168h-281l-59 -168h-136zM252 279h205l-102 300zM198 760l94 135h125l94 -135h-94l-78 95h30l-78 -95h-93zM456 864l53 141h119l-79 -141h-93z" />
    <glyph glyph-name="uni1EA5" unicode="&#x1ea5;" horiz-adv-x="580" 
d="M225 -12q-84 0 -135 38.5t-51 107.5t43 108t131 56l177 35q0 57 -26 85.5t-77 28.5q-46 0 -72.5 -21.5t-36.5 -61.5l-130 6q16 85 78 130.5t161 45.5q114 0 172.5 -57.5t58.5 -164.5v-194q0 -21 7.5 -29t22.5 -8h17v-93q-6 -2 -19.5 -3t-27.5 -1q-33 0 -59 10.5t-40 37
t-14 72.5l11 -8q-8 -35 -34.5 -62.5t-66.5 -42.5t-90 -15zM251 81q43 0 74 17t48 47t17 71v30l-138 -28q-43 -9 -61.5 -26.5t-18.5 -45.5q0 -31 20.5 -48t58.5 -17zM134 584l94 135h125l94 -135h-94l-78 95h30l-78 -95h-93zM392 688l53 141h119l-79 -141h-93z" />
    <glyph glyph-name="uni1EA6" unicode="&#x1ea6;" horiz-adv-x="709" 
d="M19 0l256 710h159l256 -710h-136l-59 168h-281l-59 -168h-136zM252 279h205l-102 300zM198 760l94 135h125l94 -135h-94l-78 95h30l-78 -95h-93zM505 864l-79 141h119l53 -141h-93z" />
    <glyph glyph-name="uni1EA7" unicode="&#x1ea7;" horiz-adv-x="580" 
d="M225 -12q-84 0 -135 38.5t-51 107.5t43 108t131 56l177 35q0 57 -26 85.5t-77 28.5q-46 0 -72.5 -21.5t-36.5 -61.5l-130 6q16 85 78 130.5t161 45.5q114 0 172.5 -57.5t58.5 -164.5v-194q0 -21 7.5 -29t22.5 -8h17v-93q-6 -2 -19.5 -3t-27.5 -1q-33 0 -59 10.5t-40 37
t-14 72.5l11 -8q-8 -35 -34.5 -62.5t-66.5 -42.5t-90 -15zM251 81q43 0 74 17t48 47t17 71v30l-138 -28q-43 -9 -61.5 -26.5t-18.5 -45.5q0 -31 20.5 -48t58.5 -17zM134 584l94 135h125l94 -135h-94l-78 95h30l-78 -95h-93zM441 688l-79 141h119l53 -141h-93z" />
    <glyph glyph-name="uni1EA8" unicode="&#x1ea8;" horiz-adv-x="709" 
d="M19 0l256 710h159l256 -710h-136l-59 168h-281l-59 -168h-136zM252 279h205l-102 300zM198 760l94 135h125l94 -135h-94l-78 95h30l-78 -95h-93zM455 860q17 19 27 37t10 33q0 12 -7 19t-24 7q-14 0 -26 -2t-20 -4v64q8 3 24.5 4.5t38.5 1.5q50 0 71 -18.5t21 -54.5
q0 -31 -14 -52.5t-29 -34.5h-72z" />
    <glyph glyph-name="uni1EA9" unicode="&#x1ea9;" horiz-adv-x="580" 
d="M225 -12q-84 0 -135 38.5t-51 107.5t43 108t131 56l177 35q0 57 -26 85.5t-77 28.5q-46 0 -72.5 -21.5t-36.5 -61.5l-130 6q16 85 78 130.5t161 45.5q114 0 172.5 -57.5t58.5 -164.5v-194q0 -21 7.5 -29t22.5 -8h17v-93q-6 -2 -19.5 -3t-27.5 -1q-33 0 -59 10.5t-40 37
t-14 72.5l11 -8q-8 -35 -34.5 -62.5t-66.5 -42.5t-90 -15zM251 81q43 0 74 17t48 47t17 71v30l-138 -28q-43 -9 -61.5 -26.5t-18.5 -45.5q0 -31 20.5 -48t58.5 -17zM134 584l94 135h125l94 -135h-94l-78 95h30l-78 -95h-93zM391 684q17 19 27 37t10 33q0 12 -7 19t-24 7
q-14 0 -26 -2t-20 -4v64q8 3 24.5 4.5t38.5 1.5q50 0 71 -18.5t21 -54.5q0 -31 -14 -52.5t-29 -34.5h-72z" />
    <glyph glyph-name="uni1EAA" unicode="&#x1eaa;" horiz-adv-x="709" 
d="M19 0l256 710h159l256 -710h-136l-59 168h-281l-59 -168h-136zM252 279h205l-102 300zM197 759l96 135h124l96 -135h-93l-80 95h30l-80 -95h-93zM411 929q-20 0 -36.5 6t-33.5 20q-12 10 -21 14.5t-20 4.5q-14 0 -24 -10t-12 -41h-65q1 60 27.5 92t71.5 32
q23 0 40.5 -6.5t34.5 -19.5q12 -10 21 -14.5t18 -4.5q15 0 23.5 10t10.5 42h66q-1 -59 -27.5 -92t-73.5 -33z" />
    <glyph glyph-name="uni1EAB" unicode="&#x1eab;" horiz-adv-x="580" 
d="M225 -12q-84 0 -135 38.5t-51 107.5t43 108t131 56l177 35q0 57 -26 85.5t-77 28.5q-46 0 -72.5 -21.5t-36.5 -61.5l-130 6q16 85 78 130.5t161 45.5q114 0 172.5 -57.5t58.5 -164.5v-194q0 -21 7.5 -29t22.5 -8h17v-93q-6 -2 -19.5 -3t-27.5 -1q-33 0 -59 10.5t-40 37
t-14 72.5l11 -8q-8 -35 -34.5 -62.5t-66.5 -42.5t-90 -15zM251 81q43 0 74 17t48 47t17 71v30l-138 -28q-43 -9 -61.5 -26.5t-18.5 -45.5q0 -31 20.5 -48t58.5 -17zM133 583l96 135h124l96 -135h-93l-80 95h30l-80 -95h-93zM347 753q-20 0 -36.5 6t-33.5 20q-12 10 -21 14.5
t-20 4.5q-14 0 -24 -10t-12 -41h-65q1 60 27.5 92t71.5 32q23 0 40.5 -6.5t34.5 -19.5q12 -10 21 -14.5t18 -4.5q15 0 23.5 10t10.5 42h66q-1 -59 -27.5 -92t-73.5 -33z" />
    <glyph glyph-name="uni1EAC" unicode="&#x1eac;" horiz-adv-x="709" 
d="M19 0l256 710h159l256 -710h-136l-59 168h-281l-59 -168h-136zM252 279h205l-102 300zM297 -154v103h115v-103h-115zM197 770l94 146h128l94 -146h-93l-77 106h24l-77 -106h-93z" />
    <glyph glyph-name="uni1EAD" unicode="&#x1ead;" horiz-adv-x="580" 
d="M225 -12q-84 0 -135 38.5t-51 107.5t43 108t131 56l177 35q0 57 -26 85.5t-77 28.5q-46 0 -72.5 -21.5t-36.5 -61.5l-130 6q16 85 78 130.5t161 45.5q114 0 172.5 -57.5t58.5 -164.5v-194q0 -21 7.5 -29t22.5 -8h17v-93q-6 -2 -19.5 -3t-27.5 -1q-33 0 -59 10.5t-40 37
t-14 72.5l11 -8q-8 -35 -34.5 -62.5t-66.5 -42.5t-90 -15zM251 81q43 0 74 17t48 47t17 71v30l-138 -28q-43 -9 -61.5 -26.5t-18.5 -45.5q0 -31 20.5 -48t58.5 -17zM226 -154v103h115v-103h-115zM132 594l94 146h128l94 -146h-93l-77 106h24l-77 -106h-93z" />
    <glyph glyph-name="uni1EAE" unicode="&#x1eae;" horiz-adv-x="709" 
d="M19 0l256 710h159l256 -710h-136l-59 168h-281l-59 -168h-136zM252 279h205l-102 300zM310 918l52 121h114l-75 -121h-91zM354 763q-66 0 -107 37.5t-44 103.5h77q5 -34 24 -49.5t50 -15.5q32 0 51 15.5t23 49.5h77q-3 -66 -43 -103.5t-108 -37.5z" />
    <glyph glyph-name="uni1EAF" unicode="&#x1eaf;" horiz-adv-x="580" 
d="M225 -12q-84 0 -135 38.5t-51 107.5t43 108t131 56l177 35q0 57 -26 85.5t-77 28.5q-46 0 -72.5 -21.5t-36.5 -61.5l-130 6q16 85 78 130.5t161 45.5q114 0 172.5 -57.5t58.5 -164.5v-194q0 -21 7.5 -29t22.5 -8h17v-93q-6 -2 -19.5 -3t-27.5 -1q-33 0 -59 10.5t-40 37
t-14 72.5l11 -8q-8 -35 -34.5 -62.5t-66.5 -42.5t-90 -15zM251 81q43 0 74 17t48 47t17 71v30l-138 -28q-43 -9 -61.5 -26.5t-18.5 -45.5q0 -31 20.5 -48t58.5 -17zM246 742l52 121h114l-75 -121h-91zM290 587q-66 0 -107 37.5t-44 103.5h77q5 -34 24 -49.5t50 -15.5
q32 0 51 15.5t23 49.5h77q-3 -66 -43 -103.5t-108 -37.5z" />
    <glyph glyph-name="uni1EB0" unicode="&#x1eb0;" horiz-adv-x="709" 
d="M19 0l256 710h159l256 -710h-136l-59 168h-281l-59 -168h-136zM252 279h205l-102 300zM310 918l-75 121h114l52 -121h-91zM354 763q-66 0 -107 37.5t-44 103.5h77q5 -34 24 -49.5t50 -15.5q32 0 51 15.5t23 49.5h77q-3 -66 -43 -103.5t-108 -37.5z" />
    <glyph glyph-name="uni1EB1" unicode="&#x1eb1;" horiz-adv-x="580" 
d="M225 -12q-84 0 -135 38.5t-51 107.5t43 108t131 56l177 35q0 57 -26 85.5t-77 28.5q-46 0 -72.5 -21.5t-36.5 -61.5l-130 6q16 85 78 130.5t161 45.5q114 0 172.5 -57.5t58.5 -164.5v-194q0 -21 7.5 -29t22.5 -8h17v-93q-6 -2 -19.5 -3t-27.5 -1q-33 0 -59 10.5t-40 37
t-14 72.5l11 -8q-8 -35 -34.5 -62.5t-66.5 -42.5t-90 -15zM251 81q43 0 74 17t48 47t17 71v30l-138 -28q-43 -9 -61.5 -26.5t-18.5 -45.5q0 -31 20.5 -48t58.5 -17zM246 742l-75 121h114l52 -121h-91zM290 587q-66 0 -107 37.5t-44 103.5h77q5 -34 24 -49.5t50 -15.5
q32 0 51 15.5t23 49.5h77q-3 -66 -43 -103.5t-108 -37.5z" />
    <glyph glyph-name="uni1EB2" unicode="&#x1eb2;" horiz-adv-x="709" 
d="M19 0l256 710h159l256 -710h-136l-59 168h-281l-59 -168h-136zM252 279h205l-102 300zM354 771q-66 0 -107 37.5t-44 103.5h77q5 -34 24 -49.5t50 -15.5q32 0 51 15.5t23 49.5h77q-3 -66 -43 -103.5t-108 -37.5zM390 906h-72q17 19 27.5 35t10.5 31q0 12 -7 19.5t-25 7.5
q-12 0 -23.5 -2t-19.5 -4v62q7 2 23 4t38 2q48 0 69 -18.5t21 -53.5q0 -30 -14 -50.5t-28 -32.5z" />
    <glyph glyph-name="uni1EB3" unicode="&#x1eb3;" horiz-adv-x="580" 
d="M225 -12q-84 0 -135 38.5t-51 107.5t43 108t131 56l177 35q0 57 -26 85.5t-77 28.5q-46 0 -72.5 -21.5t-36.5 -61.5l-130 6q16 85 78 130.5t161 45.5q114 0 172.5 -57.5t58.5 -164.5v-194q0 -21 7.5 -29t22.5 -8h17v-93q-6 -2 -19.5 -3t-27.5 -1q-33 0 -59 10.5t-40 37
t-14 72.5l11 -8q-8 -35 -34.5 -62.5t-66.5 -42.5t-90 -15zM251 81q43 0 74 17t48 47t17 71v30l-138 -28q-43 -9 -61.5 -26.5t-18.5 -45.5q0 -31 20.5 -48t58.5 -17zM290 595q-66 0 -107 37.5t-44 103.5h77q5 -34 24 -49.5t50 -15.5q32 0 51 15.5t23 49.5h77
q-3 -66 -43 -103.5t-108 -37.5zM326 730h-72q17 19 27.5 35t10.5 31q0 12 -7 19.5t-25 7.5q-12 0 -23.5 -2t-19.5 -4v62q7 2 23 4t38 2q48 0 69 -18.5t21 -53.5q0 -30 -14 -50.5t-28 -32.5z" />
    <glyph glyph-name="uni1EB4" unicode="&#x1eb4;" horiz-adv-x="709" 
d="M19 0l256 710h159l256 -710h-136l-59 168h-281l-59 -168h-136zM252 279h205l-102 300zM410 945q-20 0 -37 6t-33 20q-13 10 -21 14.5t-19 4.5q-15 0 -25 -10t-12 -41h-65q1 58 27.5 91t70.5 33q23 0 40.5 -6.5t34.5 -19.5q13 -10 21.5 -14.5t18.5 -4.5q15 0 23.5 10
t10.5 42h66q-1 -58 -27.5 -91.5t-73.5 -33.5zM355 763q-67 0 -107.5 37.5t-43.5 103.5h77q4 -34 23.5 -49.5t50.5 -15.5q32 0 51 15.5t22 49.5h78q-3 -66 -43.5 -103.5t-107.5 -37.5z" />
    <glyph glyph-name="uni1EB5" unicode="&#x1eb5;" horiz-adv-x="580" 
d="M225 -12q-84 0 -135 38.5t-51 107.5t43 108t131 56l177 35q0 57 -26 85.5t-77 28.5q-46 0 -72.5 -21.5t-36.5 -61.5l-130 6q16 85 78 130.5t161 45.5q114 0 172.5 -57.5t58.5 -164.5v-194q0 -21 7.5 -29t22.5 -8h17v-93q-6 -2 -19.5 -3t-27.5 -1q-33 0 -59 10.5t-40 37
t-14 72.5l11 -8q-8 -35 -34.5 -62.5t-66.5 -42.5t-90 -15zM251 81q43 0 74 17t48 47t17 71v30l-138 -28q-43 -9 -61.5 -26.5t-18.5 -45.5q0 -31 20.5 -48t58.5 -17zM346 769q-20 0 -37 6t-33 20q-13 10 -21 14.5t-19 4.5q-15 0 -25 -10t-12 -41h-65q1 58 27.5 91t70.5 33
q23 0 40.5 -6.5t34.5 -19.5q13 -10 21.5 -14.5t18.5 -4.5q15 0 23.5 10t10.5 42h66q-1 -58 -27.5 -91.5t-73.5 -33.5zM291 587q-67 0 -107.5 37.5t-43.5 103.5h77q4 -34 23.5 -49.5t50.5 -15.5q32 0 51 15.5t22 49.5h78q-3 -66 -43.5 -103.5t-107.5 -37.5z" />
    <glyph glyph-name="uni1EB6" unicode="&#x1eb6;" horiz-adv-x="709" 
d="M19 0l256 710h159l256 -710h-136l-59 168h-281l-59 -168h-136zM252 279h205l-102 300zM297 -154v103h115v-103h-115zM354 771q-66 0 -107 37.5t-44 103.5h77q5 -34 24 -49.5t50 -15.5q32 0 51 15.5t23 49.5h77q-3 -66 -43 -103.5t-108 -37.5z" />
    <glyph glyph-name="uni1EB7" unicode="&#x1eb7;" horiz-adv-x="580" 
d="M225 -12q-84 0 -135 38.5t-51 107.5t43 108t131 56l177 35q0 57 -26 85.5t-77 28.5q-46 0 -72.5 -21.5t-36.5 -61.5l-130 6q16 85 78 130.5t161 45.5q114 0 172.5 -57.5t58.5 -164.5v-194q0 -21 7.5 -29t22.5 -8h17v-93q-6 -2 -19.5 -3t-27.5 -1q-33 0 -59 10.5t-40 37
t-14 72.5l11 -8q-8 -35 -34.5 -62.5t-66.5 -42.5t-90 -15zM251 81q43 0 74 17t48 47t17 71v30l-138 -28q-43 -9 -61.5 -26.5t-18.5 -45.5q0 -31 20.5 -48t58.5 -17zM226 -154v103h115v-103h-115zM290 595q-66 0 -107 37.5t-44 103.5h77q5 -34 24 -49.5t50 -15.5
q32 0 51 15.5t23 49.5h77q-3 -66 -43 -103.5t-108 -37.5z" />
    <glyph glyph-name="uni1EB8" unicode="&#x1eb8;" horiz-adv-x="615" 
d="M80 0v710h478v-113h-348v-185h336v-112h-336v-187h356v-113h-486zM264 -154v103h115v-103h-115z" />
    <glyph glyph-name="uni1EB9" unicode="&#x1eb9;" horiz-adv-x="591" 
d="M301 -12q-80 0 -139 34.5t-91 97.5t-32 147t32 146.5t90.5 97.5t136.5 35q76 0 133.5 -34t88.5 -98t31 -154v-29h-379q4 -70 38.5 -105.5t91.5 -35.5q43 0 71.5 19.5t39.5 54.5l131 -8q-22 -78 -86.5 -123t-156.5 -45zM172 317h247q-4 65 -37 96.5t-84 31.5t-84.5 -33
t-41.5 -95zM244 -154v103h115v-103h-115z" />
    <glyph glyph-name="uni1EBA" unicode="&#x1eba;" horiz-adv-x="615" 
d="M80 0v710h478v-113h-348v-185h336v-112h-336v-187h356v-113h-486zM359 765h-80q19 20 31 38t12 35q0 13 -8 21.5t-29 8.5q-12 0 -25.5 -2.5t-22.5 -5.5v70q9 2 27 4.5t42 2.5q54 0 76.5 -20.5t22.5 -59.5q0 -34 -15.5 -56t-30.5 -36z" />
    <glyph glyph-name="uni1EBB" unicode="&#x1ebb;" horiz-adv-x="591" 
d="M301 -12q-80 0 -139 34.5t-91 97.5t-32 147t32 146.5t90.5 97.5t136.5 35q76 0 133.5 -34t88.5 -98t31 -154v-29h-379q4 -70 38.5 -105.5t91.5 -35.5q43 0 71.5 19.5t39.5 54.5l131 -8q-22 -78 -86.5 -123t-156.5 -45zM172 317h247q-4 65 -37 96.5t-84 31.5t-84.5 -33
t-41.5 -95zM340 587h-80q19 20 31 38t12 35q0 13 -8 21.5t-29 8.5q-12 0 -25.5 -2.5t-22.5 -5.5v70q9 2 27 4.5t42 2.5q54 0 76.5 -20.5t22.5 -59.5q0 -34 -15.5 -56t-30.5 -36z" />
    <glyph glyph-name="uni1EBC" unicode="&#x1ebc;" horiz-adv-x="615" 
d="M80 0v710h478v-113h-348v-185h336v-112h-336v-187h356v-113h-486zM377 780q-21 0 -38 6.5t-36 21.5q-13 11 -22 16t-21 5q-15 0 -26 -11.5t-14 -44.5h-67q1 64 29.5 99t76.5 35q24 0 42.5 -7t36.5 -22q14 -11 23.5 -15.5t19.5 -4.5q16 0 26 12t12 46h68
q-2 -64 -30.5 -100t-79.5 -36z" />
    <glyph glyph-name="uni1EBD" unicode="&#x1ebd;" horiz-adv-x="591" 
d="M301 -12q-80 0 -139 34.5t-91 97.5t-32 147t32 146.5t90.5 97.5t136.5 35q76 0 133.5 -34t88.5 -98t31 -154v-29h-379q4 -70 38.5 -105.5t91.5 -35.5q43 0 71.5 19.5t39.5 54.5l131 -8q-22 -78 -86.5 -123t-156.5 -45zM172 317h247q-4 65 -37 96.5t-84 31.5t-84.5 -33
t-41.5 -95zM358 602q-21 0 -38 6.5t-36 21.5q-13 11 -22 16t-21 5q-15 0 -26 -11.5t-14 -44.5h-67q1 64 29.5 99t76.5 35q24 0 42.5 -7t36.5 -22q14 -11 23.5 -15.5t19.5 -4.5q16 0 26 12t12 46h68q-2 -64 -30.5 -100t-79.5 -36z" />
    <glyph glyph-name="uni1EBE" unicode="&#x1ebe;" horiz-adv-x="615" 
d="M80 0v710h478v-113h-348v-185h336v-112h-336v-187h356v-113h-486zM164 760l94 135h125l94 -135h-94l-78 95h30l-78 -95h-93zM422 864l53 141h119l-79 -141h-93z" />
    <glyph glyph-name="uni1EBF" unicode="&#x1ebf;" horiz-adv-x="591" 
d="M301 -12q-80 0 -139 34.5t-91 97.5t-32 147t32 146.5t90.5 97.5t136.5 35q76 0 133.5 -34t88.5 -98t31 -154v-29h-379q4 -70 38.5 -105.5t91.5 -35.5q43 0 71.5 19.5t39.5 54.5l131 -8q-22 -78 -86.5 -123t-156.5 -45zM172 317h247q-4 65 -37 96.5t-84 31.5t-84.5 -33
t-41.5 -95zM145 582l94 135h125l94 -135h-94l-78 95h30l-78 -95h-93zM403 686l53 141h119l-79 -141h-93z" />
    <glyph glyph-name="uni1EC0" unicode="&#x1ec0;" horiz-adv-x="615" 
d="M80 0v710h478v-113h-348v-185h336v-112h-336v-187h356v-113h-486zM164 760l94 135h125l94 -135h-94l-78 95h30l-78 -95h-93zM471 864l-79 141h119l53 -141h-93z" />
    <glyph glyph-name="uni1EC1" unicode="&#x1ec1;" horiz-adv-x="591" 
d="M301 -12q-80 0 -139 34.5t-91 97.5t-32 147t32 146.5t90.5 97.5t136.5 35q76 0 133.5 -34t88.5 -98t31 -154v-29h-379q4 -70 38.5 -105.5t91.5 -35.5q43 0 71.5 19.5t39.5 54.5l131 -8q-22 -78 -86.5 -123t-156.5 -45zM172 317h247q-4 65 -37 96.5t-84 31.5t-84.5 -33
t-41.5 -95zM145 582l94 135h125l94 -135h-94l-78 95h30l-78 -95h-93zM452 686l-79 141h119l53 -141h-93z" />
    <glyph glyph-name="uni1EC2" unicode="&#x1ec2;" horiz-adv-x="615" 
d="M80 0v710h478v-113h-348v-185h336v-112h-336v-187h356v-113h-486zM164 760l94 135h125l94 -135h-94l-78 95h30l-78 -95h-93zM421 860q17 19 27 37t10 33q0 12 -7 19t-24 7q-14 0 -26 -2t-20 -4v64q8 3 24.5 4.5t38.5 1.5q50 0 71 -18.5t21 -54.5q0 -31 -14 -52.5
t-29 -34.5h-72z" />
    <glyph glyph-name="uni1EC3" unicode="&#x1ec3;" horiz-adv-x="591" 
d="M301 -12q-80 0 -139 34.5t-91 97.5t-32 147t32 146.5t90.5 97.5t136.5 35q76 0 133.5 -34t88.5 -98t31 -154v-29h-379q4 -70 38.5 -105.5t91.5 -35.5q43 0 71.5 19.5t39.5 54.5l131 -8q-22 -78 -86.5 -123t-156.5 -45zM172 317h247q-4 65 -37 96.5t-84 31.5t-84.5 -33
t-41.5 -95zM145 582l94 135h125l94 -135h-94l-78 95h30l-78 -95h-93zM402 682q17 19 27 37t10 33q0 12 -7 19t-24 7q-14 0 -26 -2t-20 -4v64q8 3 24.5 4.5t38.5 1.5q50 0 71 -18.5t21 -54.5q0 -31 -14 -52.5t-29 -34.5h-72z" />
    <glyph glyph-name="uni1EC4" unicode="&#x1ec4;" horiz-adv-x="615" 
d="M80 0v710h478v-113h-348v-185h336v-112h-336v-187h356v-113h-486zM163 759l96 135h124l96 -135h-93l-80 95h30l-80 -95h-93zM377 929q-20 0 -36.5 6t-33.5 20q-12 10 -21 14.5t-20 4.5q-14 0 -24 -10t-12 -41h-65q1 60 27.5 92t71.5 32q23 0 40.5 -6.5t34.5 -19.5
q12 -10 21 -14.5t18 -4.5q15 0 23.5 10t10.5 42h66q-1 -59 -27.5 -92t-73.5 -33z" />
    <glyph glyph-name="uni1EC5" unicode="&#x1ec5;" horiz-adv-x="591" 
d="M301 -12q-80 0 -139 34.5t-91 97.5t-32 147t32 146.5t90.5 97.5t136.5 35q76 0 133.5 -34t88.5 -98t31 -154v-29h-379q4 -70 38.5 -105.5t91.5 -35.5q43 0 71.5 19.5t39.5 54.5l131 -8q-22 -78 -86.5 -123t-156.5 -45zM172 317h247q-4 65 -37 96.5t-84 31.5t-84.5 -33
t-41.5 -95zM144 581l96 135h124l96 -135h-93l-80 95h30l-80 -95h-93zM358 751q-20 0 -36.5 6t-33.5 20q-12 10 -21 14.5t-20 4.5q-14 0 -24 -10t-12 -41h-65q1 60 27.5 92t71.5 32q23 0 40.5 -6.5t34.5 -19.5q12 -10 21 -14.5t18 -4.5q15 0 23.5 10t10.5 42h66
q-1 -59 -27.5 -92t-73.5 -33z" />
    <glyph glyph-name="uni1EC6" unicode="&#x1ec6;" horiz-adv-x="615" 
d="M80 0v710h478v-113h-348v-185h336v-112h-336v-187h356v-113h-486zM264 -154v103h115v-103h-115zM162 770l94 146h128l94 -146h-93l-77 106h24l-77 -106h-93z" />
    <glyph glyph-name="uni1EC7" unicode="&#x1ec7;" horiz-adv-x="591" 
d="M301 -12q-80 0 -139 34.5t-91 97.5t-32 147t32 146.5t90.5 97.5t136.5 35q76 0 133.5 -34t88.5 -98t31 -154v-29h-379q4 -70 38.5 -105.5t91.5 -35.5q43 0 71.5 19.5t39.5 54.5l131 -8q-22 -78 -86.5 -123t-156.5 -45zM172 317h247q-4 65 -37 96.5t-84 31.5t-84.5 -33
t-41.5 -95zM244 -154v103h115v-103h-115zM144 592l94 146h128l94 -146h-93l-77 106h24l-77 -106h-93z" />
    <glyph glyph-name="uni1EC8" unicode="&#x1ec8;" horiz-adv-x="290" 
d="M80 0v710h130v-710h-130zM184 765h-80q19 20 31 38t12 35q0 13 -8 21.5t-29 8.5q-12 0 -25.5 -2.5t-22.5 -5.5v70q9 2 27 4.5t42 2.5q54 0 76.5 -20.5t22.5 -59.5q0 -34 -15.5 -56t-30.5 -36z" />
    <glyph glyph-name="uni1EC9" unicode="&#x1ec9;" horiz-adv-x="269" 
d="M70 0v534h128v-534h-128zM173 589h-80q19 20 31 38t12 35q0 13 -8 21.5t-29 8.5q-12 0 -25.5 -2.5t-22.5 -5.5v70q9 2 27 4.5t42 2.5q54 0 76.5 -20.5t22.5 -59.5q0 -34 -15.5 -56t-30.5 -36z" />
    <glyph glyph-name="uni1ECA" unicode="&#x1eca;" horiz-adv-x="290" 
d="M80 0v710h130v-710h-130zM87 -154v103h115v-103h-115z" />
    <glyph glyph-name="uni1ECB" unicode="&#x1ecb;" horiz-adv-x="269" 
d="M70 0v534h128v-534h-128zM68 605v114h133v-114h-133zM77 -154v103h115v-103h-115z" />
    <glyph glyph-name="uni1ECC" unicode="&#x1ecc;" horiz-adv-x="763" 
d="M381 -16q-105 0 -181 44.5t-116.5 127.5t-40.5 198t40.5 198.5t116.5 128.5t181 45q107 0 182.5 -45t116 -128.5t40.5 -198.5t-40.5 -198t-116 -127.5t-182.5 -44.5zM381 97q65 0 110.5 30.5t70 88t24.5 138.5t-24.5 139t-70 89t-110.5 31q-63 0 -109 -31t-70.5 -89
t-24.5 -139t24.5 -138.5t70.5 -88t109 -30.5zM324 -154v103h115v-103h-115z" />
    <glyph glyph-name="uni1ECD" unicode="&#x1ecd;" horiz-adv-x="603" 
d="M302 -12q-79 0 -138.5 34.5t-92 97.5t-32.5 147q0 85 32.5 147.5t92 97t138.5 34.5t138 -34.5t91.5 -97t32.5 -147.5q0 -84 -32.5 -147t-91.5 -97.5t-138 -34.5zM302 92q62 0 95.5 46t33.5 129q0 82 -33.5 128.5t-95.5 46.5t-96 -46.5t-34 -128.5q0 -83 34 -129t96 -46z
M244 -154v103h115v-103h-115z" />
    <glyph glyph-name="uni1ECE" unicode="&#x1ece;" horiz-adv-x="763" 
d="M381 -16q-105 0 -181 44.5t-116.5 127.5t-40.5 198t40.5 198.5t116.5 128.5t181 45q107 0 182.5 -45t116 -128.5t40.5 -198.5t-40.5 -198t-116 -127.5t-182.5 -44.5zM381 97q65 0 110.5 30.5t70 88t24.5 138.5t-24.5 139t-70 89t-110.5 31q-63 0 -109 -31t-70.5 -89
t-24.5 -139t24.5 -138.5t70.5 -88t109 -30.5zM420 765h-80q19 20 31 38t12 35q0 13 -8 21.5t-29 8.5q-12 0 -25.5 -2.5t-22.5 -5.5v70q9 2 27 4.5t42 2.5q54 0 76.5 -20.5t22.5 -59.5q0 -34 -15.5 -56t-30.5 -36z" />
    <glyph glyph-name="uni1ECF" unicode="&#x1ecf;" horiz-adv-x="603" 
d="M302 -12q-79 0 -138.5 34.5t-92 97.5t-32.5 147q0 85 32.5 147.5t92 97t138.5 34.5t138 -34.5t91.5 -97t32.5 -147.5q0 -84 -32.5 -147t-91.5 -97.5t-138 -34.5zM302 92q62 0 95.5 46t33.5 129q0 82 -33.5 128.5t-95.5 46.5t-96 -46.5t-34 -128.5q0 -83 34 -129t96 -46z
M340 589h-80q19 20 31 38t12 35q0 13 -8 21.5t-29 8.5q-12 0 -25.5 -2.5t-22.5 -5.5v70q9 2 27 4.5t42 2.5q54 0 76.5 -20.5t22.5 -59.5q0 -34 -15.5 -56t-30.5 -36z" />
    <glyph glyph-name="uni1ED0" unicode="&#x1ed0;" horiz-adv-x="763" 
d="M381 -16q-105 0 -181 44.5t-116.5 127.5t-40.5 198t40.5 198.5t116.5 128.5t181 45q107 0 182.5 -45t116 -128.5t40.5 -198.5t-40.5 -198t-116 -127.5t-182.5 -44.5zM381 97q65 0 110.5 30.5t70 88t24.5 138.5t-24.5 139t-70 89t-110.5 31q-63 0 -109 -31t-70.5 -89
t-24.5 -139t24.5 -138.5t70.5 -88t109 -30.5zM225 760l94 135h125l94 -135h-94l-78 95h30l-78 -95h-93zM483 864l53 141h119l-79 -141h-93z" />
    <glyph glyph-name="uni1ED1" unicode="&#x1ed1;" horiz-adv-x="603" 
d="M302 -12q-79 0 -138.5 34.5t-92 97.5t-32.5 147q0 85 32.5 147.5t92 97t138.5 34.5t138 -34.5t91.5 -97t32.5 -147.5q0 -84 -32.5 -147t-91.5 -97.5t-138 -34.5zM302 92q62 0 95.5 46t33.5 129q0 82 -33.5 128.5t-95.5 46.5t-96 -46.5t-34 -128.5q0 -83 34 -129t96 -46z
M145 584l94 135h125l94 -135h-94l-78 95h30l-78 -95h-93zM403 688l53 141h119l-79 -141h-93z" />
    <glyph glyph-name="uni1ED2" unicode="&#x1ed2;" horiz-adv-x="763" 
d="M381 -16q-105 0 -181 44.5t-116.5 127.5t-40.5 198t40.5 198.5t116.5 128.5t181 45q107 0 182.5 -45t116 -128.5t40.5 -198.5t-40.5 -198t-116 -127.5t-182.5 -44.5zM381 97q65 0 110.5 30.5t70 88t24.5 138.5t-24.5 139t-70 89t-110.5 31q-63 0 -109 -31t-70.5 -89
t-24.5 -139t24.5 -138.5t70.5 -88t109 -30.5zM225 760l94 135h125l94 -135h-94l-78 95h30l-78 -95h-93zM532 864l-79 141h119l53 -141h-93z" />
    <glyph glyph-name="uni1ED3" unicode="&#x1ed3;" horiz-adv-x="603" 
d="M302 -12q-79 0 -138.5 34.5t-92 97.5t-32.5 147q0 85 32.5 147.5t92 97t138.5 34.5t138 -34.5t91.5 -97t32.5 -147.5q0 -84 -32.5 -147t-91.5 -97.5t-138 -34.5zM302 92q62 0 95.5 46t33.5 129q0 82 -33.5 128.5t-95.5 46.5t-96 -46.5t-34 -128.5q0 -83 34 -129t96 -46z
M145 584l94 135h125l94 -135h-94l-78 95h30l-78 -95h-93zM452 688l-79 141h119l53 -141h-93z" />
    <glyph glyph-name="uni1ED4" unicode="&#x1ed4;" horiz-adv-x="763" 
d="M381 -16q-105 0 -181 44.5t-116.5 127.5t-40.5 198t40.5 198.5t116.5 128.5t181 45q107 0 182.5 -45t116 -128.5t40.5 -198.5t-40.5 -198t-116 -127.5t-182.5 -44.5zM381 97q65 0 110.5 30.5t70 88t24.5 138.5t-24.5 139t-70 89t-110.5 31q-63 0 -109 -31t-70.5 -89
t-24.5 -139t24.5 -138.5t70.5 -88t109 -30.5zM225 760l94 135h125l94 -135h-94l-78 95h30l-78 -95h-93zM482 860q17 19 27 37t10 33q0 12 -7 19t-24 7q-14 0 -26 -2t-20 -4v64q8 3 24.5 4.5t38.5 1.5q50 0 71 -18.5t21 -54.5q0 -31 -14 -52.5t-29 -34.5h-72z" />
    <glyph glyph-name="uni1ED5" unicode="&#x1ed5;" horiz-adv-x="603" 
d="M302 -12q-79 0 -138.5 34.5t-92 97.5t-32.5 147q0 85 32.5 147.5t92 97t138.5 34.5t138 -34.5t91.5 -97t32.5 -147.5q0 -84 -32.5 -147t-91.5 -97.5t-138 -34.5zM302 92q62 0 95.5 46t33.5 129q0 82 -33.5 128.5t-95.5 46.5t-96 -46.5t-34 -128.5q0 -83 34 -129t96 -46z
M145 584l94 135h125l94 -135h-94l-78 95h30l-78 -95h-93zM402 684q17 19 27 37t10 33q0 12 -7 19t-24 7q-14 0 -26 -2t-20 -4v64q8 3 24.5 4.5t38.5 1.5q50 0 71 -18.5t21 -54.5q0 -31 -14 -52.5t-29 -34.5h-72z" />
    <glyph glyph-name="uni1ED6" unicode="&#x1ed6;" horiz-adv-x="763" 
d="M381 -16q-105 0 -181 44.5t-116.5 127.5t-40.5 198t40.5 198.5t116.5 128.5t181 45q107 0 182.5 -45t116 -128.5t40.5 -198.5t-40.5 -198t-116 -127.5t-182.5 -44.5zM381 97q65 0 110.5 30.5t70 88t24.5 138.5t-24.5 139t-70 89t-110.5 31q-63 0 -109 -31t-70.5 -89
t-24.5 -139t24.5 -138.5t70.5 -88t109 -30.5zM224 759l96 135h124l96 -135h-93l-80 95h30l-80 -95h-93zM438 929q-20 0 -36.5 6t-33.5 20q-12 10 -21 14.5t-20 4.5q-14 0 -24 -10t-12 -41h-65q1 60 27.5 92t71.5 32q23 0 40.5 -6.5t34.5 -19.5q12 -10 21 -14.5t18 -4.5
q15 0 23.5 10t10.5 42h66q-1 -59 -27.5 -92t-73.5 -33z" />
    <glyph glyph-name="uni1ED7" unicode="&#x1ed7;" horiz-adv-x="603" 
d="M302 -12q-79 0 -138.5 34.5t-92 97.5t-32.5 147q0 85 32.5 147.5t92 97t138.5 34.5t138 -34.5t91.5 -97t32.5 -147.5q0 -84 -32.5 -147t-91.5 -97.5t-138 -34.5zM302 92q62 0 95.5 46t33.5 129q0 82 -33.5 128.5t-95.5 46.5t-96 -46.5t-34 -128.5q0 -83 34 -129t96 -46z
M144 583l96 135h124l96 -135h-93l-80 95h30l-80 -95h-93zM358 753q-20 0 -36.5 6t-33.5 20q-12 10 -21 14.5t-20 4.5q-14 0 -24 -10t-12 -41h-65q1 60 27.5 92t71.5 32q23 0 40.5 -6.5t34.5 -19.5q12 -10 21 -14.5t18 -4.5q15 0 23.5 10t10.5 42h66q-1 -59 -27.5 -92
t-73.5 -33z" />
    <glyph glyph-name="uni1ED8" unicode="&#x1ed8;" horiz-adv-x="763" 
d="M381 -16q-105 0 -181 44.5t-116.5 127.5t-40.5 198t40.5 198.5t116.5 128.5t181 45q107 0 182.5 -45t116 -128.5t40.5 -198.5t-40.5 -198t-116 -127.5t-182.5 -44.5zM381 97q65 0 110.5 30.5t70 88t24.5 138.5t-24.5 139t-70 89t-110.5 31q-63 0 -109 -31t-70.5 -89
t-24.5 -139t24.5 -138.5t70.5 -88t109 -30.5zM324 -154v103h115v-103h-115zM223 770l94 146h128l94 -146h-93l-77 106h24l-77 -106h-93z" />
    <glyph glyph-name="uni1ED9" unicode="&#x1ed9;" horiz-adv-x="603" 
d="M302 -12q-79 0 -138.5 34.5t-92 97.5t-32.5 147q0 85 32.5 147.5t92 97t138.5 34.5t138 -34.5t91.5 -97t32.5 -147.5q0 -84 -32.5 -147t-91.5 -97.5t-138 -34.5zM302 92q62 0 95.5 46t33.5 129q0 82 -33.5 128.5t-95.5 46.5t-96 -46.5t-34 -128.5q0 -83 34 -129t96 -46z
M244 -154v103h115v-103h-115zM144 594l94 146h128l94 -146h-93l-77 106h24l-77 -106h-93z" />
    <glyph glyph-name="uni1EDA" unicode="&#x1eda;" horiz-adv-x="763" 
d="M381 -16q-105 0 -181 44.5t-116.5 127.5t-40.5 198t40.5 198.5t116.5 128.5t181 45q107 0 182.5 -45t116 -128.5t40.5 -198.5t-40.5 -198t-116 -127.5t-182.5 -44.5zM381 97q65 0 110.5 30.5t70 88t24.5 138.5t-24.5 139t-70 89t-110.5 31q-63 0 -109 -31t-70.5 -89
t-24.5 -139t24.5 -138.5t70.5 -88t109 -30.5zM484 649l-7 61h53q26 0 40.5 12t14.5 40q0 24 -4.5 50.5t-9.5 44.5h101q6 -15 10 -41t4 -52q0 -60 -36 -87.5t-106 -27.5h-60zM323 770l61 140h129l-90 -140h-100z" />
    <glyph glyph-name="uni1EDB" unicode="&#x1edb;" horiz-adv-x="603" 
d="M302 -12q-79 0 -138.5 34.5t-92 97.5t-32.5 147q0 85 32.5 147.5t92 97t138.5 34.5t138 -34.5t91.5 -97t32.5 -147.5q0 -84 -32.5 -147t-91.5 -97.5t-138 -34.5zM302 92q62 0 95.5 46t33.5 129q0 82 -33.5 128.5t-95.5 46.5t-96 -46.5t-34 -128.5q0 -83 34 -129t96 -46z
M373 473l-7 61h53q26 0 40.5 12t14.5 40q0 24 -4.5 50.5t-9.5 44.5h101q6 -15 10 -41t4 -52q0 -60 -36 -87.5t-106 -27.5h-60zM230 594l61 140h129l-90 -140h-100z" />
    <glyph glyph-name="uni1EDC" unicode="&#x1edc;" horiz-adv-x="763" 
d="M381 -16q-105 0 -181 44.5t-116.5 127.5t-40.5 198t40.5 198.5t116.5 128.5t181 45q107 0 182.5 -45t116 -128.5t40.5 -198.5t-40.5 -198t-116 -127.5t-182.5 -44.5zM381 97q65 0 110.5 30.5t70 88t24.5 138.5t-24.5 139t-70 89t-110.5 31q-63 0 -109 -31t-70.5 -89
t-24.5 -139t24.5 -138.5t70.5 -88t109 -30.5zM484 649l-7 61h53q26 0 40.5 12t14.5 40q0 24 -4.5 50.5t-9.5 44.5h101q6 -15 10 -41t4 -52q0 -60 -36 -87.5t-106 -27.5h-60zM339 769l-90 141h129l61 -141h-100z" />
    <glyph glyph-name="uni1EDD" unicode="&#x1edd;" horiz-adv-x="603" 
d="M302 -12q-79 0 -138.5 34.5t-92 97.5t-32.5 147q0 85 32.5 147.5t92 97t138.5 34.5t138 -34.5t91.5 -97t32.5 -147.5q0 -84 -32.5 -147t-91.5 -97.5t-138 -34.5zM302 92q62 0 95.5 46t33.5 129q0 82 -33.5 128.5t-95.5 46.5t-96 -46.5t-34 -128.5q0 -83 34 -129t96 -46z
M373 473l-7 61h53q26 0 40.5 12t14.5 40q0 24 -4.5 50.5t-9.5 44.5h101q6 -15 10 -41t4 -52q0 -60 -36 -87.5t-106 -27.5h-60zM245 593l-90 141h129l61 -141h-100z" />
    <glyph glyph-name="uni1EDE" unicode="&#x1ede;" horiz-adv-x="763" 
d="M381 -16q-105 0 -181 44.5t-116.5 127.5t-40.5 198t40.5 198.5t116.5 128.5t181 45q107 0 182.5 -45t116 -128.5t40.5 -198.5t-40.5 -198t-116 -127.5t-182.5 -44.5zM381 97q65 0 110.5 30.5t70 88t24.5 138.5t-24.5 139t-70 89t-110.5 31q-63 0 -109 -31t-70.5 -89
t-24.5 -139t24.5 -138.5t70.5 -88t109 -30.5zM484 649l-7 61h53q26 0 40.5 12t14.5 40q0 24 -4.5 50.5t-9.5 44.5h101q6 -15 10 -41t4 -52q0 -60 -36 -87.5t-106 -27.5h-60zM420 765h-80q19 20 31 38t12 35q0 13 -8 21.5t-29 8.5q-12 0 -25.5 -2.5t-22.5 -5.5v70q9 2 27 4.5
t42 2.5q54 0 76.5 -20.5t22.5 -59.5q0 -34 -15.5 -56t-30.5 -36z" />
    <glyph glyph-name="uni1EDF" unicode="&#x1edf;" horiz-adv-x="603" 
d="M302 -12q-79 0 -138.5 34.5t-92 97.5t-32.5 147q0 85 32.5 147.5t92 97t138.5 34.5t138 -34.5t91.5 -97t32.5 -147.5q0 -84 -32.5 -147t-91.5 -97.5t-138 -34.5zM302 92q62 0 95.5 46t33.5 129q0 82 -33.5 128.5t-95.5 46.5t-96 -46.5t-34 -128.5q0 -83 34 -129t96 -46z
M373 473l-7 61h53q26 0 40.5 12t14.5 40q0 24 -4.5 50.5t-9.5 44.5h101q6 -15 10 -41t4 -52q0 -60 -36 -87.5t-106 -27.5h-60zM326 589h-80q19 20 31 38t12 35q0 13 -8 21.5t-29 8.5q-12 0 -25.5 -2.5t-22.5 -5.5v70q9 2 27 4.5t42 2.5q54 0 76.5 -20.5t22.5 -59.5
q0 -34 -15.5 -56t-30.5 -36z" />
    <glyph glyph-name="uni1EE0" unicode="&#x1ee0;" horiz-adv-x="763" 
d="M381 -16q-105 0 -181 44.5t-116.5 127.5t-40.5 198t40.5 198.5t116.5 128.5t181 45q107 0 182.5 -45t116 -128.5t40.5 -198.5t-40.5 -198t-116 -127.5t-182.5 -44.5zM381 97q65 0 110.5 30.5t70 88t24.5 138.5t-24.5 139t-70 89t-110.5 31q-63 0 -109 -31t-70.5 -89
t-24.5 -139t24.5 -138.5t70.5 -88t109 -30.5zM484 649l-7 61h53q26 0 40.5 12t14.5 40q0 24 -4.5 50.5t-9.5 44.5h101q6 -15 10 -41t4 -52q0 -60 -36 -87.5t-106 -27.5h-60zM438 780q-21 0 -38 6.5t-36 21.5q-13 11 -22 16t-21 5q-15 0 -26 -11.5t-14 -44.5h-67
q1 64 29.5 99t76.5 35q24 0 42.5 -7t36.5 -22q14 -11 23.5 -15.5t19.5 -4.5q16 0 26 12t12 46h68q-2 -64 -30.5 -100t-79.5 -36z" />
    <glyph glyph-name="uni1EE1" unicode="&#x1ee1;" horiz-adv-x="603" 
d="M302 -12q-79 0 -138.5 34.5t-92 97.5t-32.5 147q0 85 32.5 147.5t92 97t138.5 34.5t138 -34.5t91.5 -97t32.5 -147.5q0 -84 -32.5 -147t-91.5 -97.5t-138 -34.5zM302 92q62 0 95.5 46t33.5 129q0 82 -33.5 128.5t-95.5 46.5t-96 -46.5t-34 -128.5q0 -83 34 -129t96 -46z
M373 473l-7 61h53q26 0 40.5 12t14.5 40q0 24 -4.5 50.5t-9.5 44.5h101q6 -15 10 -41t4 -52q0 -60 -36 -87.5t-106 -27.5h-60zM344 604q-21 0 -38 6.5t-36 21.5q-13 11 -22 16t-21 5q-15 0 -26 -11.5t-14 -44.5h-67q1 64 29.5 99t76.5 35q24 0 42.5 -7t36.5 -22
q14 -11 23.5 -15.5t19.5 -4.5q16 0 26 12t12 46h68q-2 -64 -30.5 -100t-79.5 -36z" />
    <glyph glyph-name="uni1EE2" unicode="&#x1ee2;" horiz-adv-x="763" 
d="M381 -16q-105 0 -181 44.5t-116.5 127.5t-40.5 198t40.5 198.5t116.5 128.5t181 45q107 0 182.5 -45t116 -128.5t40.5 -198.5t-40.5 -198t-116 -127.5t-182.5 -44.5zM381 97q65 0 110.5 30.5t70 88t24.5 138.5t-24.5 139t-70 89t-110.5 31q-63 0 -109 -31t-70.5 -89
t-24.5 -139t24.5 -138.5t70.5 -88t109 -30.5zM484 649l-7 61h53q26 0 40.5 12t14.5 40q0 24 -4.5 50.5t-9.5 44.5h101q6 -15 10 -41t4 -52q0 -60 -36 -87.5t-106 -27.5h-60zM324 -154v103h115v-103h-115z" />
    <glyph glyph-name="uni1EE3" unicode="&#x1ee3;" horiz-adv-x="603" 
d="M302 -12q-79 0 -138.5 34.5t-92 97.5t-32.5 147q0 85 32.5 147.5t92 97t138.5 34.5t138 -34.5t91.5 -97t32.5 -147.5q0 -84 -32.5 -147t-91.5 -97.5t-138 -34.5zM302 92q62 0 95.5 46t33.5 129q0 82 -33.5 128.5t-95.5 46.5t-96 -46.5t-34 -128.5q0 -83 34 -129t96 -46z
M373 473l-7 61h53q26 0 40.5 12t14.5 40q0 24 -4.5 50.5t-9.5 44.5h101q6 -15 10 -41t4 -52q0 -60 -36 -87.5t-106 -27.5h-60zM244 -154v103h115v-103h-115z" />
    <glyph glyph-name="uni1EE4" unicode="&#x1ee4;" horiz-adv-x="699" 
d="M349 -16q-86 0 -150.5 33t-99 93.5t-34.5 143.5v456h130v-456q0 -75 40 -116t114 -41t114.5 41t40.5 116v456h130v-456q0 -83 -35 -143.5t-98.5 -93.5t-151.5 -33zM292 -154v103h115v-103h-115z" />
    <glyph glyph-name="uni1EE5" unicode="&#x1ee5;" horiz-adv-x="597" 
d="M246 -12q-81 0 -128.5 53.5t-47.5 148.5v344h128v-312q0 -67 22.5 -98.5t68.5 -31.5q52 0 80.5 34.5t28.5 100.5v307h128v-534h-117l-3 147l16 -5q-12 -76 -57 -115t-119 -39zM238 -154v103h115v-103h-115z" />
    <glyph glyph-name="uni1EE6" unicode="&#x1ee6;" horiz-adv-x="699" 
d="M349 -16q-86 0 -150.5 33t-99 93.5t-34.5 143.5v456h130v-456q0 -75 40 -116t114 -41t114.5 41t40.5 116v456h130v-456q0 -83 -35 -143.5t-98.5 -93.5t-151.5 -33zM388 765h-80q19 20 31 38t12 35q0 13 -8 21.5t-29 8.5q-12 0 -25.5 -2.5t-22.5 -5.5v70q9 2 27 4.5
t42 2.5q54 0 76.5 -20.5t22.5 -59.5q0 -34 -15.5 -56t-30.5 -36z" />
    <glyph glyph-name="uni1EE7" unicode="&#x1ee7;" horiz-adv-x="597" 
d="M246 -12q-81 0 -128.5 53.5t-47.5 148.5v344h128v-312q0 -67 22.5 -98.5t68.5 -31.5q52 0 80.5 34.5t28.5 100.5v307h128v-534h-117l-3 147l16 -5q-12 -76 -57 -115t-119 -39zM334 589h-80q19 20 31 38t12 35q0 13 -8 21.5t-29 8.5q-12 0 -25.5 -2.5t-22.5 -5.5v70
q9 2 27 4.5t42 2.5q54 0 76.5 -20.5t22.5 -59.5q0 -34 -15.5 -56t-30.5 -36z" />
    <glyph glyph-name="uni1EE8" unicode="&#x1ee8;" horiz-adv-x="699" 
d="M349 -16q-86 0 -150.5 33t-99 93.5t-34.5 143.5v456h130v-456q0 -75 40 -116t114 -41t114.5 41t40.5 116v456h130v-456q0 -83 -35 -143.5t-98.5 -93.5t-151.5 -33zM518 649l-7 61h53q26 0 40.5 12t14.5 40q0 24 -4.5 50.5t-9.5 44.5h101q6 -15 10 -41t4 -52
q0 -60 -36 -87.5t-106 -27.5h-60zM291 770l61 140h129l-90 -140h-100z" />
    <glyph glyph-name="uni1EE9" unicode="&#x1ee9;" horiz-adv-x="605" 
d="M246 -12q-81 0 -128.5 53.5t-47.5 148.5v344h128v-312q0 -67 22.5 -98.5t68.5 -31.5q52 0 80.5 34.5t28.5 100.5v307h128v-534h-117l-3 147l16 -5q-12 -76 -57 -115t-119 -39zM413 473l-7 61h53q26 0 40.5 12t14.5 40q0 24 -4.5 50.5t-9.5 44.5h101q6 -15 10 -41t4 -52
q0 -60 -36 -87.5t-106 -27.5h-60zM234 594l61 140h129l-90 -140h-100z" />
    <glyph glyph-name="uni1EEA" unicode="&#x1eea;" horiz-adv-x="699" 
d="M349 -16q-86 0 -150.5 33t-99 93.5t-34.5 143.5v456h130v-456q0 -75 40 -116t114 -41t114.5 41t40.5 116v456h130v-456q0 -83 -35 -143.5t-98.5 -93.5t-151.5 -33zM518 649l-7 61h53q26 0 40.5 12t14.5 40q0 24 -4.5 50.5t-9.5 44.5h101q6 -15 10 -41t4 -52
q0 -60 -36 -87.5t-106 -27.5h-60zM307 769l-90 141h129l61 -141h-100z" />
    <glyph glyph-name="uni1EEB" unicode="&#x1eeb;" horiz-adv-x="605" 
d="M246 -12q-81 0 -128.5 53.5t-47.5 148.5v344h128v-312q0 -67 22.5 -98.5t68.5 -31.5q52 0 80.5 34.5t28.5 100.5v307h128v-534h-117l-3 147l16 -5q-12 -76 -57 -115t-119 -39zM413 473l-7 61h53q26 0 40.5 12t14.5 40q0 24 -4.5 50.5t-9.5 44.5h101q6 -15 10 -41t4 -52
q0 -60 -36 -87.5t-106 -27.5h-60zM249 593l-90 141h129l61 -141h-100z" />
    <glyph glyph-name="uni1EEC" unicode="&#x1eec;" horiz-adv-x="699" 
d="M349 -16q-86 0 -150.5 33t-99 93.5t-34.5 143.5v456h130v-456q0 -75 40 -116t114 -41t114.5 41t40.5 116v456h130v-456q0 -83 -35 -143.5t-98.5 -93.5t-151.5 -33zM518 649l-7 61h53q26 0 40.5 12t14.5 40q0 24 -4.5 50.5t-9.5 44.5h101q6 -15 10 -41t4 -52
q0 -60 -36 -87.5t-106 -27.5h-60zM388 765h-80q19 20 31 38t12 35q0 13 -8 21.5t-29 8.5q-12 0 -25.5 -2.5t-22.5 -5.5v70q9 2 27 4.5t42 2.5q54 0 76.5 -20.5t22.5 -59.5q0 -34 -15.5 -56t-30.5 -36z" />
    <glyph glyph-name="uni1EED" unicode="&#x1eed;" horiz-adv-x="605" 
d="M246 -12q-81 0 -128.5 53.5t-47.5 148.5v344h128v-312q0 -67 22.5 -98.5t68.5 -31.5q52 0 80.5 34.5t28.5 100.5v307h128v-534h-117l-3 147l16 -5q-12 -76 -57 -115t-119 -39zM413 473l-7 61h53q26 0 40.5 12t14.5 40q0 24 -4.5 50.5t-9.5 44.5h101q6 -15 10 -41t4 -52
q0 -60 -36 -87.5t-106 -27.5h-60zM330 589h-80q19 20 31 38t12 35q0 13 -8 21.5t-29 8.5q-12 0 -25.5 -2.5t-22.5 -5.5v70q9 2 27 4.5t42 2.5q54 0 76.5 -20.5t22.5 -59.5q0 -34 -15.5 -56t-30.5 -36z" />
    <glyph glyph-name="uni1EEE" unicode="&#x1eee;" horiz-adv-x="699" 
d="M349 -16q-86 0 -150.5 33t-99 93.5t-34.5 143.5v456h130v-456q0 -75 40 -116t114 -41t114.5 41t40.5 116v456h130v-456q0 -83 -35 -143.5t-98.5 -93.5t-151.5 -33zM518 649l-7 61h53q26 0 40.5 12t14.5 40q0 24 -4.5 50.5t-9.5 44.5h101q6 -15 10 -41t4 -52
q0 -60 -36 -87.5t-106 -27.5h-60zM406 780q-21 0 -38 6.5t-36 21.5q-13 11 -22 16t-21 5q-15 0 -26 -11.5t-14 -44.5h-67q1 64 29.5 99t76.5 35q24 0 42.5 -7t36.5 -22q14 -11 23.5 -15.5t19.5 -4.5q16 0 26 12t12 46h68q-2 -64 -30.5 -100t-79.5 -36z" />
    <glyph glyph-name="uni1EEF" unicode="&#x1eef;" horiz-adv-x="605" 
d="M246 -12q-81 0 -128.5 53.5t-47.5 148.5v344h128v-312q0 -67 22.5 -98.5t68.5 -31.5q52 0 80.5 34.5t28.5 100.5v307h128v-534h-117l-3 147l16 -5q-12 -76 -57 -115t-119 -39zM413 473l-7 61h53q26 0 40.5 12t14.5 40q0 24 -4.5 50.5t-9.5 44.5h101q6 -15 10 -41t4 -52
q0 -60 -36 -87.5t-106 -27.5h-60zM348 604q-21 0 -38 6.5t-36 21.5q-13 11 -22 16t-21 5q-15 0 -26 -11.5t-14 -44.5h-67q1 64 29.5 99t76.5 35q24 0 42.5 -7t36.5 -22q14 -11 23.5 -15.5t19.5 -4.5q16 0 26 12t12 46h68q-2 -64 -30.5 -100t-79.5 -36z" />
    <glyph glyph-name="uni1EF0" unicode="&#x1ef0;" horiz-adv-x="699" 
d="M349 -16q-86 0 -150.5 33t-99 93.5t-34.5 143.5v456h130v-456q0 -75 40 -116t114 -41t114.5 41t40.5 116v456h130v-456q0 -83 -35 -143.5t-98.5 -93.5t-151.5 -33zM518 649l-7 61h53q26 0 40.5 12t14.5 40q0 24 -4.5 50.5t-9.5 44.5h101q6 -15 10 -41t4 -52
q0 -60 -36 -87.5t-106 -27.5h-60zM292 -154v103h115v-103h-115z" />
    <glyph glyph-name="uni1EF1" unicode="&#x1ef1;" horiz-adv-x="605" 
d="M246 -12q-81 0 -128.5 53.5t-47.5 148.5v344h128v-312q0 -67 22.5 -98.5t68.5 -31.5q52 0 80.5 34.5t28.5 100.5v307h128v-534h-117l-3 147l16 -5q-12 -76 -57 -115t-119 -39zM413 473l-7 61h53q26 0 40.5 12t14.5 40q0 24 -4.5 50.5t-9.5 44.5h101q6 -15 10 -41t4 -52
q0 -60 -36 -87.5t-106 -27.5h-60zM238 -154v103h115v-103h-115z" />
    <glyph glyph-name="Ygrave" unicode="&#x1ef2;" horiz-adv-x="613" 
d="M241 0v280l-248 430h146l168 -302l167 302h146l-248 -430v-280h-131zM264 769l-90 141h129l61 -141h-100z" />
    <glyph glyph-name="ygrave" unicode="&#x1ef3;" horiz-adv-x="570" 
d="M108 -150v99h68q26 0 38.5 8t19.5 27l15 37h-37l-191 513h133l134 -393l128 393h133l-209 -590q-18 -50 -50.5 -72t-90.5 -22h-91zM243 593l-90 141h129l61 -141h-100z" />
    <glyph glyph-name="uni1EF4" unicode="&#x1ef4;" horiz-adv-x="613" 
d="M241 0v280l-248 430h146l168 -302l167 302h146l-248 -430v-280h-131zM249 -154v103h115v-103h-115z" />
    <glyph glyph-name="uni1EF5" unicode="&#x1ef5;" horiz-adv-x="570" 
d="M108 -150v99h68q26 0 38.5 8t19.5 27l15 37h-37l-191 513h133l134 -393l128 393h133l-209 -590q-18 -50 -50.5 -72t-90.5 -22h-91zM380 -150v103h115v-103h-115z" />
    <glyph glyph-name="uni1EF6" unicode="&#x1ef6;" horiz-adv-x="613" 
d="M241 0v280l-248 430h146l168 -302l167 302h146l-248 -430v-280h-131zM345 765h-80q19 20 31 38t12 35q0 13 -8 21.5t-29 8.5q-12 0 -25.5 -2.5t-22.5 -5.5v70q9 2 27 4.5t42 2.5q54 0 76.5 -20.5t22.5 -59.5q0 -34 -15.5 -56t-30.5 -36z" />
    <glyph glyph-name="uni1EF7" unicode="&#x1ef7;" horiz-adv-x="570" 
d="M108 -150v99h68q26 0 38.5 8t19.5 27l15 37h-37l-191 513h133l134 -393l128 393h133l-209 -590q-18 -50 -50.5 -72t-90.5 -22h-91zM324 589h-80q19 20 31 38t12 35q0 13 -8 21.5t-29 8.5q-12 0 -25.5 -2.5t-22.5 -5.5v70q9 2 27 4.5t42 2.5q54 0 76.5 -20.5t22.5 -59.5
q0 -34 -15.5 -56t-30.5 -36z" />
    <glyph glyph-name="uni1EF8" unicode="&#x1ef8;" horiz-adv-x="613" 
d="M241 0v280l-248 430h146l168 -302l167 302h146l-248 -430v-280h-131zM363 780q-21 0 -38 6.5t-36 21.5q-13 11 -22 16t-21 5q-15 0 -26 -11.5t-14 -44.5h-67q1 64 29.5 99t76.5 35q24 0 42.5 -7t36.5 -22q14 -11 23.5 -15.5t19.5 -4.5q16 0 26 12t12 46h68
q-2 -64 -30.5 -100t-79.5 -36z" />
    <glyph glyph-name="uni1EF9" unicode="&#x1ef9;" horiz-adv-x="570" 
d="M108 -150v99h68q26 0 38.5 8t19.5 27l15 37h-37l-191 513h133l134 -393l128 393h133l-209 -590q-18 -50 -50.5 -72t-90.5 -22h-91zM342 604q-21 0 -38 6.5t-36 21.5q-13 11 -22 16t-21 5q-15 0 -26 -11.5t-14 -44.5h-67q1 64 29.5 99t76.5 35q24 0 42.5 -7t36.5 -22
q14 -11 23.5 -15.5t19.5 -4.5q16 0 26 12t12 46h68q-2 -64 -30.5 -100t-79.5 -36z" />
    <glyph glyph-name="endash" unicode="&#x2013;" horiz-adv-x="594" 
d="M39 238v108h516v-108h-516z" />
    <glyph glyph-name="emdash" unicode="&#x2014;" horiz-adv-x="910" 
d="M39 238v108h832v-108h-832z" />
    <glyph glyph-name="quoteleft" unicode="&#x2018;" horiz-adv-x="232" 
d="M181 726l-52 -158h60v-139h-146v124l66 173h72z" />
    <glyph glyph-name="quoteright" unicode="&#x2019;" horiz-adv-x="232" 
d="M52 412l52 158h-61v140h146v-124l-66 -174h-71z" />
    <glyph glyph-name="quotesinglbase" unicode="&#x201a;" horiz-adv-x="225" 
d="M48 -158l52 158h-61v140h146v-124l-66 -174h-71z" />
    <glyph glyph-name="quotedblleft" unicode="&#x201c;" horiz-adv-x="431" 
d="M181 726l-52 -158h60v-139h-146v124l66 173h72zM379 726l-52 -158h61v-139h-146v124l66 173h71z" />
    <glyph glyph-name="quotedblright" unicode="&#x201d;" horiz-adv-x="431" 
d="M250 412l52 158h-61v140h146v-124l-66 -174h-71zM52 412l52 158h-61v140h146v-124l-66 -174h-71z" />
    <glyph glyph-name="quotedblbase" unicode="&#x201e;" horiz-adv-x="423" 
d="M247 -161l52 158h-61v140h146v-124l-66 -174h-71zM48 -161l52 158h-61v140h146v-124l-66 -174h-71z" />
    <glyph glyph-name="dagger" unicode="&#x2020;" horiz-adv-x="586" 
d="M233 0v710h120v-710h-120zM80 432v102h426v-102h-426z" />
    <glyph glyph-name="daggerdbl" unicode="&#x2021;" horiz-adv-x="586" 
d="M233 0v710h120v-710h-120zM80 170v102h426v-102h-426zM80 432v102h426v-102h-426z" />
    <glyph glyph-name="bullet" unicode="&#x2022;" horiz-adv-x="345" 
d="M173 175q-40 0 -70 17t-47 46.5t-17 66.5q0 38 17 67.5t47 46t70 16.5t70 -16.5t46.5 -46t16.5 -67.5q0 -37 -16.5 -66.5t-46.5 -46.5t-70 -17z" />
    <glyph glyph-name="ellipsis" unicode="&#x2026;" horiz-adv-x="654" 
d="M39 0v140h146v-140h-146zM254 0v140h146v-140h-146zM468 0v140h146v-140h-146z" />
    <glyph glyph-name="uni2028" unicode="&#x2028;" horiz-adv-x="600" 
 />
    <glyph glyph-name="uni2029" unicode="&#x2029;" horiz-adv-x="600" 
 />
    <glyph glyph-name="perthousand" unicode="&#x2030;" horiz-adv-x="1197" 
d="M201 366q-70 0 -116 44t-46 132t46 132t116 44q71 0 116.5 -44t45.5 -132t-45.5 -132t-116.5 -44zM201 438q35 0 52.5 26.5t17.5 77.5t-17.5 77.5t-52.5 26.5q-34 0 -52 -26.5t-18 -77.5t18 -77.5t52 -26.5zM617 -8q-70 0 -116 44t-46 132t46 132t116 44q71 0 116 -44
t45 -132t-45 -132t-116 -44zM617 64q35 0 52.5 26.5t17.5 77.5t-17.5 77.5t-52.5 26.5q-34 0 -52 -26.5t-18 -77.5t18 -77.5t52 -26.5zM996 -8q-70 0 -116 44t-46 132t46 132t116 44q71 0 116.5 -44t45.5 -132t-45.5 -132t-116.5 -44zM996 64q35 0 52.5 26.5t17.5 77.5
t-17.5 77.5t-52.5 26.5q-34 0 -52 -26.5t-18 -77.5t18 -77.5t52 -26.5zM126 0l478 710h88l-478 -710h-88z" />
    <glyph glyph-name="minute" unicode="&#x2032;" horiz-adv-x="240" 
d="M40 477l41 233h119l-53 -233h-107z" />
    <glyph glyph-name="second" unicode="&#x2033;" horiz-adv-x="401" 
d="M40 477l41 233h119l-53 -233h-107zM201 477l41 233h119l-53 -233h-107z" />
    <glyph glyph-name="guilsinglleft" unicode="&#x2039;" horiz-adv-x="364" 
d="M325 76h-146l-140 163v74l140 163h146l-171 -200z" />
    <glyph glyph-name="guilsinglright" unicode="&#x203a;" horiz-adv-x="364" 
d="M39 76l171 200l-171 200h146l140 -163v-74l-140 -163h-146z" />
    <glyph glyph-name="fraction" unicode="&#x2044;" horiz-adv-x="166" 
d="M-200 0l478 710h88l-478 -710h-88z" />
    <glyph glyph-name="uni2070" unicode="&#x2070;" horiz-adv-x="415" 
d="M208 315q-78 0 -123 54t-45 148q0 95 45 148t123 53q77 0 122 -53t45 -148q0 -94 -45 -148t-122 -54zM208 386q40 0 60 33t20 98q0 64 -20.5 97t-59.5 33q-40 0 -60 -32t-20 -98q0 -60 21.5 -95.5t58.5 -35.5zM157 380l-33 50l135 225l33 -50z" />
    <glyph glyph-name="uni2074" unicode="&#x2074;" horiz-adv-x="350" 
d="M192 323v81h-182v64l177 242h92v-235h51v-71h-51v-81h-87zM95 475h97v125z" />
    <glyph glyph-name="uni2075" unicode="&#x2075;" horiz-adv-x="369" 
d="M187 315q-69 0 -105.5 28.5t-41.5 78.5l86 4q5 -21 20.5 -31t40.5 -10q33 0 49.5 18t16.5 48q0 29 -15.5 48t-44.5 19q-25 0 -40 -9.5t-24 -25.5h-82l29 227h239v-71h-166l-10 -84q12 12 30 18.5t43 6.5q65 0 96 -36t31 -93q0 -63 -39.5 -99.5t-112.5 -36.5z" />
    <glyph glyph-name="uni2076" unicode="&#x2076;" horiz-adv-x="392" 
d="M196 315q-72 0 -114 46t-42 138q0 63 18 112.5t56 78t97 28.5q61 0 94.5 -25t43.5 -73l-80 -8q-4 18 -19.5 28t-40.5 10q-36 0 -57.5 -26t-25.5 -74q11 15 32.5 25.5t52.5 10.5q63 0 101 -33.5t38 -100.5q0 -65 -42.5 -101t-111.5 -36zM197 385q34 0 52.5 19t18.5 50
q0 32 -18 49.5t-52 17.5q-20 0 -35.5 -8t-24.5 -22.5t-10 -35.5q-1 -32 18.5 -51t50.5 -19z" />
    <glyph glyph-name="uni2077" unicode="&#x2077;" horiz-adv-x="310" 
d="M87 322q0 57 13 111.5t38 105.5t60 96h-178v75h270v-64q-38 -48 -64 -97t-39.5 -104.5t-13.5 -122.5h-86z" />
    <glyph glyph-name="uni2078" unicode="&#x2078;" horiz-adv-x="374" 
d="M187 315q-81 0 -119 30t-38 82q0 37 22 64t64 41q-32 10 -50.5 30t-18.5 56q0 47 34 73.5t106 26.5q73 0 106.5 -26.5t33.5 -73.5q0 -36 -18 -56t-51 -30q41 -14 63.5 -41t22.5 -64q0 -52 -37.5 -82t-119.5 -30zM187 385q34 0 51.5 12.5t17.5 39.5q0 26 -17.5 43
t-51.5 17q-33 0 -51 -17t-18 -43q0 -27 18 -39.5t51 -12.5zM187 559q25 0 39.5 11.5t14.5 35.5q0 20 -13.5 31t-40.5 11q-26 0 -40 -11t-14 -31q0 -24 14.5 -35.5t39.5 -11.5z" />
    <glyph glyph-name="uni2079" unicode="&#x2079;" horiz-adv-x="392" 
d="M196 718q72 0 114 -46t42 -138q0 -63 -18 -112.5t-56 -78t-97 -28.5q-61 0 -94.5 25t-43.5 73l80 8q4 -18 19 -28t41 -10q36 0 57.5 26t25.5 74q-10 -15 -31.5 -25.5t-53.5 -10.5q-63 0 -101.5 33.5t-38.5 100.5q0 65 43 101t112 36zM194 648q-33 0 -52 -19t-19 -50
q0 -32 18.5 -49.5t52.5 -17.5q20 0 35.5 8t24.5 22.5t9 35.5q1 32 -18 51t-51 19z" />
    <glyph glyph-name="uni2080" unicode="&#x2080;" horiz-adv-x="415" 
d="M208 -108q-78 0 -123 54t-45 148q0 95 45 148t123 53q77 0 122 -53t45 -148q0 -94 -45 -148t-122 -54zM208 -37q40 0 60 33t20 98q0 64 -20.5 97t-59.5 33q-40 0 -60 -32t-20 -98q0 -60 21.5 -95.5t58.5 -35.5zM157 -43l-33 50l135 225l33 -50z" />
    <glyph glyph-name="uni2081" unicode="&#x2081;" horiz-adv-x="268" 
d="M121 -100v233h-101v66h26q46 0 69 23.5t23 65.5h70v-388h-87z" />
    <glyph glyph-name="uni2082" unicode="&#x2082;" horiz-adv-x="364" 
d="M42 -100q0 50 8 84t30 59t66 47l49 25q17 10 27 18t14 18.5t4 25.5q0 22 -14 35t-39 13q-29 0 -45 -14.5t-21 -47.5l-80 4q6 61 43.5 94.5t102.5 33.5q67 0 101 -32.5t34 -83.5q0 -47 -24 -74.5t-68 -49.5l-44 -22q-28 -15 -39 -29.5t-11 -28.5h187v-75h-281z" />
    <glyph glyph-name="uni2083" unicode="&#x2083;" horiz-adv-x="357" 
d="M173 -108q-56 0 -88.5 13t-47 38.5t-17.5 61.5l86 3q2 -21 18 -33.5t49 -12.5q32 0 49 13.5t17 38.5q0 24 -17 38.5t-53 14.5h-29v65h29q25 0 40 11.5t15 33.5q0 21 -13 34t-42 13q-26 0 -41 -12t-17 -32l-87 5q6 51 41.5 80.5t103.5 29.5q73 0 107 -29t34 -75
q0 -36 -18 -56.5t-54 -29.5q49 -10 69 -35t20 -60q0 -53 -40 -85.5t-114 -32.5z" />
    <glyph glyph-name="uni2084" unicode="&#x2084;" horiz-adv-x="350" 
d="M192 -100v81h-182v64l177 242h92v-235h51v-71h-51v-81h-87zM95 52h97v125z" />
    <glyph glyph-name="uni2085" unicode="&#x2085;" horiz-adv-x="369" 
d="M187 -108q-69 0 -105.5 28.5t-41.5 78.5l86 4q5 -21 20.5 -31t40.5 -10q33 0 49.5 18t16.5 48q0 29 -15.5 48t-44.5 19q-25 0 -40 -9.5t-24 -25.5h-82l29 227h239v-71h-166l-10 -84q12 12 30 18.5t43 6.5q65 0 96 -36t31 -93q0 -63 -39.5 -99.5t-112.5 -36.5z" />
    <glyph glyph-name="uni2086" unicode="&#x2086;" horiz-adv-x="392" 
d="M196 -108q-72 0 -114 46t-42 138q0 63 18 112.5t56 78t97 28.5q61 0 94.5 -25t43.5 -73l-80 -8q-4 18 -19.5 28t-40.5 10q-36 0 -57.5 -26t-25.5 -74q11 15 32.5 25.5t52.5 10.5q63 0 101 -33.5t38 -100.5q0 -65 -42.5 -101t-111.5 -36zM197 -38q34 0 52.5 19t18.5 50
q0 32 -18 49.5t-52 17.5q-20 0 -35.5 -8t-24.5 -22.5t-10 -35.5q-1 -32 18.5 -51t50.5 -19z" />
    <glyph glyph-name="uni2087" unicode="&#x2087;" horiz-adv-x="310" 
d="M87 -100q0 57 13 111.5t38 105.5t60 96h-178v75h270v-64q-38 -48 -64 -97t-39.5 -104.5t-13.5 -122.5h-86z" />
    <glyph glyph-name="uni2088" unicode="&#x2088;" horiz-adv-x="374" 
d="M187 -108q-81 0 -119 30t-38 82q0 37 22 64t64 41q-32 10 -50.5 30t-18.5 56q0 47 34 73.5t106 26.5q73 0 106.5 -26.5t33.5 -73.5q0 -36 -18 -56t-51 -30q41 -14 63.5 -41t22.5 -64q0 -52 -37.5 -82t-119.5 -30zM187 -38q34 0 51.5 12.5t17.5 39.5q0 26 -17.5 43
t-51.5 17q-33 0 -51 -17t-18 -43q0 -27 18 -39.5t51 -12.5zM187 136q25 0 39.5 11.5t14.5 35.5q0 20 -13.5 31t-40.5 11q-26 0 -40 -11t-14 -31q0 -24 14.5 -35.5t39.5 -11.5z" />
    <glyph glyph-name="uni2089" unicode="&#x2089;" horiz-adv-x="392" 
d="M196 295q72 0 114 -46t42 -138q0 -63 -18 -112.5t-56 -78t-97 -28.5q-61 0 -94.5 25t-43.5 73l80 8q4 -18 19 -28t41 -10q36 0 57.5 26t25.5 74q-10 -15 -31.5 -25.5t-53.5 -10.5q-63 0 -101.5 33.5t-38.5 100.5q0 65 43 101t112 36zM194 225q-33 0 -52 -19t-19 -50
q0 -32 18.5 -49.5t52.5 -17.5q20 0 35.5 8t24.5 22.5t9 35.5q1 32 -18 51t-51 19z" />
    <glyph glyph-name="uni20AA" unicode="&#x20aa;" horiz-adv-x="834" 
d="M270 0v547h108v-456h204q29 0 45 17t16 45v557h111v-560q0 -69 -40 -109.5t-109 -40.5h-335zM80 0v710h334q70 0 110 -40.5t40 -109.5v-397h-108v394q0 29 -16 45.5t-44 16.5h-204v-619h-112z" />
    <glyph glyph-name="Euro" unicode="&#x20ac;" horiz-adv-x="752" 
d="M438 -16q-68 0 -124.5 27.5t-98.5 77t-65 117t-23 148.5t23 149t65 118t98.5 77.5t124.5 27.5t124 -30t94.5 -83.5t53.5 -125.5l-135 -7q-13 60 -50.5 96.5t-88.5 36.5q-57 0 -96 -33.5t-59 -92t-20 -133.5q0 -74 20 -132.5t59 -91.5t96 -33q54 0 92 40.5t49 105.5
l137 -7q-13 -75 -51.5 -132t-95.5 -88.5t-129 -31.5zM53 235v78h409l-11 -78h-398zM53 387v78h430l-12 -78h-418z" />
    <glyph glyph-name="uni20B1" unicode="&#x20b1;" horiz-adv-x="728" 
d="M110 0v710h243q125 0 195 -64t70 -185t-70 -185.5t-195 -64.5h-113v-211h-130zM240 317h107q68 0 103.5 33.5t35.5 110.5q0 76 -35.5 109.5t-103.5 33.5h-107v-287zM30 483v70h668v-70h-668zM30 368v70h668v-70h-668z" />
    <glyph glyph-name="uni20B4" unicode="&#x20b4;" horiz-adv-x="707" 
d="M53 385v78h400q12 12 17.5 25t5.5 30q0 41 -28.5 68.5t-82.5 27.5q-47 0 -77.5 -24.5t-50.5 -70.5l-134 13q24 90 90.5 142t165.5 52q79 0 135 -25.5t85.5 -71t29.5 -107.5q0 -18 -4.5 -33.5t-10.5 -25.5h60v-78h-601zM348 -12q-75 0 -130 23.5t-85 67t-30 102.5
q0 17 3 30.5t7 23.5h-60v78h601v-78h-403q-6 -10 -10.5 -21.5t-4.5 -25.5q0 -38 30.5 -62.5t78.5 -24.5q46 0 81.5 21.5t52.5 58.5l143 -8q-22 -86 -95.5 -135.5t-178.5 -49.5z" />
    <glyph glyph-name="uni20B9" unicode="&#x20b9;" horiz-adv-x="700" 
d="M358 0l-278 258v105h217q46 0 76.5 13t46 40t15.5 66t-15.5 64.5t-46 38.5t-76.5 13h-217v105h222q77 0 137 -25.5t95 -74t35 -119.5q0 -70 -32.5 -120.5t-92 -77t-142.5 -26.5h-60l286 -260h-170zM80 440v80h566v-80h-566zM80 630v80h566v-80h-566z" />
    <glyph glyph-name="uni20BD" unicode="&#x20bd;" horiz-adv-x="729" 
d="M40 107v80h393v-80h-393zM144 0v710h275q125 0 195 -60t70 -166q0 -71 -31.5 -122.5t-91 -78.5t-142.5 -27h-145v-256h-130zM274 369h139q66 0 101.5 29t35.5 86q0 56 -35 84.5t-102 28.5h-139v-228z" />
    <glyph glyph-name="uni2116" unicode="&#x2116;" horiz-adv-x="1164" 
d="M757 0v92h298v-92h-298zM80 0v710h152l306 -534v534h130v-710h-156l-302 519v-519h-130zM906 170q-83 0 -131 47.5t-48 127.5t48 127.5t131 47.5q82 0 130 -48t48 -127q0 -80 -48 -127.5t-130 -47.5zM906 245q35 0 53.5 26t18.5 74q0 47 -18.5 73.5t-53.5 26.5
q-36 0 -54.5 -26.5t-18.5 -73.5q0 -48 18.5 -74t54.5 -26z" />
    <glyph glyph-name="uni2117" unicode="&#x2117;" horiz-adv-x="644" 
d="M322 167q-58 0 -108.5 21.5t-89 60t-60 89.5t-21.5 109t21.5 108.5t60 89t89 60t108.5 21.5q59 0 109 -21.5t88.5 -60t60 -89t21.5 -108.5t-21.5 -109t-60 -89.5t-88.5 -60t-109 -21.5zM322 229q63 0 111 29.5t76 79.5t28 109t-28 108t-76 78.5t-111 29.5
q-61 0 -110 -29.5t-77 -78.5t-28 -108t28 -109t77 -79.5t110 -29.5zM223 298v299h113q60 0 92 -25.5t32 -69.5t-32 -69t-92 -25h-42v-110h-71zM293 464h41q25 0 39.5 9.5t14.5 28.5q0 18 -14.5 27t-39.5 9h-41v-74z" />
    <glyph glyph-name="trademark" unicode="&#x2122;" horiz-adv-x="904" 
d="M580 359l-134 351h74l120 -320h-40l121 320h69l-130 -351h-80zM183 359v350h85v-350h-85zM80 634v76h291v-76h-291zM416 359v351h80v-351h-80zM744 359v351h80v-351h-80z" />
    <glyph glyph-name="uni2153" unicode="&#x2153;" horiz-adv-x="823" 
d="M121 323v233h-101v66h26q46 0 69 23.5t23 65.5h70v-388h-87zM100 0l478 710h88l-478 -710h-88zM639 -8q-56 0 -88.5 13t-47 38.5t-17.5 61.5l86 3q2 -21 18 -33.5t49 -12.5q32 0 49 13.5t17 38.5q0 24 -17 38.5t-53 14.5h-29v65h29q25 0 40 11.5t15 33.5q0 21 -13 34
t-42 13q-26 0 -41 -12t-17 -32l-87 5q6 51 41.5 80.5t103.5 29.5q73 0 107 -29t34 -75q0 -36 -18 -56.5t-54 -29.5q49 -10 69 -35t20 -60q0 -53 -40 -85.5t-114 -32.5z" />
    <glyph glyph-name="uni2154" unicode="&#x2154;" horiz-adv-x="887" 
d="M42 323q0 50 8 84t30 59t66 47l49 25q17 10 27 18t14 18.5t4 25.5q0 22 -14 35t-39 13q-29 0 -45 -14.5t-21 -47.5l-80 4q6 61 43.5 94.5t102.5 33.5q67 0 101 -32.5t34 -83.5q0 -47 -24 -74.5t-68 -49.5l-44 -22q-28 -15 -39 -29.5t-11 -28.5h187v-75h-281zM164 0
l478 710h88l-478 -710h-88zM703 -8q-56 0 -88.5 13t-47 38.5t-17.5 61.5l86 3q2 -21 18 -33.5t49 -12.5q32 0 49 13.5t17 38.5q0 24 -17 38.5t-53 14.5h-29v65h29q25 0 40 11.5t15 33.5q0 21 -13 34t-42 13q-26 0 -41 -12t-17 -32l-87 5q6 51 41.5 80.5t103.5 29.5
q73 0 107 -29t34 -75q0 -36 -18 -56.5t-54 -29.5q49 -10 69 -35t20 -60q0 -53 -40 -85.5t-114 -32.5z" />
    <glyph glyph-name="uni2155" unicode="&#x2155;" horiz-adv-x="835" 
d="M121 323v233h-101v66h26q46 0 69 23.5t23 65.5h70v-388h-87zM100 0l478 710h88l-478 -710h-88zM653 -8q-69 0 -105.5 28.5t-41.5 78.5l86 4q5 -21 20.5 -31t40.5 -10q33 0 49.5 18t16.5 48q0 29 -15.5 48t-44.5 19q-25 0 -40 -9.5t-24 -25.5h-82l29 227h239v-71h-166
l-10 -84q12 12 30 18.5t43 6.5q65 0 96 -36t31 -93q0 -63 -39.5 -99.5t-112.5 -36.5z" />
    <glyph glyph-name="oneeighth" unicode="&#x215b;" horiz-adv-x="840" 
d="M121 323v233h-101v66h26q46 0 69 23.5t23 65.5h70v-388h-87zM100 0l478 710h88l-478 -710h-88zM653 -8q-81 0 -119 30t-38 82q0 37 22 64t64 41q-32 10 -50.5 30t-18.5 56q0 47 34 73.5t106 26.5q73 0 106.5 -26.5t33.5 -73.5q0 -36 -18 -56t-51 -30q41 -14 63.5 -41
t22.5 -64q0 -52 -37.5 -82t-119.5 -30zM653 62q34 0 51.5 12.5t17.5 39.5q0 26 -17.5 43t-51.5 17q-33 0 -51 -17t-18 -43q0 -27 18 -39.5t51 -12.5zM653 236q25 0 39.5 11.5t14.5 35.5q0 20 -13.5 31t-40.5 11q-26 0 -40 -11t-14 -31q0 -24 14.5 -35.5t39.5 -11.5z" />
    <glyph glyph-name="threeeighths" unicode="&#x215c;" horiz-adv-x="897" 
d="M173 315q-56 0 -88.5 13t-47 38.5t-17.5 61.5l86 3q2 -21 18 -33.5t49 -12.5q32 0 49 13.5t17 38.5q0 24 -17 38.5t-53 14.5h-29v65h29q25 0 40 11.5t15 33.5q0 21 -13 34t-42 13q-26 0 -41 -12t-17 -32l-87 5q6 51 41.5 80.5t103.5 29.5q73 0 107 -29t34 -75
q0 -36 -18 -56.5t-54 -29.5q49 -10 69 -35t20 -60q0 -53 -40 -85.5t-114 -32.5zM157 0l478 710h88l-478 -710h-88zM710 -8q-81 0 -119 30t-38 82q0 37 22 64t64 41q-32 10 -50.5 30t-18.5 56q0 47 34 73.5t106 26.5q73 0 106.5 -26.5t33.5 -73.5q0 -36 -18 -56t-51 -30
q41 -14 63.5 -41t22.5 -64q0 -52 -37.5 -82t-119.5 -30zM710 62q34 0 51.5 12.5t17.5 39.5q0 26 -17.5 43t-51.5 17q-33 0 -51 -17t-18 -43q0 -27 18 -39.5t51 -12.5zM710 236q25 0 39.5 11.5t14.5 35.5q0 20 -13.5 31t-40.5 11q-26 0 -40 -11t-14 -31q0 -24 14.5 -35.5
t39.5 -11.5z" />
    <glyph glyph-name="fiveeighths" unicode="&#x215d;" horiz-adv-x="909" 
d="M187 315q-69 0 -105.5 28.5t-41.5 78.5l86 4q5 -21 20.5 -31t40.5 -10q33 0 49.5 18t16.5 48q0 29 -15.5 48t-44.5 19q-25 0 -40 -9.5t-24 -25.5h-82l29 227h239v-71h-166l-10 -84q12 12 30 18.5t43 6.5q65 0 96 -36t31 -93q0 -63 -39.5 -99.5t-112.5 -36.5zM169 0
l478 710h88l-478 -710h-88zM722 -8q-81 0 -119 30t-38 82q0 37 22 64t64 41q-32 10 -50.5 30t-18.5 56q0 47 34 73.5t106 26.5q73 0 106.5 -26.5t33.5 -73.5q0 -36 -18 -56t-51 -30q41 -14 63.5 -41t22.5 -64q0 -52 -37.5 -82t-119.5 -30zM722 62q34 0 51.5 12.5t17.5 39.5
q0 26 -17.5 43t-51.5 17q-33 0 -51 -17t-18 -43q0 -27 18 -39.5t51 -12.5zM722 236q25 0 39.5 11.5t14.5 35.5q0 20 -13.5 31t-40.5 11q-26 0 -40 -11t-14 -31q0 -24 14.5 -35.5t39.5 -11.5z" />
    <glyph glyph-name="seveneighths" unicode="&#x215e;" horiz-adv-x="820" 
d="M87 322q0 57 13 111.5t38 105.5t60 96h-178v75h270v-64q-38 -48 -64 -97t-39.5 -104.5t-13.5 -122.5h-86zM80 0l478 710h88l-478 -710h-88zM633 -8q-81 0 -119 30t-38 82q0 37 22 64t64 41q-32 10 -50.5 30t-18.5 56q0 47 34 73.5t106 26.5q73 0 106.5 -26.5t33.5 -73.5
q0 -36 -18 -56t-51 -30q41 -14 63.5 -41t22.5 -64q0 -52 -37.5 -82t-119.5 -30zM633 62q34 0 51.5 12.5t17.5 39.5q0 26 -17.5 43t-51.5 17q-33 0 -51 -17t-18 -43q0 -27 18 -39.5t51 -12.5zM633 236q25 0 39.5 11.5t14.5 35.5q0 20 -13.5 31t-40.5 11q-26 0 -40 -11
t-14 -31q0 -24 14.5 -35.5t39.5 -11.5z" />
    <glyph glyph-name="arrowleft" unicode="&#x2190;" horiz-adv-x="796" 
d="M493 44h-139l-311 311l310 311h139l-310 -310zM753 417v-125h-639v125h639z" />
    <glyph glyph-name="arrowup" unicode="&#x2191;" horiz-adv-x="708" 
d="M665 260l-312 311l-310 -310v139l311 310l311 -311v-139zM292 0v639h125v-639h-125z" />
    <glyph glyph-name="arrowright" unicode="&#x2192;" horiz-adv-x="796" 
d="M303 44l311 312l-310 310h139l310 -311l-311 -311h-139zM43 417h639v-125h-639v125z" />
    <glyph glyph-name="arrowdown" unicode="&#x2193;" horiz-adv-x="708" 
d="M665 450v-139l-311 -311l-311 310v139l310 -310zM292 710h125v-639h-125v639z" />
    <glyph glyph-name="arrowboth" unicode="&#x2194;" horiz-adv-x="1067" 
d="M574 44l311 312l-310 310h139l310 -311l-311 -311h-139zM314 417h639v-125h-639v125zM493 44h-139l-311 311l310 311h139l-310 -310zM753 417v-125h-639v125h639z" />
    <glyph glyph-name="arrowupdn" unicode="&#x2195;" horiz-adv-x="708" 
d="M43 315l312 -311l310 310v-139l-311 -310l-311 311v139zM416 575v-639h-125v639h125zM43 396v139l311 311l311 -310v-139l-310 310zM416 136h-125v638h125v-638z" />
    <glyph glyph-name="uni2196" unicode="&#x2196;" horiz-adv-x="632" 
d="M142 90l-99 98v440l439 1l99 -98h-439v-441zM589 169l-88 -88l-452 452l89 88z" />
    <glyph glyph-name="uni2197" unicode="&#x2197;" horiz-adv-x="632" 
d="M490 90v441h-439l99 98l439 -1v-440zM43 169l451 452l89 -88l-452 -452z" />
    <glyph glyph-name="uni2198" unicode="&#x2198;" horiz-adv-x="633" 
d="M51 180h441v439l98 -98l-1 -439h-440zM131 628l452 -452l-88 -88l-452 452z" />
    <glyph glyph-name="uni2199" unicode="&#x2199;" horiz-adv-x="633" 
d="M582 180l-98 -98h-440l-1 439l98 98v-439h441zM502 628l88 -88l-452 -452l-88 88z" />
    <glyph glyph-name="uni219D" unicode="&#x219d;" horiz-adv-x="648" 
d="M371 172q-22 0 -46.5 10t-44 32.5t-27.5 61.5q-8 40 -17.5 61t-33.5 21q-18 0 -34.5 -15.5t-26.5 -44.5h-98q8 46 33 80.5t59.5 54t69.5 19.5q43 0 73.5 -29t40.5 -81q5 -33 16.5 -53.5t33.5 -20.5q18 0 36.5 17t37.5 50l84 -49q-30 -53 -71.5 -83.5t-84.5 -30.5z
M605 230l-245 144l224 104z" />
    <glyph glyph-name="uni21A9" unicode="&#x21a9;" horiz-adv-x="658" 
d="M386 236h-277v98h277q37 0 66 16.5t46.5 44t17.5 60.5q0 34 -17.5 61.5t-46.5 43.5t-66 16h-295v99h295q65 0 116.5 -29.5t82 -79t30.5 -111.5t-30.5 -111.5t-82 -78.5t-116.5 -29zM338 117h-127l-168 168l167 168h127l-168 -167z" />
    </font>
</defs>
</svg>
