<svg width="62" height="62" viewBox="0 0 62 62" fill="none" xmlns="http://www.w3.org/2000/svg">
<circle cx="31" cy="31" r="31" fill="#CCCCCC"/>
<path d="M43.4882 32.8795C45.3247 36.0605 45.3228 39.8582 43.4875 43.0376C42.5832 44.6051 41.2877 45.8741 39.7666 46.7524C38.2455 47.6306 36.4975 48.1188 34.6891 48.1173L26.7898 48.1194C24.2229 48.118 21.7783 47.1381 19.9318 45.4479C19.174 44.7585 18.5162 43.9485 17.9915 43.0397L17.6821 42.5038C16.7899 40.9585 17.2829 38.9903 18.7755 38.042C17.2918 39.0292 17.9992 41.4009 19.8204 41.4186L26.62 41.4931L26.8169 41.4728L33.5324 41.472C35.274 41.6019 37.0743 41.2278 38.7011 40.2886C41.6058 38.6115 43.2258 35.5615 43.2118 32.4332C43.3079 32.578 43.4 32.7268 43.4882 32.8795Z" fill="url(#paint0_linear_318_129)"/>
<path d="M43.498 19.2153L43.8059 19.7487C44.6827 21.2672 44.2263 23.1872 42.7975 24.1547C44.1354 23.1531 43.4308 20.9157 41.6787 20.897L35.2633 20.8264L35.2514 20.8265C35.0691 20.7949 34.8853 20.7793 34.7001 20.7799L34.6731 20.7802L27.6323 20.7788C25.9422 20.6853 24.2041 21.0642 22.6257 21.9755C19.8024 23.6056 18.1947 26.5297 18.1209 29.5678C18.0797 29.5045 18.0407 29.4398 18.0039 29.374C16.1673 26.1931 16.1659 22.3955 18.0031 19.2133C19.8118 16.0816 23.185 14.1341 26.8015 14.1336L34.701 14.1349C37.2679 14.1362 39.7105 15.1156 41.557 16.8058C42.3148 17.4952 42.9718 18.3039 43.498 19.2153Z" fill="url(#paint1_linear_318_129)"/>
<path d="M23.4773 33.9041C23.2847 33.841 23.0963 33.7704 22.9121 33.6924C23.0989 33.769 23.2873 33.8395 23.4773 33.9041Z" fill="#1F1E21"/>
<path d="M42.8279 32.4244C42.8414 35.458 41.2706 38.4167 38.4524 40.0438C37.4277 40.6354 36.3338 40.9955 35.2289 41.1395C36.0073 40.8768 37.0911 40.2171 37.5136 39.4878C38.4138 37.931 37.9136 35.8828 36.4035 34.9047C35.8788 34.5661 35.1864 34.3752 34.5604 34.3786L26.9127 34.3813C25.7439 34.3823 24.5651 34.1837 23.4678 33.7735C23.448 33.7668 23.4278 33.7592 23.4071 33.7508L23.4046 33.7523C23.3894 33.7475 23.3745 33.7414 23.36 33.7339C23.2828 33.706 23.2075 33.6765 23.1341 33.6454C22.7677 33.4948 22.4121 33.3228 22.0673 33.1293C20.7837 32.4023 19.6892 31.3913 18.8412 30.1871C18.7182 30.0115 18.6007 29.8304 18.4885 29.644C18.56 26.6988 20.1196 23.8619 22.8589 22.2803C23.038 22.1769 23.2192 22.0802 23.4026 21.9902C23.4944 21.9474 23.5862 21.9046 23.678 21.8617C23.7647 21.8218 23.8578 21.7822 23.9573 21.7429L23.9624 21.74C24.5848 21.4892 25.2216 21.3134 25.8616 21.2137C25.8951 21.2091 25.9286 21.2044 25.9622 21.1998C25.1547 21.4504 24.3914 22.0744 23.9578 22.8255C23.0702 24.363 23.662 25.7202 23.9574 26.2319C24.5674 27.2884 25.6938 27.9313 26.911 27.9347L34.5587 27.9319C37.7365 27.9302 40.7895 29.5229 42.6269 32.1263C42.6955 32.2236 42.7625 32.3229 42.8279 32.4244Z" fill="#2F2F2F"/>
<path d="M23.109 22.7133C23.2712 22.6196 23.4351 22.5316 23.6007 22.4497C23.5745 22.4912 23.5491 22.5336 23.5247 22.5759C22.5058 24.3413 23.1924 25.9066 23.5247 26.4821C24.225 27.6948 25.517 28.4312 26.9097 28.435L26.9106 28.4345L34.5591 28.4322C37.5728 28.4305 40.4735 29.9429 42.218 32.4146C42.2549 32.4668 42.2893 32.5212 42.3252 32.5748C42.2871 35.3839 40.813 38.1039 38.2022 39.6113C38.1138 39.6623 38.0233 39.7086 37.9339 39.756L37.9464 39.7386C38.9811 37.9494 38.4073 35.6063 36.6755 34.4846L36.6742 34.4843C36.0632 34.0902 35.2746 33.8747 34.5574 33.8785L34.5566 33.879L26.9124 33.881C25.7996 33.882 24.68 33.693 23.6424 33.3051L23.6366 33.3028L23.6294 33.3002L23.5949 33.2874L23.3694 33.1955L23.3643 33.1984C23.3527 33.1936 23.3408 33.1896 23.3293 33.1847L23.324 33.1833L23.0657 33.0719C22.8087 32.9571 22.5569 32.831 22.3115 32.6933C21.248 32.0906 20.3196 31.2809 19.5636 30.3206L19.2505 29.8992C19.1617 29.7723 19.0764 29.6418 18.9934 29.5087C19.1084 26.7838 20.5724 24.1778 23.109 22.7133Z" stroke="#2F2F2F" stroke-opacity="0.1"/>
<path d="M26.9374 41.1603L26.7457 41.181L20.151 41.1087C18.3845 41.0916 17.6972 38.7899 19.1372 37.8329C19.1637 37.8142 19.1918 37.7962 19.2215 37.7791L19.2572 37.7585C20.0298 37.3124 20.9074 37.2215 21.7045 37.4351C22.5023 37.65 23.2169 38.1675 23.6616 38.9376L23.9614 39.4569C24.5684 40.5083 25.6987 41.1609 26.9104 41.1606L26.9374 41.1603Z" fill="#2F2F2F"/>
<path d="M19.4711 38.2123L19.5075 38.1913C20.0791 37.8614 20.7173 37.7615 21.3192 37.8625L21.5746 37.918C22.25 38.1 22.8533 38.5371 23.2289 39.1877L23.5287 39.707C23.736 40.066 23.9972 40.3834 24.2974 40.6536L20.1566 40.6086L20.1558 40.6091C18.8647 40.5965 18.3989 38.9248 19.4139 38.2499L19.4248 38.2413C19.4382 38.2319 19.454 38.2222 19.4711 38.2123Z" stroke="#2F2F2F" stroke-opacity="0.1"/>
<path d="M42.4351 24.364C42.3826 24.4023 42.3277 24.4385 42.2704 24.4727L42.2348 24.4933C41.4647 24.9379 40.5871 25.0288 39.7893 24.8139C38.9924 24.6036 38.2763 24.0836 37.8317 23.3135L37.5326 22.7954C37.4973 22.7343 37.4606 22.6746 37.4224 22.6163C37.0155 21.9704 36.3696 21.5219 35.6576 21.2676C35.6016 21.249 35.5453 21.2318 35.4886 21.2159C35.4376 21.2001 35.385 21.1863 35.3307 21.1747C35.3213 21.1721 35.3111 21.1701 35.3001 21.1686C35.2426 21.1554 35.1856 21.1447 35.1289 21.1367L41.3526 21.2043C43.0512 21.2216 43.736 23.3924 42.4351 24.364Z" fill="#2F2F2F"/>
<path d="M41.3473 21.7041C42.5382 21.7162 43.0158 23.1867 42.2174 23.8968L42.1361 23.9629C42.0975 23.9908 42.0572 24.0178 42.0145 24.0433L41.9849 24.0604C41.3344 24.436 40.5942 24.5128 39.9198 24.3314L39.9194 24.3305L39.9172 24.3306L39.6688 24.2519C39.0977 24.0404 38.5934 23.6335 38.2643 23.0635L37.9655 22.5459C37.9256 22.4769 37.8846 22.4086 37.8413 22.3425L37.8404 22.343C37.6777 22.0862 37.4823 21.8606 37.267 21.6603L41.3473 21.7041Z" stroke="#2F2F2F" stroke-opacity="0.1"/>
<path d="M23.7603 21.4215C23.5684 21.5006 23.3774 21.5854 23.1875 21.6758C23.3474 21.597 23.5417 21.5103 23.7603 21.4215Z" fill="#4171B1"/>
<defs>
<linearGradient id="paint0_linear_318_129" x1="27.7844" y1="32.8406" x2="36.8039" y2="48.4629" gradientUnits="userSpaceOnUse">
<stop stop-color="#8AA6F2"/>
<stop offset="1" stop-color="#1D4ED8"/>
</linearGradient>
<linearGradient id="paint1_linear_318_129" x1="24.6856" y1="13.7895" x2="33.7018" y2="29.406" gradientUnits="userSpaceOnUse">
<stop stop-color="#8AA6F2"/>
<stop offset="1" stop-color="#1D4ED8"/>
</linearGradient>
</defs>
</svg>
